G04 #@! TF.GenerationSoftware,KiCad,Pcbnew,(5.1.8)-1*
G04 #@! TF.CreationDate,2021-03-28T18:17:30+02:00*
G04 #@! TF.ProjectId,pfm3_topsurface,70666d33-5f74-46f7-9073-757266616365,v1.2 / 176*
G04 #@! TF.SameCoordinates,Original*
G04 #@! TF.FileFunction,Copper,L1,Top*
G04 #@! TF.FilePolarity,Positive*
%FSLAX46Y46*%
G04 Gerber Fmt 4.6, Leading zero omitted, Abs format (unit mm)*
G04 Created by KiCad (PCBNEW (5.1.8)-1) date 2021-03-28 18:17:30*
%MOMM*%
%LPD*%
G01*
G04 APERTURE LIST*
G04 #@! TA.AperFunction,ComponentPad*
%ADD10C,3.000000*%
G04 #@! TD*
G04 #@! TA.AperFunction,ComponentPad*
%ADD11C,3.500000*%
G04 #@! TD*
G04 #@! TA.AperFunction,NonConductor*
%ADD12C,0.100000*%
G04 #@! TD*
G04 #@! TA.AperFunction,NonConductor*
%ADD13C,0.150000*%
G04 #@! TD*
G04 APERTURE END LIST*
D10*
X173228000Y-74041000D03*
D11*
X50800000Y-121920000D03*
X50800000Y-41275000D03*
X245110000Y-41275000D03*
X245110000Y-121920000D03*
D12*
X250930039Y-33118111D02*
X251153244Y-33185501D01*
X251359105Y-33294959D01*
X251539785Y-33442319D01*
X251688400Y-33621963D01*
X251799295Y-33827060D01*
X251868241Y-34049786D01*
X251892982Y-34285190D01*
X251893000Y-34290262D01*
X251893001Y-34290272D01*
X251893000Y-77925000D01*
X248923675Y-77925000D01*
X248920000Y-77924638D01*
X248916325Y-77925000D01*
X248905298Y-77926086D01*
X248891160Y-77930375D01*
X248878131Y-77937339D01*
X248866711Y-77946711D01*
X248857339Y-77958131D01*
X248850375Y-77971160D01*
X248846086Y-77985298D01*
X248844638Y-78000000D01*
X248845001Y-78003686D01*
X248845000Y-85192824D01*
X248844638Y-85196500D01*
X248846086Y-85211202D01*
X248850375Y-85225340D01*
X248857339Y-85238369D01*
X248866711Y-85249789D01*
X248878131Y-85259161D01*
X248891160Y-85266125D01*
X248905298Y-85270414D01*
X248920000Y-85271862D01*
X248923675Y-85271500D01*
X251893001Y-85271500D01*
X251893000Y-127440832D01*
X251869889Y-127676539D01*
X251802499Y-127899744D01*
X251693042Y-128105603D01*
X251545681Y-128286285D01*
X251366037Y-128434900D01*
X251160940Y-128545795D01*
X250938214Y-128614741D01*
X250702811Y-128639482D01*
X250697738Y-128639500D01*
X151522500Y-128639500D01*
X151522500Y-125543176D01*
X151522862Y-125539500D01*
X151521414Y-125524798D01*
X151517125Y-125510660D01*
X151510161Y-125497631D01*
X151500789Y-125486211D01*
X151489369Y-125476839D01*
X151476340Y-125469875D01*
X151462202Y-125465586D01*
X151451175Y-125464500D01*
X151447500Y-125464138D01*
X151443825Y-125464500D01*
X144402675Y-125464500D01*
X144399000Y-125464138D01*
X144395325Y-125464500D01*
X144384298Y-125465586D01*
X144370160Y-125469875D01*
X144357131Y-125476839D01*
X144345711Y-125486211D01*
X144336339Y-125497631D01*
X144329375Y-125510660D01*
X144325086Y-125524798D01*
X144323638Y-125539500D01*
X144324000Y-125543176D01*
X144324001Y-128639500D01*
X45215668Y-128639500D01*
X44979961Y-128616389D01*
X44756756Y-128548999D01*
X44550897Y-128439542D01*
X44370215Y-128292181D01*
X44221600Y-128112537D01*
X44110705Y-127907440D01*
X44041759Y-127684714D01*
X44017018Y-127449311D01*
X44017000Y-127444238D01*
X44017000Y-121727942D01*
X48850000Y-121727942D01*
X48850000Y-122112058D01*
X48924938Y-122488794D01*
X49071933Y-122843671D01*
X49285336Y-123163052D01*
X49556948Y-123434664D01*
X49876329Y-123648067D01*
X50231206Y-123795062D01*
X50607942Y-123870000D01*
X50992058Y-123870000D01*
X51368794Y-123795062D01*
X51723671Y-123648067D01*
X52043052Y-123434664D01*
X52314664Y-123163052D01*
X52528067Y-122843671D01*
X52675062Y-122488794D01*
X52750000Y-122112058D01*
X52750000Y-121727942D01*
X243160000Y-121727942D01*
X243160000Y-122112058D01*
X243234938Y-122488794D01*
X243381933Y-122843671D01*
X243595336Y-123163052D01*
X243866948Y-123434664D01*
X244186329Y-123648067D01*
X244541206Y-123795062D01*
X244917942Y-123870000D01*
X245302058Y-123870000D01*
X245678794Y-123795062D01*
X246033671Y-123648067D01*
X246353052Y-123434664D01*
X246624664Y-123163052D01*
X246838067Y-122843671D01*
X246985062Y-122488794D01*
X247060000Y-122112058D01*
X247060000Y-121727942D01*
X246985062Y-121351206D01*
X246838067Y-120996329D01*
X246624664Y-120676948D01*
X246353052Y-120405336D01*
X246033671Y-120191933D01*
X245678794Y-120044938D01*
X245302058Y-119970000D01*
X244917942Y-119970000D01*
X244541206Y-120044938D01*
X244186329Y-120191933D01*
X243866948Y-120405336D01*
X243595336Y-120676948D01*
X243381933Y-120996329D01*
X243234938Y-121351206D01*
X243160000Y-121727942D01*
X52750000Y-121727942D01*
X52675062Y-121351206D01*
X52528067Y-120996329D01*
X52314664Y-120676948D01*
X52043052Y-120405336D01*
X51723671Y-120191933D01*
X51368794Y-120044938D01*
X50992058Y-119970000D01*
X50607942Y-119970000D01*
X50231206Y-120044938D01*
X49876329Y-120191933D01*
X49556948Y-120405336D01*
X49285336Y-120676948D01*
X49071933Y-120996329D01*
X48924938Y-121351206D01*
X48850000Y-121727942D01*
X44017000Y-121727942D01*
X44017000Y-112077500D01*
X112700638Y-112077500D01*
X112701001Y-112081186D01*
X112701000Y-117788824D01*
X112700638Y-117792500D01*
X112702086Y-117807202D01*
X112706375Y-117821340D01*
X112713339Y-117834369D01*
X112722711Y-117845789D01*
X112734131Y-117855161D01*
X112747160Y-117862125D01*
X112761298Y-117866414D01*
X112776000Y-117867862D01*
X112779675Y-117867500D01*
X124456325Y-117867500D01*
X124460000Y-117867862D01*
X124463675Y-117867500D01*
X124474702Y-117866414D01*
X124488840Y-117862125D01*
X124501869Y-117855161D01*
X124513289Y-117845789D01*
X124522661Y-117834369D01*
X124529625Y-117821340D01*
X124533914Y-117807202D01*
X124535362Y-117792500D01*
X124535000Y-117788825D01*
X124535000Y-112081176D01*
X124535362Y-112077500D01*
X129210638Y-112077500D01*
X129211001Y-112081186D01*
X129211000Y-117788824D01*
X129210638Y-117792500D01*
X129212086Y-117807202D01*
X129216375Y-117821340D01*
X129223339Y-117834369D01*
X129232711Y-117845789D01*
X129244131Y-117855161D01*
X129257160Y-117862125D01*
X129271298Y-117866414D01*
X129286000Y-117867862D01*
X129289675Y-117867500D01*
X140966325Y-117867500D01*
X140970000Y-117867862D01*
X140973675Y-117867500D01*
X140984702Y-117866414D01*
X140998840Y-117862125D01*
X141011869Y-117855161D01*
X141023289Y-117845789D01*
X141032661Y-117834369D01*
X141039625Y-117821340D01*
X141043914Y-117807202D01*
X141045362Y-117792500D01*
X141045000Y-117788825D01*
X141045000Y-112081176D01*
X141045362Y-112077500D01*
X145720638Y-112077500D01*
X145721001Y-112081186D01*
X145721000Y-117788824D01*
X145720638Y-117792500D01*
X145722086Y-117807202D01*
X145726375Y-117821340D01*
X145733339Y-117834369D01*
X145742711Y-117845789D01*
X145754131Y-117855161D01*
X145767160Y-117862125D01*
X145781298Y-117866414D01*
X145796000Y-117867862D01*
X145799675Y-117867500D01*
X157476325Y-117867500D01*
X157480000Y-117867862D01*
X157483675Y-117867500D01*
X157494702Y-117866414D01*
X157508840Y-117862125D01*
X157521869Y-117855161D01*
X157533289Y-117845789D01*
X157542661Y-117834369D01*
X157549625Y-117821340D01*
X157553914Y-117807202D01*
X157555362Y-117792500D01*
X157555000Y-117788825D01*
X157555000Y-112081176D01*
X157555362Y-112077500D01*
X190170638Y-112077500D01*
X190171001Y-112081186D01*
X190171000Y-117788824D01*
X190170638Y-117792500D01*
X190172086Y-117807202D01*
X190176375Y-117821340D01*
X190183339Y-117834369D01*
X190192711Y-117845789D01*
X190204131Y-117855161D01*
X190217160Y-117862125D01*
X190231298Y-117866414D01*
X190246000Y-117867862D01*
X190249675Y-117867500D01*
X201926325Y-117867500D01*
X201930000Y-117867862D01*
X201933675Y-117867500D01*
X201944702Y-117866414D01*
X201958840Y-117862125D01*
X201971869Y-117855161D01*
X201983289Y-117845789D01*
X201992661Y-117834369D01*
X201999625Y-117821340D01*
X202003914Y-117807202D01*
X202005362Y-117792500D01*
X202005000Y-117788825D01*
X202005000Y-112081176D01*
X202005362Y-112077500D01*
X206680638Y-112077500D01*
X206681001Y-112081186D01*
X206681000Y-117788824D01*
X206680638Y-117792500D01*
X206682086Y-117807202D01*
X206686375Y-117821340D01*
X206693339Y-117834369D01*
X206702711Y-117845789D01*
X206714131Y-117855161D01*
X206727160Y-117862125D01*
X206741298Y-117866414D01*
X206756000Y-117867862D01*
X206759675Y-117867500D01*
X218436325Y-117867500D01*
X218440000Y-117867862D01*
X218443675Y-117867500D01*
X218454702Y-117866414D01*
X218468840Y-117862125D01*
X218481869Y-117855161D01*
X218493289Y-117845789D01*
X218502661Y-117834369D01*
X218509625Y-117821340D01*
X218513914Y-117807202D01*
X218515362Y-117792500D01*
X218515000Y-117788825D01*
X218515000Y-112081176D01*
X218515362Y-112077500D01*
X223190638Y-112077500D01*
X223191001Y-112081186D01*
X223191000Y-117788824D01*
X223190638Y-117792500D01*
X223192086Y-117807202D01*
X223196375Y-117821340D01*
X223203339Y-117834369D01*
X223212711Y-117845789D01*
X223224131Y-117855161D01*
X223237160Y-117862125D01*
X223251298Y-117866414D01*
X223266000Y-117867862D01*
X223269675Y-117867500D01*
X234946325Y-117867500D01*
X234950000Y-117867862D01*
X234953675Y-117867500D01*
X234964702Y-117866414D01*
X234978840Y-117862125D01*
X234991869Y-117855161D01*
X235003289Y-117845789D01*
X235012661Y-117834369D01*
X235019625Y-117821340D01*
X235023914Y-117807202D01*
X235025362Y-117792500D01*
X235025000Y-117788825D01*
X235025000Y-112081176D01*
X235025362Y-112077500D01*
X235023914Y-112062798D01*
X235019625Y-112048660D01*
X235012661Y-112035631D01*
X235003289Y-112024211D01*
X234991869Y-112014839D01*
X234978840Y-112007875D01*
X234964702Y-112003586D01*
X234953675Y-112002500D01*
X234950000Y-112002138D01*
X234946325Y-112002500D01*
X223269675Y-112002500D01*
X223266000Y-112002138D01*
X223262325Y-112002500D01*
X223251298Y-112003586D01*
X223237160Y-112007875D01*
X223224131Y-112014839D01*
X223212711Y-112024211D01*
X223203339Y-112035631D01*
X223196375Y-112048660D01*
X223192086Y-112062798D01*
X223190638Y-112077500D01*
X218515362Y-112077500D01*
X218513914Y-112062798D01*
X218509625Y-112048660D01*
X218502661Y-112035631D01*
X218493289Y-112024211D01*
X218481869Y-112014839D01*
X218468840Y-112007875D01*
X218454702Y-112003586D01*
X218443675Y-112002500D01*
X218440000Y-112002138D01*
X218436325Y-112002500D01*
X206759675Y-112002500D01*
X206756000Y-112002138D01*
X206752325Y-112002500D01*
X206741298Y-112003586D01*
X206727160Y-112007875D01*
X206714131Y-112014839D01*
X206702711Y-112024211D01*
X206693339Y-112035631D01*
X206686375Y-112048660D01*
X206682086Y-112062798D01*
X206680638Y-112077500D01*
X202005362Y-112077500D01*
X202003914Y-112062798D01*
X201999625Y-112048660D01*
X201992661Y-112035631D01*
X201983289Y-112024211D01*
X201971869Y-112014839D01*
X201958840Y-112007875D01*
X201944702Y-112003586D01*
X201933675Y-112002500D01*
X201930000Y-112002138D01*
X201926325Y-112002500D01*
X190249675Y-112002500D01*
X190246000Y-112002138D01*
X190242325Y-112002500D01*
X190231298Y-112003586D01*
X190217160Y-112007875D01*
X190204131Y-112014839D01*
X190192711Y-112024211D01*
X190183339Y-112035631D01*
X190176375Y-112048660D01*
X190172086Y-112062798D01*
X190170638Y-112077500D01*
X157555362Y-112077500D01*
X157553914Y-112062798D01*
X157549625Y-112048660D01*
X157542661Y-112035631D01*
X157533289Y-112024211D01*
X157521869Y-112014839D01*
X157508840Y-112007875D01*
X157494702Y-112003586D01*
X157483675Y-112002500D01*
X157480000Y-112002138D01*
X157476325Y-112002500D01*
X145799675Y-112002500D01*
X145796000Y-112002138D01*
X145792325Y-112002500D01*
X145781298Y-112003586D01*
X145767160Y-112007875D01*
X145754131Y-112014839D01*
X145742711Y-112024211D01*
X145733339Y-112035631D01*
X145726375Y-112048660D01*
X145722086Y-112062798D01*
X145720638Y-112077500D01*
X141045362Y-112077500D01*
X141043914Y-112062798D01*
X141039625Y-112048660D01*
X141032661Y-112035631D01*
X141023289Y-112024211D01*
X141011869Y-112014839D01*
X140998840Y-112007875D01*
X140984702Y-112003586D01*
X140973675Y-112002500D01*
X140970000Y-112002138D01*
X140966325Y-112002500D01*
X129289675Y-112002500D01*
X129286000Y-112002138D01*
X129282325Y-112002500D01*
X129271298Y-112003586D01*
X129257160Y-112007875D01*
X129244131Y-112014839D01*
X129232711Y-112024211D01*
X129223339Y-112035631D01*
X129216375Y-112048660D01*
X129212086Y-112062798D01*
X129210638Y-112077500D01*
X124535362Y-112077500D01*
X124533914Y-112062798D01*
X124529625Y-112048660D01*
X124522661Y-112035631D01*
X124513289Y-112024211D01*
X124501869Y-112014839D01*
X124488840Y-112007875D01*
X124474702Y-112003586D01*
X124463675Y-112002500D01*
X124460000Y-112002138D01*
X124456325Y-112002500D01*
X112779675Y-112002500D01*
X112776000Y-112002138D01*
X112772325Y-112002500D01*
X112761298Y-112003586D01*
X112747160Y-112007875D01*
X112734131Y-112014839D01*
X112722711Y-112024211D01*
X112713339Y-112035631D01*
X112706375Y-112048660D01*
X112702086Y-112062798D01*
X112700638Y-112077500D01*
X44017000Y-112077500D01*
X44017000Y-85275000D01*
X46986325Y-85275000D01*
X46990000Y-85275362D01*
X46993675Y-85275000D01*
X47004702Y-85273914D01*
X47018840Y-85269625D01*
X47031869Y-85262661D01*
X47043289Y-85253289D01*
X47052661Y-85241869D01*
X47059625Y-85228840D01*
X47063914Y-85214702D01*
X47065362Y-85200000D01*
X47065000Y-85196325D01*
X47065000Y-78002175D01*
X47065362Y-77998500D01*
X47063914Y-77983798D01*
X47059625Y-77969660D01*
X47052661Y-77956631D01*
X47043289Y-77945211D01*
X47031869Y-77935839D01*
X47018840Y-77928875D01*
X47004702Y-77924586D01*
X46993675Y-77923500D01*
X46990000Y-77923138D01*
X46986325Y-77923500D01*
X44017000Y-77923500D01*
X44017000Y-47561500D01*
X56974638Y-47561500D01*
X56975000Y-47565176D01*
X56975001Y-108696314D01*
X56974638Y-108700000D01*
X56976086Y-108714702D01*
X56980375Y-108728840D01*
X56987339Y-108741869D01*
X56996711Y-108753289D01*
X57008131Y-108762661D01*
X57021160Y-108769625D01*
X57035298Y-108773914D01*
X57046325Y-108775000D01*
X57050000Y-108775362D01*
X57053675Y-108775000D01*
X103046328Y-108775000D01*
X103049988Y-108775361D01*
X103053661Y-108775000D01*
X103053675Y-108775000D01*
X103060958Y-108774283D01*
X103064689Y-108773916D01*
X103064693Y-108773915D01*
X103064702Y-108773914D01*
X103076621Y-108770298D01*
X103078828Y-108769629D01*
X103078830Y-108769628D01*
X103078840Y-108769625D01*
X103087727Y-108764875D01*
X103091858Y-108762668D01*
X103091862Y-108762665D01*
X103091869Y-108762661D01*
X103100067Y-108755933D01*
X103103279Y-108753298D01*
X103103281Y-108753296D01*
X103103289Y-108753289D01*
X103112661Y-108741869D01*
X103117886Y-108732093D01*
X103119620Y-108728851D01*
X103119621Y-108728847D01*
X103119625Y-108728840D01*
X103122718Y-108718644D01*
X103123911Y-108714714D01*
X103123911Y-108714711D01*
X103123914Y-108714702D01*
X103125362Y-108700000D01*
X103125000Y-108696327D01*
X103126600Y-99377500D01*
X112700638Y-99377500D01*
X112701001Y-99381186D01*
X112701000Y-105088824D01*
X112700638Y-105092500D01*
X112702086Y-105107202D01*
X112706375Y-105121340D01*
X112713339Y-105134369D01*
X112722711Y-105145789D01*
X112734131Y-105155161D01*
X112747160Y-105162125D01*
X112761298Y-105166414D01*
X112776000Y-105167862D01*
X112779675Y-105167500D01*
X124456325Y-105167500D01*
X124460000Y-105167862D01*
X124463675Y-105167500D01*
X124474702Y-105166414D01*
X124488840Y-105162125D01*
X124501869Y-105155161D01*
X124513289Y-105145789D01*
X124522661Y-105134369D01*
X124529625Y-105121340D01*
X124533914Y-105107202D01*
X124535362Y-105092500D01*
X124535000Y-105088825D01*
X124535000Y-99381176D01*
X124535362Y-99377500D01*
X129210638Y-99377500D01*
X129211001Y-99381186D01*
X129211000Y-105088824D01*
X129210638Y-105092500D01*
X129212086Y-105107202D01*
X129216375Y-105121340D01*
X129223339Y-105134369D01*
X129232711Y-105145789D01*
X129244131Y-105155161D01*
X129257160Y-105162125D01*
X129271298Y-105166414D01*
X129286000Y-105167862D01*
X129289675Y-105167500D01*
X140966325Y-105167500D01*
X140970000Y-105167862D01*
X140973675Y-105167500D01*
X140984702Y-105166414D01*
X140998840Y-105162125D01*
X141011869Y-105155161D01*
X141023289Y-105145789D01*
X141032661Y-105134369D01*
X141039625Y-105121340D01*
X141043914Y-105107202D01*
X141045362Y-105092500D01*
X141045000Y-105088825D01*
X141045000Y-99381176D01*
X141045362Y-99377500D01*
X145720638Y-99377500D01*
X145721001Y-99381186D01*
X145721000Y-105088824D01*
X145720638Y-105092500D01*
X145722086Y-105107202D01*
X145726375Y-105121340D01*
X145733339Y-105134369D01*
X145742711Y-105145789D01*
X145754131Y-105155161D01*
X145767160Y-105162125D01*
X145781298Y-105166414D01*
X145796000Y-105167862D01*
X145799675Y-105167500D01*
X157476325Y-105167500D01*
X157480000Y-105167862D01*
X157483675Y-105167500D01*
X157494702Y-105166414D01*
X157508840Y-105162125D01*
X157521869Y-105155161D01*
X157533289Y-105145789D01*
X157542661Y-105134369D01*
X157549625Y-105121340D01*
X157553914Y-105107202D01*
X157555362Y-105092500D01*
X157555000Y-105088825D01*
X157555000Y-99381176D01*
X157555362Y-99377500D01*
X157553914Y-99362798D01*
X157549625Y-99348660D01*
X157542661Y-99335631D01*
X157533289Y-99324211D01*
X157521869Y-99314839D01*
X157508840Y-99307875D01*
X157494702Y-99303586D01*
X157483675Y-99302500D01*
X157480000Y-99302138D01*
X157476325Y-99302500D01*
X145799675Y-99302500D01*
X145796000Y-99302138D01*
X145792325Y-99302500D01*
X145781298Y-99303586D01*
X145767160Y-99307875D01*
X145754131Y-99314839D01*
X145742711Y-99324211D01*
X145733339Y-99335631D01*
X145726375Y-99348660D01*
X145722086Y-99362798D01*
X145720638Y-99377500D01*
X141045362Y-99377500D01*
X141043914Y-99362798D01*
X141039625Y-99348660D01*
X141032661Y-99335631D01*
X141023289Y-99324211D01*
X141011869Y-99314839D01*
X140998840Y-99307875D01*
X140984702Y-99303586D01*
X140973675Y-99302500D01*
X140970000Y-99302138D01*
X140966325Y-99302500D01*
X129289675Y-99302500D01*
X129286000Y-99302138D01*
X129282325Y-99302500D01*
X129271298Y-99303586D01*
X129257160Y-99307875D01*
X129244131Y-99314839D01*
X129232711Y-99324211D01*
X129223339Y-99335631D01*
X129216375Y-99348660D01*
X129212086Y-99362798D01*
X129210638Y-99377500D01*
X124535362Y-99377500D01*
X124533914Y-99362798D01*
X124529625Y-99348660D01*
X124522661Y-99335631D01*
X124513289Y-99324211D01*
X124501869Y-99314839D01*
X124488840Y-99307875D01*
X124474702Y-99303586D01*
X124463675Y-99302500D01*
X124460000Y-99302138D01*
X124456325Y-99302500D01*
X112779675Y-99302500D01*
X112776000Y-99302138D01*
X112772325Y-99302500D01*
X112761298Y-99303586D01*
X112747160Y-99307875D01*
X112734131Y-99314839D01*
X112722711Y-99324211D01*
X112713339Y-99335631D01*
X112706375Y-99348660D01*
X112702086Y-99362798D01*
X112700638Y-99377500D01*
X103126600Y-99377500D01*
X103126927Y-97472500D01*
X198425638Y-97472500D01*
X198426001Y-97476186D01*
X198426000Y-103183824D01*
X198425638Y-103187500D01*
X198427086Y-103202202D01*
X198431375Y-103216340D01*
X198438339Y-103229369D01*
X198447711Y-103240789D01*
X198459131Y-103250161D01*
X198472160Y-103257125D01*
X198486298Y-103261414D01*
X198501000Y-103262862D01*
X198504675Y-103262500D01*
X210181325Y-103262500D01*
X210185000Y-103262862D01*
X210188675Y-103262500D01*
X210199702Y-103261414D01*
X210213840Y-103257125D01*
X210226869Y-103250161D01*
X210238289Y-103240789D01*
X210247661Y-103229369D01*
X210254625Y-103216340D01*
X210258914Y-103202202D01*
X210260362Y-103187500D01*
X210260000Y-103183825D01*
X210260000Y-97476175D01*
X210260362Y-97472500D01*
X214935638Y-97472500D01*
X214936001Y-97476186D01*
X214936000Y-103183824D01*
X214935638Y-103187500D01*
X214937086Y-103202202D01*
X214941375Y-103216340D01*
X214948339Y-103229369D01*
X214957711Y-103240789D01*
X214969131Y-103250161D01*
X214982160Y-103257125D01*
X214996298Y-103261414D01*
X215011000Y-103262862D01*
X215014675Y-103262500D01*
X226691325Y-103262500D01*
X226695000Y-103262862D01*
X226698675Y-103262500D01*
X226709702Y-103261414D01*
X226723840Y-103257125D01*
X226736869Y-103250161D01*
X226748289Y-103240789D01*
X226757661Y-103229369D01*
X226764625Y-103216340D01*
X226768914Y-103202202D01*
X226770362Y-103187500D01*
X226770000Y-103183825D01*
X226770000Y-97476176D01*
X226770362Y-97472500D01*
X226768914Y-97457798D01*
X226764625Y-97443660D01*
X226757661Y-97430631D01*
X226748289Y-97419211D01*
X226736869Y-97409839D01*
X226723840Y-97402875D01*
X226709702Y-97398586D01*
X226698675Y-97397500D01*
X226695000Y-97397138D01*
X226691325Y-97397500D01*
X215014675Y-97397500D01*
X215011000Y-97397138D01*
X215007325Y-97397500D01*
X214996298Y-97398586D01*
X214982160Y-97402875D01*
X214969131Y-97409839D01*
X214957711Y-97419211D01*
X214948339Y-97430631D01*
X214941375Y-97443660D01*
X214937086Y-97457798D01*
X214935638Y-97472500D01*
X210260362Y-97472500D01*
X210258914Y-97457798D01*
X210254625Y-97443660D01*
X210247661Y-97430631D01*
X210238289Y-97419211D01*
X210226869Y-97409839D01*
X210213840Y-97402875D01*
X210199702Y-97398586D01*
X210188675Y-97397500D01*
X210185000Y-97397138D01*
X210181325Y-97397500D01*
X198504675Y-97397500D01*
X198501000Y-97397138D01*
X198497325Y-97397500D01*
X198486298Y-97398586D01*
X198472160Y-97402875D01*
X198459131Y-97409839D01*
X198447711Y-97419211D01*
X198438339Y-97430631D01*
X198431375Y-97443660D01*
X198427086Y-97457798D01*
X198425638Y-97472500D01*
X103126927Y-97472500D01*
X103129457Y-82740500D01*
X112700638Y-82740500D01*
X112701001Y-82744186D01*
X112701000Y-88451824D01*
X112700638Y-88455500D01*
X112702086Y-88470202D01*
X112706375Y-88484340D01*
X112713339Y-88497369D01*
X112722711Y-88508789D01*
X112734131Y-88518161D01*
X112747160Y-88525125D01*
X112761298Y-88529414D01*
X112776000Y-88530862D01*
X112779675Y-88530500D01*
X124456325Y-88530500D01*
X124460000Y-88530862D01*
X124463675Y-88530500D01*
X124474702Y-88529414D01*
X124488840Y-88525125D01*
X124501869Y-88518161D01*
X124513289Y-88508789D01*
X124522661Y-88497369D01*
X124529625Y-88484340D01*
X124533914Y-88470202D01*
X124535362Y-88455500D01*
X124535000Y-88451825D01*
X124535000Y-82744176D01*
X124535362Y-82740500D01*
X124533914Y-82725798D01*
X124529625Y-82711660D01*
X124522661Y-82698631D01*
X124513289Y-82687211D01*
X124501869Y-82677839D01*
X124488840Y-82670875D01*
X124474702Y-82666586D01*
X124463675Y-82665500D01*
X124460000Y-82665138D01*
X124456325Y-82665500D01*
X112779675Y-82665500D01*
X112776000Y-82665138D01*
X112772325Y-82665500D01*
X112761298Y-82666586D01*
X112747160Y-82670875D01*
X112734131Y-82677839D01*
X112722711Y-82687211D01*
X112713339Y-82698631D01*
X112706375Y-82711660D01*
X112702086Y-82725798D01*
X112700638Y-82740500D01*
X103129457Y-82740500D01*
X103130082Y-79098620D01*
X148424719Y-79098620D01*
X148424719Y-79901380D01*
X148581329Y-80688716D01*
X148888532Y-81430370D01*
X149334522Y-82097840D01*
X149902160Y-82665478D01*
X150569630Y-83111468D01*
X151311284Y-83418671D01*
X152098620Y-83575281D01*
X152901380Y-83575281D01*
X153688716Y-83418671D01*
X154430370Y-83111468D01*
X155097840Y-82665478D01*
X155665478Y-82097840D01*
X156111468Y-81430370D01*
X156418671Y-80688716D01*
X156575281Y-79901380D01*
X156575281Y-79098620D01*
X185524719Y-79098620D01*
X185524719Y-79901380D01*
X185681329Y-80688716D01*
X185988532Y-81430370D01*
X186434522Y-82097840D01*
X187002160Y-82665478D01*
X187669630Y-83111468D01*
X188411284Y-83418671D01*
X189198620Y-83575281D01*
X190001380Y-83575281D01*
X190788716Y-83418671D01*
X191530370Y-83111468D01*
X192197840Y-82665478D01*
X192765478Y-82097840D01*
X193211468Y-81430370D01*
X193518671Y-80688716D01*
X193675281Y-79901380D01*
X193675281Y-79098620D01*
X222574719Y-79098620D01*
X222574719Y-79901380D01*
X222731329Y-80688716D01*
X223038532Y-81430370D01*
X223484522Y-82097840D01*
X224052160Y-82665478D01*
X224719630Y-83111468D01*
X225461284Y-83418671D01*
X226248620Y-83575281D01*
X227051380Y-83575281D01*
X227838716Y-83418671D01*
X228580370Y-83111468D01*
X229247840Y-82665478D01*
X229815478Y-82097840D01*
X230261468Y-81430370D01*
X230568671Y-80688716D01*
X230725281Y-79901380D01*
X230725281Y-79098620D01*
X230568671Y-78311284D01*
X230261468Y-77569630D01*
X229815478Y-76902160D01*
X229247840Y-76334522D01*
X228580370Y-75888532D01*
X227838716Y-75581329D01*
X227051380Y-75424719D01*
X226248620Y-75424719D01*
X225461284Y-75581329D01*
X224719630Y-75888532D01*
X224052160Y-76334522D01*
X223484522Y-76902160D01*
X223038532Y-77569630D01*
X222731329Y-78311284D01*
X222574719Y-79098620D01*
X193675281Y-79098620D01*
X193518671Y-78311284D01*
X193211468Y-77569630D01*
X192765478Y-76902160D01*
X192197840Y-76334522D01*
X191530370Y-75888532D01*
X190788716Y-75581329D01*
X190001380Y-75424719D01*
X189198620Y-75424719D01*
X188411284Y-75581329D01*
X187669630Y-75888532D01*
X187002160Y-76334522D01*
X186434522Y-76902160D01*
X185988532Y-77569630D01*
X185681329Y-78311284D01*
X185524719Y-79098620D01*
X156575281Y-79098620D01*
X156418671Y-78311284D01*
X156111468Y-77569630D01*
X155665478Y-76902160D01*
X155097840Y-76334522D01*
X154430370Y-75888532D01*
X153688716Y-75581329D01*
X152901380Y-75424719D01*
X152098620Y-75424719D01*
X151311284Y-75581329D01*
X150569630Y-75888532D01*
X149902160Y-76334522D01*
X149334522Y-76902160D01*
X148888532Y-77569630D01*
X148581329Y-78311284D01*
X148424719Y-79098620D01*
X103130082Y-79098620D01*
X103130979Y-73873565D01*
X171528000Y-73873565D01*
X171528000Y-74208435D01*
X171593330Y-74536872D01*
X171721479Y-74846252D01*
X171907523Y-75124687D01*
X172144313Y-75361477D01*
X172422748Y-75547521D01*
X172732128Y-75675670D01*
X173060565Y-75741000D01*
X173395435Y-75741000D01*
X173723872Y-75675670D01*
X174033252Y-75547521D01*
X174311687Y-75361477D01*
X174548477Y-75124687D01*
X174734521Y-74846252D01*
X174862670Y-74536872D01*
X174928000Y-74208435D01*
X174928000Y-73873565D01*
X174862670Y-73545128D01*
X174734521Y-73235748D01*
X174548477Y-72957313D01*
X174311687Y-72720523D01*
X174033252Y-72534479D01*
X173723872Y-72406330D01*
X173395435Y-72341000D01*
X173060565Y-72341000D01*
X172732128Y-72406330D01*
X172422748Y-72534479D01*
X172144313Y-72720523D01*
X171907523Y-72957313D01*
X171721479Y-73235748D01*
X171593330Y-73545128D01*
X171528000Y-73873565D01*
X103130979Y-73873565D01*
X103134668Y-52398620D01*
X148424719Y-52398620D01*
X148424719Y-53201380D01*
X148581329Y-53988716D01*
X148888532Y-54730370D01*
X149334522Y-55397840D01*
X149902160Y-55965478D01*
X150569630Y-56411468D01*
X151311284Y-56718671D01*
X152098620Y-56875281D01*
X152901380Y-56875281D01*
X153688716Y-56718671D01*
X154430370Y-56411468D01*
X155097840Y-55965478D01*
X155665478Y-55397840D01*
X156111468Y-54730370D01*
X156418671Y-53988716D01*
X156575281Y-53201380D01*
X156575281Y-52448620D01*
X185524719Y-52448620D01*
X185524719Y-53251380D01*
X185681329Y-54038716D01*
X185988532Y-54780370D01*
X186434522Y-55447840D01*
X187002160Y-56015478D01*
X187669630Y-56461468D01*
X188411284Y-56768671D01*
X189198620Y-56925281D01*
X190001380Y-56925281D01*
X190788716Y-56768671D01*
X191530370Y-56461468D01*
X192197840Y-56015478D01*
X192765478Y-55447840D01*
X193211468Y-54780370D01*
X193518671Y-54038716D01*
X193675281Y-53251380D01*
X193675281Y-52448620D01*
X222574719Y-52448620D01*
X222574719Y-53251380D01*
X222731329Y-54038716D01*
X223038532Y-54780370D01*
X223484522Y-55447840D01*
X224052160Y-56015478D01*
X224719630Y-56461468D01*
X225461284Y-56768671D01*
X226248620Y-56925281D01*
X227051380Y-56925281D01*
X227838716Y-56768671D01*
X228580370Y-56461468D01*
X229247840Y-56015478D01*
X229815478Y-55447840D01*
X230261468Y-54780370D01*
X230568671Y-54038716D01*
X230725281Y-53251380D01*
X230725281Y-52448620D01*
X230568671Y-51661284D01*
X230261468Y-50919630D01*
X229815478Y-50252160D01*
X229247840Y-49684522D01*
X228580370Y-49238532D01*
X227838716Y-48931329D01*
X227051380Y-48774719D01*
X226248620Y-48774719D01*
X225461284Y-48931329D01*
X224719630Y-49238532D01*
X224052160Y-49684522D01*
X223484522Y-50252160D01*
X223038532Y-50919630D01*
X222731329Y-51661284D01*
X222574719Y-52448620D01*
X193675281Y-52448620D01*
X193518671Y-51661284D01*
X193211468Y-50919630D01*
X192765478Y-50252160D01*
X192197840Y-49684522D01*
X191530370Y-49238532D01*
X190788716Y-48931329D01*
X190001380Y-48774719D01*
X189198620Y-48774719D01*
X188411284Y-48931329D01*
X187669630Y-49238532D01*
X187002160Y-49684522D01*
X186434522Y-50252160D01*
X185988532Y-50919630D01*
X185681329Y-51661284D01*
X185524719Y-52448620D01*
X156575281Y-52448620D01*
X156575281Y-52398620D01*
X156418671Y-51611284D01*
X156111468Y-50869630D01*
X155665478Y-50202160D01*
X155097840Y-49634522D01*
X154430370Y-49188532D01*
X153688716Y-48881329D01*
X152901380Y-48724719D01*
X152098620Y-48724719D01*
X151311284Y-48881329D01*
X150569630Y-49188532D01*
X149902160Y-49634522D01*
X149334522Y-50202160D01*
X148888532Y-50869630D01*
X148581329Y-51611284D01*
X148424719Y-52398620D01*
X103134668Y-52398620D01*
X103135499Y-47565188D01*
X103135862Y-47561500D01*
X103134797Y-47550683D01*
X103134416Y-47546811D01*
X103134415Y-47546807D01*
X103134414Y-47546798D01*
X103130125Y-47532660D01*
X103125375Y-47523773D01*
X103123168Y-47519642D01*
X103123165Y-47519638D01*
X103123161Y-47519631D01*
X103116433Y-47511433D01*
X103113798Y-47508221D01*
X103113796Y-47508219D01*
X103113789Y-47508211D01*
X103102369Y-47498839D01*
X103092593Y-47493614D01*
X103089351Y-47491880D01*
X103089347Y-47491879D01*
X103089340Y-47491875D01*
X103079144Y-47488782D01*
X103075214Y-47487589D01*
X103075211Y-47487589D01*
X103075202Y-47487586D01*
X103066495Y-47486728D01*
X103060512Y-47486138D01*
X103056832Y-47486500D01*
X57053675Y-47486500D01*
X57050000Y-47486138D01*
X57046325Y-47486500D01*
X57035298Y-47487586D01*
X57021160Y-47491875D01*
X57008131Y-47498839D01*
X56996711Y-47508211D01*
X56987339Y-47519631D01*
X56980375Y-47532660D01*
X56976086Y-47546798D01*
X56974638Y-47561500D01*
X44017000Y-47561500D01*
X44017000Y-41082942D01*
X48850000Y-41082942D01*
X48850000Y-41467058D01*
X48924938Y-41843794D01*
X49071933Y-42198671D01*
X49285336Y-42518052D01*
X49556948Y-42789664D01*
X49876329Y-43003067D01*
X50231206Y-43150062D01*
X50607942Y-43225000D01*
X50992058Y-43225000D01*
X51368794Y-43150062D01*
X51723671Y-43003067D01*
X52043052Y-42789664D01*
X52314664Y-42518052D01*
X52528067Y-42198671D01*
X52675062Y-41843794D01*
X52750000Y-41467058D01*
X52750000Y-41082942D01*
X243160000Y-41082942D01*
X243160000Y-41467058D01*
X243234938Y-41843794D01*
X243381933Y-42198671D01*
X243595336Y-42518052D01*
X243866948Y-42789664D01*
X244186329Y-43003067D01*
X244541206Y-43150062D01*
X244917942Y-43225000D01*
X245302058Y-43225000D01*
X245678794Y-43150062D01*
X246033671Y-43003067D01*
X246353052Y-42789664D01*
X246624664Y-42518052D01*
X246838067Y-42198671D01*
X246985062Y-41843794D01*
X247060000Y-41467058D01*
X247060000Y-41082942D01*
X246985062Y-40706206D01*
X246838067Y-40351329D01*
X246624664Y-40031948D01*
X246353052Y-39760336D01*
X246033671Y-39546933D01*
X245678794Y-39399938D01*
X245302058Y-39325000D01*
X244917942Y-39325000D01*
X244541206Y-39399938D01*
X244186329Y-39546933D01*
X243866948Y-39760336D01*
X243595336Y-40031948D01*
X243381933Y-40351329D01*
X243234938Y-40706206D01*
X243160000Y-41082942D01*
X52750000Y-41082942D01*
X52675062Y-40706206D01*
X52528067Y-40351329D01*
X52314664Y-40031948D01*
X52043052Y-39760336D01*
X51723671Y-39546933D01*
X51368794Y-39399938D01*
X50992058Y-39325000D01*
X50607942Y-39325000D01*
X50231206Y-39399938D01*
X49876329Y-39546933D01*
X49556948Y-39760336D01*
X49285336Y-40031948D01*
X49071933Y-40351329D01*
X48924938Y-40706206D01*
X48850000Y-41082942D01*
X44017000Y-41082942D01*
X44017000Y-34480500D01*
X55741138Y-34480500D01*
X55741500Y-34484176D01*
X55741501Y-37651814D01*
X55741138Y-37655500D01*
X55742586Y-37670202D01*
X55746875Y-37684340D01*
X55753839Y-37697369D01*
X55763211Y-37708789D01*
X55774631Y-37718161D01*
X55787660Y-37725125D01*
X55801798Y-37729414D01*
X55812825Y-37730500D01*
X55816500Y-37730862D01*
X55820175Y-37730500D01*
X62861325Y-37730500D01*
X62865000Y-37730862D01*
X62868675Y-37730500D01*
X62879702Y-37729414D01*
X62893840Y-37725125D01*
X62906869Y-37718161D01*
X62918289Y-37708789D01*
X62927661Y-37697369D01*
X62934625Y-37684340D01*
X62938914Y-37670202D01*
X62940362Y-37655500D01*
X62940000Y-37651825D01*
X62940000Y-34484176D01*
X62940362Y-34480500D01*
X232969638Y-34480500D01*
X232970000Y-34484176D01*
X232970001Y-37651814D01*
X232969638Y-37655500D01*
X232971086Y-37670202D01*
X232975375Y-37684340D01*
X232982339Y-37697369D01*
X232991711Y-37708789D01*
X233003131Y-37718161D01*
X233016160Y-37725125D01*
X233030298Y-37729414D01*
X233041325Y-37730500D01*
X233045000Y-37730862D01*
X233048675Y-37730500D01*
X240089825Y-37730500D01*
X240093500Y-37730862D01*
X240097175Y-37730500D01*
X240108202Y-37729414D01*
X240122340Y-37725125D01*
X240135369Y-37718161D01*
X240146789Y-37708789D01*
X240156161Y-37697369D01*
X240163125Y-37684340D01*
X240167414Y-37670202D01*
X240168862Y-37655500D01*
X240168500Y-37651825D01*
X240168500Y-34484176D01*
X240168862Y-34480500D01*
X240167414Y-34465798D01*
X240163125Y-34451660D01*
X240156161Y-34438631D01*
X240146789Y-34427211D01*
X240135369Y-34417839D01*
X240122340Y-34410875D01*
X240108202Y-34406586D01*
X240097175Y-34405500D01*
X240093500Y-34405138D01*
X240089825Y-34405500D01*
X233048675Y-34405500D01*
X233045000Y-34405138D01*
X233041325Y-34405500D01*
X233030298Y-34406586D01*
X233016160Y-34410875D01*
X233003131Y-34417839D01*
X232991711Y-34427211D01*
X232982339Y-34438631D01*
X232975375Y-34451660D01*
X232971086Y-34465798D01*
X232969638Y-34480500D01*
X62940362Y-34480500D01*
X62938914Y-34465798D01*
X62934625Y-34451660D01*
X62927661Y-34438631D01*
X62918289Y-34427211D01*
X62906869Y-34417839D01*
X62893840Y-34410875D01*
X62879702Y-34406586D01*
X62868675Y-34405500D01*
X62865000Y-34405138D01*
X62861325Y-34405500D01*
X55820175Y-34405500D01*
X55816500Y-34405138D01*
X55812825Y-34405500D01*
X55801798Y-34406586D01*
X55787660Y-34410875D01*
X55774631Y-34417839D01*
X55763211Y-34427211D01*
X55753839Y-34438631D01*
X55746875Y-34451660D01*
X55742586Y-34465798D01*
X55741138Y-34480500D01*
X44017000Y-34480500D01*
X44017000Y-34293668D01*
X44040111Y-34057961D01*
X44107501Y-33834756D01*
X44216959Y-33628895D01*
X44364319Y-33448215D01*
X44543963Y-33299600D01*
X44749060Y-33188705D01*
X44971786Y-33119759D01*
X45207190Y-33095018D01*
X45212262Y-33095000D01*
X250694332Y-33095000D01*
X250930039Y-33118111D01*
G04 #@! TA.AperFunction,NonConductor*
D13*
G36*
X250930039Y-33118111D02*
G01*
X251153244Y-33185501D01*
X251359105Y-33294959D01*
X251539785Y-33442319D01*
X251688400Y-33621963D01*
X251799295Y-33827060D01*
X251868241Y-34049786D01*
X251892982Y-34285190D01*
X251893000Y-34290262D01*
X251893001Y-34290272D01*
X251893000Y-77925000D01*
X248923675Y-77925000D01*
X248920000Y-77924638D01*
X248916325Y-77925000D01*
X248905298Y-77926086D01*
X248891160Y-77930375D01*
X248878131Y-77937339D01*
X248866711Y-77946711D01*
X248857339Y-77958131D01*
X248850375Y-77971160D01*
X248846086Y-77985298D01*
X248844638Y-78000000D01*
X248845001Y-78003686D01*
X248845000Y-85192824D01*
X248844638Y-85196500D01*
X248846086Y-85211202D01*
X248850375Y-85225340D01*
X248857339Y-85238369D01*
X248866711Y-85249789D01*
X248878131Y-85259161D01*
X248891160Y-85266125D01*
X248905298Y-85270414D01*
X248920000Y-85271862D01*
X248923675Y-85271500D01*
X251893001Y-85271500D01*
X251893000Y-127440832D01*
X251869889Y-127676539D01*
X251802499Y-127899744D01*
X251693042Y-128105603D01*
X251545681Y-128286285D01*
X251366037Y-128434900D01*
X251160940Y-128545795D01*
X250938214Y-128614741D01*
X250702811Y-128639482D01*
X250697738Y-128639500D01*
X151522500Y-128639500D01*
X151522500Y-125543176D01*
X151522862Y-125539500D01*
X151521414Y-125524798D01*
X151517125Y-125510660D01*
X151510161Y-125497631D01*
X151500789Y-125486211D01*
X151489369Y-125476839D01*
X151476340Y-125469875D01*
X151462202Y-125465586D01*
X151451175Y-125464500D01*
X151447500Y-125464138D01*
X151443825Y-125464500D01*
X144402675Y-125464500D01*
X144399000Y-125464138D01*
X144395325Y-125464500D01*
X144384298Y-125465586D01*
X144370160Y-125469875D01*
X144357131Y-125476839D01*
X144345711Y-125486211D01*
X144336339Y-125497631D01*
X144329375Y-125510660D01*
X144325086Y-125524798D01*
X144323638Y-125539500D01*
X144324000Y-125543176D01*
X144324001Y-128639500D01*
X45215668Y-128639500D01*
X44979961Y-128616389D01*
X44756756Y-128548999D01*
X44550897Y-128439542D01*
X44370215Y-128292181D01*
X44221600Y-128112537D01*
X44110705Y-127907440D01*
X44041759Y-127684714D01*
X44017018Y-127449311D01*
X44017000Y-127444238D01*
X44017000Y-121727942D01*
X48850000Y-121727942D01*
X48850000Y-122112058D01*
X48924938Y-122488794D01*
X49071933Y-122843671D01*
X49285336Y-123163052D01*
X49556948Y-123434664D01*
X49876329Y-123648067D01*
X50231206Y-123795062D01*
X50607942Y-123870000D01*
X50992058Y-123870000D01*
X51368794Y-123795062D01*
X51723671Y-123648067D01*
X52043052Y-123434664D01*
X52314664Y-123163052D01*
X52528067Y-122843671D01*
X52675062Y-122488794D01*
X52750000Y-122112058D01*
X52750000Y-121727942D01*
X243160000Y-121727942D01*
X243160000Y-122112058D01*
X243234938Y-122488794D01*
X243381933Y-122843671D01*
X243595336Y-123163052D01*
X243866948Y-123434664D01*
X244186329Y-123648067D01*
X244541206Y-123795062D01*
X244917942Y-123870000D01*
X245302058Y-123870000D01*
X245678794Y-123795062D01*
X246033671Y-123648067D01*
X246353052Y-123434664D01*
X246624664Y-123163052D01*
X246838067Y-122843671D01*
X246985062Y-122488794D01*
X247060000Y-122112058D01*
X247060000Y-121727942D01*
X246985062Y-121351206D01*
X246838067Y-120996329D01*
X246624664Y-120676948D01*
X246353052Y-120405336D01*
X246033671Y-120191933D01*
X245678794Y-120044938D01*
X245302058Y-119970000D01*
X244917942Y-119970000D01*
X244541206Y-120044938D01*
X244186329Y-120191933D01*
X243866948Y-120405336D01*
X243595336Y-120676948D01*
X243381933Y-120996329D01*
X243234938Y-121351206D01*
X243160000Y-121727942D01*
X52750000Y-121727942D01*
X52675062Y-121351206D01*
X52528067Y-120996329D01*
X52314664Y-120676948D01*
X52043052Y-120405336D01*
X51723671Y-120191933D01*
X51368794Y-120044938D01*
X50992058Y-119970000D01*
X50607942Y-119970000D01*
X50231206Y-120044938D01*
X49876329Y-120191933D01*
X49556948Y-120405336D01*
X49285336Y-120676948D01*
X49071933Y-120996329D01*
X48924938Y-121351206D01*
X48850000Y-121727942D01*
X44017000Y-121727942D01*
X44017000Y-112077500D01*
X112700638Y-112077500D01*
X112701001Y-112081186D01*
X112701000Y-117788824D01*
X112700638Y-117792500D01*
X112702086Y-117807202D01*
X112706375Y-117821340D01*
X112713339Y-117834369D01*
X112722711Y-117845789D01*
X112734131Y-117855161D01*
X112747160Y-117862125D01*
X112761298Y-117866414D01*
X112776000Y-117867862D01*
X112779675Y-117867500D01*
X124456325Y-117867500D01*
X124460000Y-117867862D01*
X124463675Y-117867500D01*
X124474702Y-117866414D01*
X124488840Y-117862125D01*
X124501869Y-117855161D01*
X124513289Y-117845789D01*
X124522661Y-117834369D01*
X124529625Y-117821340D01*
X124533914Y-117807202D01*
X124535362Y-117792500D01*
X124535000Y-117788825D01*
X124535000Y-112081176D01*
X124535362Y-112077500D01*
X129210638Y-112077500D01*
X129211001Y-112081186D01*
X129211000Y-117788824D01*
X129210638Y-117792500D01*
X129212086Y-117807202D01*
X129216375Y-117821340D01*
X129223339Y-117834369D01*
X129232711Y-117845789D01*
X129244131Y-117855161D01*
X129257160Y-117862125D01*
X129271298Y-117866414D01*
X129286000Y-117867862D01*
X129289675Y-117867500D01*
X140966325Y-117867500D01*
X140970000Y-117867862D01*
X140973675Y-117867500D01*
X140984702Y-117866414D01*
X140998840Y-117862125D01*
X141011869Y-117855161D01*
X141023289Y-117845789D01*
X141032661Y-117834369D01*
X141039625Y-117821340D01*
X141043914Y-117807202D01*
X141045362Y-117792500D01*
X141045000Y-117788825D01*
X141045000Y-112081176D01*
X141045362Y-112077500D01*
X145720638Y-112077500D01*
X145721001Y-112081186D01*
X145721000Y-117788824D01*
X145720638Y-117792500D01*
X145722086Y-117807202D01*
X145726375Y-117821340D01*
X145733339Y-117834369D01*
X145742711Y-117845789D01*
X145754131Y-117855161D01*
X145767160Y-117862125D01*
X145781298Y-117866414D01*
X145796000Y-117867862D01*
X145799675Y-117867500D01*
X157476325Y-117867500D01*
X157480000Y-117867862D01*
X157483675Y-117867500D01*
X157494702Y-117866414D01*
X157508840Y-117862125D01*
X157521869Y-117855161D01*
X157533289Y-117845789D01*
X157542661Y-117834369D01*
X157549625Y-117821340D01*
X157553914Y-117807202D01*
X157555362Y-117792500D01*
X157555000Y-117788825D01*
X157555000Y-112081176D01*
X157555362Y-112077500D01*
X190170638Y-112077500D01*
X190171001Y-112081186D01*
X190171000Y-117788824D01*
X190170638Y-117792500D01*
X190172086Y-117807202D01*
X190176375Y-117821340D01*
X190183339Y-117834369D01*
X190192711Y-117845789D01*
X190204131Y-117855161D01*
X190217160Y-117862125D01*
X190231298Y-117866414D01*
X190246000Y-117867862D01*
X190249675Y-117867500D01*
X201926325Y-117867500D01*
X201930000Y-117867862D01*
X201933675Y-117867500D01*
X201944702Y-117866414D01*
X201958840Y-117862125D01*
X201971869Y-117855161D01*
X201983289Y-117845789D01*
X201992661Y-117834369D01*
X201999625Y-117821340D01*
X202003914Y-117807202D01*
X202005362Y-117792500D01*
X202005000Y-117788825D01*
X202005000Y-112081176D01*
X202005362Y-112077500D01*
X206680638Y-112077500D01*
X206681001Y-112081186D01*
X206681000Y-117788824D01*
X206680638Y-117792500D01*
X206682086Y-117807202D01*
X206686375Y-117821340D01*
X206693339Y-117834369D01*
X206702711Y-117845789D01*
X206714131Y-117855161D01*
X206727160Y-117862125D01*
X206741298Y-117866414D01*
X206756000Y-117867862D01*
X206759675Y-117867500D01*
X218436325Y-117867500D01*
X218440000Y-117867862D01*
X218443675Y-117867500D01*
X218454702Y-117866414D01*
X218468840Y-117862125D01*
X218481869Y-117855161D01*
X218493289Y-117845789D01*
X218502661Y-117834369D01*
X218509625Y-117821340D01*
X218513914Y-117807202D01*
X218515362Y-117792500D01*
X218515000Y-117788825D01*
X218515000Y-112081176D01*
X218515362Y-112077500D01*
X223190638Y-112077500D01*
X223191001Y-112081186D01*
X223191000Y-117788824D01*
X223190638Y-117792500D01*
X223192086Y-117807202D01*
X223196375Y-117821340D01*
X223203339Y-117834369D01*
X223212711Y-117845789D01*
X223224131Y-117855161D01*
X223237160Y-117862125D01*
X223251298Y-117866414D01*
X223266000Y-117867862D01*
X223269675Y-117867500D01*
X234946325Y-117867500D01*
X234950000Y-117867862D01*
X234953675Y-117867500D01*
X234964702Y-117866414D01*
X234978840Y-117862125D01*
X234991869Y-117855161D01*
X235003289Y-117845789D01*
X235012661Y-117834369D01*
X235019625Y-117821340D01*
X235023914Y-117807202D01*
X235025362Y-117792500D01*
X235025000Y-117788825D01*
X235025000Y-112081176D01*
X235025362Y-112077500D01*
X235023914Y-112062798D01*
X235019625Y-112048660D01*
X235012661Y-112035631D01*
X235003289Y-112024211D01*
X234991869Y-112014839D01*
X234978840Y-112007875D01*
X234964702Y-112003586D01*
X234953675Y-112002500D01*
X234950000Y-112002138D01*
X234946325Y-112002500D01*
X223269675Y-112002500D01*
X223266000Y-112002138D01*
X223262325Y-112002500D01*
X223251298Y-112003586D01*
X223237160Y-112007875D01*
X223224131Y-112014839D01*
X223212711Y-112024211D01*
X223203339Y-112035631D01*
X223196375Y-112048660D01*
X223192086Y-112062798D01*
X223190638Y-112077500D01*
X218515362Y-112077500D01*
X218513914Y-112062798D01*
X218509625Y-112048660D01*
X218502661Y-112035631D01*
X218493289Y-112024211D01*
X218481869Y-112014839D01*
X218468840Y-112007875D01*
X218454702Y-112003586D01*
X218443675Y-112002500D01*
X218440000Y-112002138D01*
X218436325Y-112002500D01*
X206759675Y-112002500D01*
X206756000Y-112002138D01*
X206752325Y-112002500D01*
X206741298Y-112003586D01*
X206727160Y-112007875D01*
X206714131Y-112014839D01*
X206702711Y-112024211D01*
X206693339Y-112035631D01*
X206686375Y-112048660D01*
X206682086Y-112062798D01*
X206680638Y-112077500D01*
X202005362Y-112077500D01*
X202003914Y-112062798D01*
X201999625Y-112048660D01*
X201992661Y-112035631D01*
X201983289Y-112024211D01*
X201971869Y-112014839D01*
X201958840Y-112007875D01*
X201944702Y-112003586D01*
X201933675Y-112002500D01*
X201930000Y-112002138D01*
X201926325Y-112002500D01*
X190249675Y-112002500D01*
X190246000Y-112002138D01*
X190242325Y-112002500D01*
X190231298Y-112003586D01*
X190217160Y-112007875D01*
X190204131Y-112014839D01*
X190192711Y-112024211D01*
X190183339Y-112035631D01*
X190176375Y-112048660D01*
X190172086Y-112062798D01*
X190170638Y-112077500D01*
X157555362Y-112077500D01*
X157553914Y-112062798D01*
X157549625Y-112048660D01*
X157542661Y-112035631D01*
X157533289Y-112024211D01*
X157521869Y-112014839D01*
X157508840Y-112007875D01*
X157494702Y-112003586D01*
X157483675Y-112002500D01*
X157480000Y-112002138D01*
X157476325Y-112002500D01*
X145799675Y-112002500D01*
X145796000Y-112002138D01*
X145792325Y-112002500D01*
X145781298Y-112003586D01*
X145767160Y-112007875D01*
X145754131Y-112014839D01*
X145742711Y-112024211D01*
X145733339Y-112035631D01*
X145726375Y-112048660D01*
X145722086Y-112062798D01*
X145720638Y-112077500D01*
X141045362Y-112077500D01*
X141043914Y-112062798D01*
X141039625Y-112048660D01*
X141032661Y-112035631D01*
X141023289Y-112024211D01*
X141011869Y-112014839D01*
X140998840Y-112007875D01*
X140984702Y-112003586D01*
X140973675Y-112002500D01*
X140970000Y-112002138D01*
X140966325Y-112002500D01*
X129289675Y-112002500D01*
X129286000Y-112002138D01*
X129282325Y-112002500D01*
X129271298Y-112003586D01*
X129257160Y-112007875D01*
X129244131Y-112014839D01*
X129232711Y-112024211D01*
X129223339Y-112035631D01*
X129216375Y-112048660D01*
X129212086Y-112062798D01*
X129210638Y-112077500D01*
X124535362Y-112077500D01*
X124533914Y-112062798D01*
X124529625Y-112048660D01*
X124522661Y-112035631D01*
X124513289Y-112024211D01*
X124501869Y-112014839D01*
X124488840Y-112007875D01*
X124474702Y-112003586D01*
X124463675Y-112002500D01*
X124460000Y-112002138D01*
X124456325Y-112002500D01*
X112779675Y-112002500D01*
X112776000Y-112002138D01*
X112772325Y-112002500D01*
X112761298Y-112003586D01*
X112747160Y-112007875D01*
X112734131Y-112014839D01*
X112722711Y-112024211D01*
X112713339Y-112035631D01*
X112706375Y-112048660D01*
X112702086Y-112062798D01*
X112700638Y-112077500D01*
X44017000Y-112077500D01*
X44017000Y-85275000D01*
X46986325Y-85275000D01*
X46990000Y-85275362D01*
X46993675Y-85275000D01*
X47004702Y-85273914D01*
X47018840Y-85269625D01*
X47031869Y-85262661D01*
X47043289Y-85253289D01*
X47052661Y-85241869D01*
X47059625Y-85228840D01*
X47063914Y-85214702D01*
X47065362Y-85200000D01*
X47065000Y-85196325D01*
X47065000Y-78002175D01*
X47065362Y-77998500D01*
X47063914Y-77983798D01*
X47059625Y-77969660D01*
X47052661Y-77956631D01*
X47043289Y-77945211D01*
X47031869Y-77935839D01*
X47018840Y-77928875D01*
X47004702Y-77924586D01*
X46993675Y-77923500D01*
X46990000Y-77923138D01*
X46986325Y-77923500D01*
X44017000Y-77923500D01*
X44017000Y-47561500D01*
X56974638Y-47561500D01*
X56975000Y-47565176D01*
X56975001Y-108696314D01*
X56974638Y-108700000D01*
X56976086Y-108714702D01*
X56980375Y-108728840D01*
X56987339Y-108741869D01*
X56996711Y-108753289D01*
X57008131Y-108762661D01*
X57021160Y-108769625D01*
X57035298Y-108773914D01*
X57046325Y-108775000D01*
X57050000Y-108775362D01*
X57053675Y-108775000D01*
X103046328Y-108775000D01*
X103049988Y-108775361D01*
X103053661Y-108775000D01*
X103053675Y-108775000D01*
X103060958Y-108774283D01*
X103064689Y-108773916D01*
X103064693Y-108773915D01*
X103064702Y-108773914D01*
X103076621Y-108770298D01*
X103078828Y-108769629D01*
X103078830Y-108769628D01*
X103078840Y-108769625D01*
X103087727Y-108764875D01*
X103091858Y-108762668D01*
X103091862Y-108762665D01*
X103091869Y-108762661D01*
X103100067Y-108755933D01*
X103103279Y-108753298D01*
X103103281Y-108753296D01*
X103103289Y-108753289D01*
X103112661Y-108741869D01*
X103117886Y-108732093D01*
X103119620Y-108728851D01*
X103119621Y-108728847D01*
X103119625Y-108728840D01*
X103122718Y-108718644D01*
X103123911Y-108714714D01*
X103123911Y-108714711D01*
X103123914Y-108714702D01*
X103125362Y-108700000D01*
X103125000Y-108696327D01*
X103126600Y-99377500D01*
X112700638Y-99377500D01*
X112701001Y-99381186D01*
X112701000Y-105088824D01*
X112700638Y-105092500D01*
X112702086Y-105107202D01*
X112706375Y-105121340D01*
X112713339Y-105134369D01*
X112722711Y-105145789D01*
X112734131Y-105155161D01*
X112747160Y-105162125D01*
X112761298Y-105166414D01*
X112776000Y-105167862D01*
X112779675Y-105167500D01*
X124456325Y-105167500D01*
X124460000Y-105167862D01*
X124463675Y-105167500D01*
X124474702Y-105166414D01*
X124488840Y-105162125D01*
X124501869Y-105155161D01*
X124513289Y-105145789D01*
X124522661Y-105134369D01*
X124529625Y-105121340D01*
X124533914Y-105107202D01*
X124535362Y-105092500D01*
X124535000Y-105088825D01*
X124535000Y-99381176D01*
X124535362Y-99377500D01*
X129210638Y-99377500D01*
X129211001Y-99381186D01*
X129211000Y-105088824D01*
X129210638Y-105092500D01*
X129212086Y-105107202D01*
X129216375Y-105121340D01*
X129223339Y-105134369D01*
X129232711Y-105145789D01*
X129244131Y-105155161D01*
X129257160Y-105162125D01*
X129271298Y-105166414D01*
X129286000Y-105167862D01*
X129289675Y-105167500D01*
X140966325Y-105167500D01*
X140970000Y-105167862D01*
X140973675Y-105167500D01*
X140984702Y-105166414D01*
X140998840Y-105162125D01*
X141011869Y-105155161D01*
X141023289Y-105145789D01*
X141032661Y-105134369D01*
X141039625Y-105121340D01*
X141043914Y-105107202D01*
X141045362Y-105092500D01*
X141045000Y-105088825D01*
X141045000Y-99381176D01*
X141045362Y-99377500D01*
X145720638Y-99377500D01*
X145721001Y-99381186D01*
X145721000Y-105088824D01*
X145720638Y-105092500D01*
X145722086Y-105107202D01*
X145726375Y-105121340D01*
X145733339Y-105134369D01*
X145742711Y-105145789D01*
X145754131Y-105155161D01*
X145767160Y-105162125D01*
X145781298Y-105166414D01*
X145796000Y-105167862D01*
X145799675Y-105167500D01*
X157476325Y-105167500D01*
X157480000Y-105167862D01*
X157483675Y-105167500D01*
X157494702Y-105166414D01*
X157508840Y-105162125D01*
X157521869Y-105155161D01*
X157533289Y-105145789D01*
X157542661Y-105134369D01*
X157549625Y-105121340D01*
X157553914Y-105107202D01*
X157555362Y-105092500D01*
X157555000Y-105088825D01*
X157555000Y-99381176D01*
X157555362Y-99377500D01*
X157553914Y-99362798D01*
X157549625Y-99348660D01*
X157542661Y-99335631D01*
X157533289Y-99324211D01*
X157521869Y-99314839D01*
X157508840Y-99307875D01*
X157494702Y-99303586D01*
X157483675Y-99302500D01*
X157480000Y-99302138D01*
X157476325Y-99302500D01*
X145799675Y-99302500D01*
X145796000Y-99302138D01*
X145792325Y-99302500D01*
X145781298Y-99303586D01*
X145767160Y-99307875D01*
X145754131Y-99314839D01*
X145742711Y-99324211D01*
X145733339Y-99335631D01*
X145726375Y-99348660D01*
X145722086Y-99362798D01*
X145720638Y-99377500D01*
X141045362Y-99377500D01*
X141043914Y-99362798D01*
X141039625Y-99348660D01*
X141032661Y-99335631D01*
X141023289Y-99324211D01*
X141011869Y-99314839D01*
X140998840Y-99307875D01*
X140984702Y-99303586D01*
X140973675Y-99302500D01*
X140970000Y-99302138D01*
X140966325Y-99302500D01*
X129289675Y-99302500D01*
X129286000Y-99302138D01*
X129282325Y-99302500D01*
X129271298Y-99303586D01*
X129257160Y-99307875D01*
X129244131Y-99314839D01*
X129232711Y-99324211D01*
X129223339Y-99335631D01*
X129216375Y-99348660D01*
X129212086Y-99362798D01*
X129210638Y-99377500D01*
X124535362Y-99377500D01*
X124533914Y-99362798D01*
X124529625Y-99348660D01*
X124522661Y-99335631D01*
X124513289Y-99324211D01*
X124501869Y-99314839D01*
X124488840Y-99307875D01*
X124474702Y-99303586D01*
X124463675Y-99302500D01*
X124460000Y-99302138D01*
X124456325Y-99302500D01*
X112779675Y-99302500D01*
X112776000Y-99302138D01*
X112772325Y-99302500D01*
X112761298Y-99303586D01*
X112747160Y-99307875D01*
X112734131Y-99314839D01*
X112722711Y-99324211D01*
X112713339Y-99335631D01*
X112706375Y-99348660D01*
X112702086Y-99362798D01*
X112700638Y-99377500D01*
X103126600Y-99377500D01*
X103126927Y-97472500D01*
X198425638Y-97472500D01*
X198426001Y-97476186D01*
X198426000Y-103183824D01*
X198425638Y-103187500D01*
X198427086Y-103202202D01*
X198431375Y-103216340D01*
X198438339Y-103229369D01*
X198447711Y-103240789D01*
X198459131Y-103250161D01*
X198472160Y-103257125D01*
X198486298Y-103261414D01*
X198501000Y-103262862D01*
X198504675Y-103262500D01*
X210181325Y-103262500D01*
X210185000Y-103262862D01*
X210188675Y-103262500D01*
X210199702Y-103261414D01*
X210213840Y-103257125D01*
X210226869Y-103250161D01*
X210238289Y-103240789D01*
X210247661Y-103229369D01*
X210254625Y-103216340D01*
X210258914Y-103202202D01*
X210260362Y-103187500D01*
X210260000Y-103183825D01*
X210260000Y-97476175D01*
X210260362Y-97472500D01*
X214935638Y-97472500D01*
X214936001Y-97476186D01*
X214936000Y-103183824D01*
X214935638Y-103187500D01*
X214937086Y-103202202D01*
X214941375Y-103216340D01*
X214948339Y-103229369D01*
X214957711Y-103240789D01*
X214969131Y-103250161D01*
X214982160Y-103257125D01*
X214996298Y-103261414D01*
X215011000Y-103262862D01*
X215014675Y-103262500D01*
X226691325Y-103262500D01*
X226695000Y-103262862D01*
X226698675Y-103262500D01*
X226709702Y-103261414D01*
X226723840Y-103257125D01*
X226736869Y-103250161D01*
X226748289Y-103240789D01*
X226757661Y-103229369D01*
X226764625Y-103216340D01*
X226768914Y-103202202D01*
X226770362Y-103187500D01*
X226770000Y-103183825D01*
X226770000Y-97476176D01*
X226770362Y-97472500D01*
X226768914Y-97457798D01*
X226764625Y-97443660D01*
X226757661Y-97430631D01*
X226748289Y-97419211D01*
X226736869Y-97409839D01*
X226723840Y-97402875D01*
X226709702Y-97398586D01*
X226698675Y-97397500D01*
X226695000Y-97397138D01*
X226691325Y-97397500D01*
X215014675Y-97397500D01*
X215011000Y-97397138D01*
X215007325Y-97397500D01*
X214996298Y-97398586D01*
X214982160Y-97402875D01*
X214969131Y-97409839D01*
X214957711Y-97419211D01*
X214948339Y-97430631D01*
X214941375Y-97443660D01*
X214937086Y-97457798D01*
X214935638Y-97472500D01*
X210260362Y-97472500D01*
X210258914Y-97457798D01*
X210254625Y-97443660D01*
X210247661Y-97430631D01*
X210238289Y-97419211D01*
X210226869Y-97409839D01*
X210213840Y-97402875D01*
X210199702Y-97398586D01*
X210188675Y-97397500D01*
X210185000Y-97397138D01*
X210181325Y-97397500D01*
X198504675Y-97397500D01*
X198501000Y-97397138D01*
X198497325Y-97397500D01*
X198486298Y-97398586D01*
X198472160Y-97402875D01*
X198459131Y-97409839D01*
X198447711Y-97419211D01*
X198438339Y-97430631D01*
X198431375Y-97443660D01*
X198427086Y-97457798D01*
X198425638Y-97472500D01*
X103126927Y-97472500D01*
X103129457Y-82740500D01*
X112700638Y-82740500D01*
X112701001Y-82744186D01*
X112701000Y-88451824D01*
X112700638Y-88455500D01*
X112702086Y-88470202D01*
X112706375Y-88484340D01*
X112713339Y-88497369D01*
X112722711Y-88508789D01*
X112734131Y-88518161D01*
X112747160Y-88525125D01*
X112761298Y-88529414D01*
X112776000Y-88530862D01*
X112779675Y-88530500D01*
X124456325Y-88530500D01*
X124460000Y-88530862D01*
X124463675Y-88530500D01*
X124474702Y-88529414D01*
X124488840Y-88525125D01*
X124501869Y-88518161D01*
X124513289Y-88508789D01*
X124522661Y-88497369D01*
X124529625Y-88484340D01*
X124533914Y-88470202D01*
X124535362Y-88455500D01*
X124535000Y-88451825D01*
X124535000Y-82744176D01*
X124535362Y-82740500D01*
X124533914Y-82725798D01*
X124529625Y-82711660D01*
X124522661Y-82698631D01*
X124513289Y-82687211D01*
X124501869Y-82677839D01*
X124488840Y-82670875D01*
X124474702Y-82666586D01*
X124463675Y-82665500D01*
X124460000Y-82665138D01*
X124456325Y-82665500D01*
X112779675Y-82665500D01*
X112776000Y-82665138D01*
X112772325Y-82665500D01*
X112761298Y-82666586D01*
X112747160Y-82670875D01*
X112734131Y-82677839D01*
X112722711Y-82687211D01*
X112713339Y-82698631D01*
X112706375Y-82711660D01*
X112702086Y-82725798D01*
X112700638Y-82740500D01*
X103129457Y-82740500D01*
X103130082Y-79098620D01*
X148424719Y-79098620D01*
X148424719Y-79901380D01*
X148581329Y-80688716D01*
X148888532Y-81430370D01*
X149334522Y-82097840D01*
X149902160Y-82665478D01*
X150569630Y-83111468D01*
X151311284Y-83418671D01*
X152098620Y-83575281D01*
X152901380Y-83575281D01*
X153688716Y-83418671D01*
X154430370Y-83111468D01*
X155097840Y-82665478D01*
X155665478Y-82097840D01*
X156111468Y-81430370D01*
X156418671Y-80688716D01*
X156575281Y-79901380D01*
X156575281Y-79098620D01*
X185524719Y-79098620D01*
X185524719Y-79901380D01*
X185681329Y-80688716D01*
X185988532Y-81430370D01*
X186434522Y-82097840D01*
X187002160Y-82665478D01*
X187669630Y-83111468D01*
X188411284Y-83418671D01*
X189198620Y-83575281D01*
X190001380Y-83575281D01*
X190788716Y-83418671D01*
X191530370Y-83111468D01*
X192197840Y-82665478D01*
X192765478Y-82097840D01*
X193211468Y-81430370D01*
X193518671Y-80688716D01*
X193675281Y-79901380D01*
X193675281Y-79098620D01*
X222574719Y-79098620D01*
X222574719Y-79901380D01*
X222731329Y-80688716D01*
X223038532Y-81430370D01*
X223484522Y-82097840D01*
X224052160Y-82665478D01*
X224719630Y-83111468D01*
X225461284Y-83418671D01*
X226248620Y-83575281D01*
X227051380Y-83575281D01*
X227838716Y-83418671D01*
X228580370Y-83111468D01*
X229247840Y-82665478D01*
X229815478Y-82097840D01*
X230261468Y-81430370D01*
X230568671Y-80688716D01*
X230725281Y-79901380D01*
X230725281Y-79098620D01*
X230568671Y-78311284D01*
X230261468Y-77569630D01*
X229815478Y-76902160D01*
X229247840Y-76334522D01*
X228580370Y-75888532D01*
X227838716Y-75581329D01*
X227051380Y-75424719D01*
X226248620Y-75424719D01*
X225461284Y-75581329D01*
X224719630Y-75888532D01*
X224052160Y-76334522D01*
X223484522Y-76902160D01*
X223038532Y-77569630D01*
X222731329Y-78311284D01*
X222574719Y-79098620D01*
X193675281Y-79098620D01*
X193518671Y-78311284D01*
X193211468Y-77569630D01*
X192765478Y-76902160D01*
X192197840Y-76334522D01*
X191530370Y-75888532D01*
X190788716Y-75581329D01*
X190001380Y-75424719D01*
X189198620Y-75424719D01*
X188411284Y-75581329D01*
X187669630Y-75888532D01*
X187002160Y-76334522D01*
X186434522Y-76902160D01*
X185988532Y-77569630D01*
X185681329Y-78311284D01*
X185524719Y-79098620D01*
X156575281Y-79098620D01*
X156418671Y-78311284D01*
X156111468Y-77569630D01*
X155665478Y-76902160D01*
X155097840Y-76334522D01*
X154430370Y-75888532D01*
X153688716Y-75581329D01*
X152901380Y-75424719D01*
X152098620Y-75424719D01*
X151311284Y-75581329D01*
X150569630Y-75888532D01*
X149902160Y-76334522D01*
X149334522Y-76902160D01*
X148888532Y-77569630D01*
X148581329Y-78311284D01*
X148424719Y-79098620D01*
X103130082Y-79098620D01*
X103130979Y-73873565D01*
X171528000Y-73873565D01*
X171528000Y-74208435D01*
X171593330Y-74536872D01*
X171721479Y-74846252D01*
X171907523Y-75124687D01*
X172144313Y-75361477D01*
X172422748Y-75547521D01*
X172732128Y-75675670D01*
X173060565Y-75741000D01*
X173395435Y-75741000D01*
X173723872Y-75675670D01*
X174033252Y-75547521D01*
X174311687Y-75361477D01*
X174548477Y-75124687D01*
X174734521Y-74846252D01*
X174862670Y-74536872D01*
X174928000Y-74208435D01*
X174928000Y-73873565D01*
X174862670Y-73545128D01*
X174734521Y-73235748D01*
X174548477Y-72957313D01*
X174311687Y-72720523D01*
X174033252Y-72534479D01*
X173723872Y-72406330D01*
X173395435Y-72341000D01*
X173060565Y-72341000D01*
X172732128Y-72406330D01*
X172422748Y-72534479D01*
X172144313Y-72720523D01*
X171907523Y-72957313D01*
X171721479Y-73235748D01*
X171593330Y-73545128D01*
X171528000Y-73873565D01*
X103130979Y-73873565D01*
X103134668Y-52398620D01*
X148424719Y-52398620D01*
X148424719Y-53201380D01*
X148581329Y-53988716D01*
X148888532Y-54730370D01*
X149334522Y-55397840D01*
X149902160Y-55965478D01*
X150569630Y-56411468D01*
X151311284Y-56718671D01*
X152098620Y-56875281D01*
X152901380Y-56875281D01*
X153688716Y-56718671D01*
X154430370Y-56411468D01*
X155097840Y-55965478D01*
X155665478Y-55397840D01*
X156111468Y-54730370D01*
X156418671Y-53988716D01*
X156575281Y-53201380D01*
X156575281Y-52448620D01*
X185524719Y-52448620D01*
X185524719Y-53251380D01*
X185681329Y-54038716D01*
X185988532Y-54780370D01*
X186434522Y-55447840D01*
X187002160Y-56015478D01*
X187669630Y-56461468D01*
X188411284Y-56768671D01*
X189198620Y-56925281D01*
X190001380Y-56925281D01*
X190788716Y-56768671D01*
X191530370Y-56461468D01*
X192197840Y-56015478D01*
X192765478Y-55447840D01*
X193211468Y-54780370D01*
X193518671Y-54038716D01*
X193675281Y-53251380D01*
X193675281Y-52448620D01*
X222574719Y-52448620D01*
X222574719Y-53251380D01*
X222731329Y-54038716D01*
X223038532Y-54780370D01*
X223484522Y-55447840D01*
X224052160Y-56015478D01*
X224719630Y-56461468D01*
X225461284Y-56768671D01*
X226248620Y-56925281D01*
X227051380Y-56925281D01*
X227838716Y-56768671D01*
X228580370Y-56461468D01*
X229247840Y-56015478D01*
X229815478Y-55447840D01*
X230261468Y-54780370D01*
X230568671Y-54038716D01*
X230725281Y-53251380D01*
X230725281Y-52448620D01*
X230568671Y-51661284D01*
X230261468Y-50919630D01*
X229815478Y-50252160D01*
X229247840Y-49684522D01*
X228580370Y-49238532D01*
X227838716Y-48931329D01*
X227051380Y-48774719D01*
X226248620Y-48774719D01*
X225461284Y-48931329D01*
X224719630Y-49238532D01*
X224052160Y-49684522D01*
X223484522Y-50252160D01*
X223038532Y-50919630D01*
X222731329Y-51661284D01*
X222574719Y-52448620D01*
X193675281Y-52448620D01*
X193518671Y-51661284D01*
X193211468Y-50919630D01*
X192765478Y-50252160D01*
X192197840Y-49684522D01*
X191530370Y-49238532D01*
X190788716Y-48931329D01*
X190001380Y-48774719D01*
X189198620Y-48774719D01*
X188411284Y-48931329D01*
X187669630Y-49238532D01*
X187002160Y-49684522D01*
X186434522Y-50252160D01*
X185988532Y-50919630D01*
X185681329Y-51661284D01*
X185524719Y-52448620D01*
X156575281Y-52448620D01*
X156575281Y-52398620D01*
X156418671Y-51611284D01*
X156111468Y-50869630D01*
X155665478Y-50202160D01*
X155097840Y-49634522D01*
X154430370Y-49188532D01*
X153688716Y-48881329D01*
X152901380Y-48724719D01*
X152098620Y-48724719D01*
X151311284Y-48881329D01*
X150569630Y-49188532D01*
X149902160Y-49634522D01*
X149334522Y-50202160D01*
X148888532Y-50869630D01*
X148581329Y-51611284D01*
X148424719Y-52398620D01*
X103134668Y-52398620D01*
X103135499Y-47565188D01*
X103135862Y-47561500D01*
X103134797Y-47550683D01*
X103134416Y-47546811D01*
X103134415Y-47546807D01*
X103134414Y-47546798D01*
X103130125Y-47532660D01*
X103125375Y-47523773D01*
X103123168Y-47519642D01*
X103123165Y-47519638D01*
X103123161Y-47519631D01*
X103116433Y-47511433D01*
X103113798Y-47508221D01*
X103113796Y-47508219D01*
X103113789Y-47508211D01*
X103102369Y-47498839D01*
X103092593Y-47493614D01*
X103089351Y-47491880D01*
X103089347Y-47491879D01*
X103089340Y-47491875D01*
X103079144Y-47488782D01*
X103075214Y-47487589D01*
X103075211Y-47487589D01*
X103075202Y-47487586D01*
X103066495Y-47486728D01*
X103060512Y-47486138D01*
X103056832Y-47486500D01*
X57053675Y-47486500D01*
X57050000Y-47486138D01*
X57046325Y-47486500D01*
X57035298Y-47487586D01*
X57021160Y-47491875D01*
X57008131Y-47498839D01*
X56996711Y-47508211D01*
X56987339Y-47519631D01*
X56980375Y-47532660D01*
X56976086Y-47546798D01*
X56974638Y-47561500D01*
X44017000Y-47561500D01*
X44017000Y-41082942D01*
X48850000Y-41082942D01*
X48850000Y-41467058D01*
X48924938Y-41843794D01*
X49071933Y-42198671D01*
X49285336Y-42518052D01*
X49556948Y-42789664D01*
X49876329Y-43003067D01*
X50231206Y-43150062D01*
X50607942Y-43225000D01*
X50992058Y-43225000D01*
X51368794Y-43150062D01*
X51723671Y-43003067D01*
X52043052Y-42789664D01*
X52314664Y-42518052D01*
X52528067Y-42198671D01*
X52675062Y-41843794D01*
X52750000Y-41467058D01*
X52750000Y-41082942D01*
X243160000Y-41082942D01*
X243160000Y-41467058D01*
X243234938Y-41843794D01*
X243381933Y-42198671D01*
X243595336Y-42518052D01*
X243866948Y-42789664D01*
X244186329Y-43003067D01*
X244541206Y-43150062D01*
X244917942Y-43225000D01*
X245302058Y-43225000D01*
X245678794Y-43150062D01*
X246033671Y-43003067D01*
X246353052Y-42789664D01*
X246624664Y-42518052D01*
X246838067Y-42198671D01*
X246985062Y-41843794D01*
X247060000Y-41467058D01*
X247060000Y-41082942D01*
X246985062Y-40706206D01*
X246838067Y-40351329D01*
X246624664Y-40031948D01*
X246353052Y-39760336D01*
X246033671Y-39546933D01*
X245678794Y-39399938D01*
X245302058Y-39325000D01*
X244917942Y-39325000D01*
X244541206Y-39399938D01*
X244186329Y-39546933D01*
X243866948Y-39760336D01*
X243595336Y-40031948D01*
X243381933Y-40351329D01*
X243234938Y-40706206D01*
X243160000Y-41082942D01*
X52750000Y-41082942D01*
X52675062Y-40706206D01*
X52528067Y-40351329D01*
X52314664Y-40031948D01*
X52043052Y-39760336D01*
X51723671Y-39546933D01*
X51368794Y-39399938D01*
X50992058Y-39325000D01*
X50607942Y-39325000D01*
X50231206Y-39399938D01*
X49876329Y-39546933D01*
X49556948Y-39760336D01*
X49285336Y-40031948D01*
X49071933Y-40351329D01*
X48924938Y-40706206D01*
X48850000Y-41082942D01*
X44017000Y-41082942D01*
X44017000Y-34480500D01*
X55741138Y-34480500D01*
X55741500Y-34484176D01*
X55741501Y-37651814D01*
X55741138Y-37655500D01*
X55742586Y-37670202D01*
X55746875Y-37684340D01*
X55753839Y-37697369D01*
X55763211Y-37708789D01*
X55774631Y-37718161D01*
X55787660Y-37725125D01*
X55801798Y-37729414D01*
X55812825Y-37730500D01*
X55816500Y-37730862D01*
X55820175Y-37730500D01*
X62861325Y-37730500D01*
X62865000Y-37730862D01*
X62868675Y-37730500D01*
X62879702Y-37729414D01*
X62893840Y-37725125D01*
X62906869Y-37718161D01*
X62918289Y-37708789D01*
X62927661Y-37697369D01*
X62934625Y-37684340D01*
X62938914Y-37670202D01*
X62940362Y-37655500D01*
X62940000Y-37651825D01*
X62940000Y-34484176D01*
X62940362Y-34480500D01*
X232969638Y-34480500D01*
X232970000Y-34484176D01*
X232970001Y-37651814D01*
X232969638Y-37655500D01*
X232971086Y-37670202D01*
X232975375Y-37684340D01*
X232982339Y-37697369D01*
X232991711Y-37708789D01*
X233003131Y-37718161D01*
X233016160Y-37725125D01*
X233030298Y-37729414D01*
X233041325Y-37730500D01*
X233045000Y-37730862D01*
X233048675Y-37730500D01*
X240089825Y-37730500D01*
X240093500Y-37730862D01*
X240097175Y-37730500D01*
X240108202Y-37729414D01*
X240122340Y-37725125D01*
X240135369Y-37718161D01*
X240146789Y-37708789D01*
X240156161Y-37697369D01*
X240163125Y-37684340D01*
X240167414Y-37670202D01*
X240168862Y-37655500D01*
X240168500Y-37651825D01*
X240168500Y-34484176D01*
X240168862Y-34480500D01*
X240167414Y-34465798D01*
X240163125Y-34451660D01*
X240156161Y-34438631D01*
X240146789Y-34427211D01*
X240135369Y-34417839D01*
X240122340Y-34410875D01*
X240108202Y-34406586D01*
X240097175Y-34405500D01*
X240093500Y-34405138D01*
X240089825Y-34405500D01*
X233048675Y-34405500D01*
X233045000Y-34405138D01*
X233041325Y-34405500D01*
X233030298Y-34406586D01*
X233016160Y-34410875D01*
X233003131Y-34417839D01*
X232991711Y-34427211D01*
X232982339Y-34438631D01*
X232975375Y-34451660D01*
X232971086Y-34465798D01*
X232969638Y-34480500D01*
X62940362Y-34480500D01*
X62938914Y-34465798D01*
X62934625Y-34451660D01*
X62927661Y-34438631D01*
X62918289Y-34427211D01*
X62906869Y-34417839D01*
X62893840Y-34410875D01*
X62879702Y-34406586D01*
X62868675Y-34405500D01*
X62865000Y-34405138D01*
X62861325Y-34405500D01*
X55820175Y-34405500D01*
X55816500Y-34405138D01*
X55812825Y-34405500D01*
X55801798Y-34406586D01*
X55787660Y-34410875D01*
X55774631Y-34417839D01*
X55763211Y-34427211D01*
X55753839Y-34438631D01*
X55746875Y-34451660D01*
X55742586Y-34465798D01*
X55741138Y-34480500D01*
X44017000Y-34480500D01*
X44017000Y-34293668D01*
X44040111Y-34057961D01*
X44107501Y-33834756D01*
X44216959Y-33628895D01*
X44364319Y-33448215D01*
X44543963Y-33299600D01*
X44749060Y-33188705D01*
X44971786Y-33119759D01*
X45207190Y-33095018D01*
X45212262Y-33095000D01*
X250694332Y-33095000D01*
X250930039Y-33118111D01*
G37*
G04 #@! TD.AperFunction*
M02*
