G04 #@! TF.GenerationSoftware,KiCad,Pcbnew,(5.1.8)-1*
G04 #@! TF.CreationDate,2022-11-28T21:16:34+01:00*
G04 #@! TF.ProjectId,pfm3_topsurface,70666d33-5f74-46f7-9073-757266616365,v1.2 / 176*
G04 #@! TF.SameCoordinates,Original*
G04 #@! TF.FileFunction,Profile,NP*
%FSLAX46Y46*%
G04 Gerber Fmt 4.6, Leading zero omitted, Abs format (unit mm)*
G04 Created by KiCad (PCBNEW (5.1.8)-1) date 2022-11-28 21:16:34*
%MOMM*%
%LPD*%
G01*
G04 APERTURE LIST*
G04 #@! TA.AperFunction,Profile*
%ADD10C,0.050000*%
G04 #@! TD*
G04 APERTURE END LIST*
D10*
X218440000Y-99377500D02*
X218440000Y-105092500D01*
X206756000Y-99377500D02*
X218440000Y-99377500D01*
X206756000Y-105092500D02*
X206756000Y-99377500D01*
X218440000Y-105092500D02*
X206756000Y-105092500D01*
X223266000Y-99377500D02*
X234950000Y-99377500D01*
X223266000Y-105092500D02*
X223266000Y-99377500D01*
X234950000Y-105092500D02*
X223266000Y-105092500D01*
X234950000Y-99377500D02*
X234950000Y-105092500D01*
X234950000Y-117792500D02*
X223266000Y-117792500D01*
X223266000Y-112077500D02*
X234950000Y-112077500D01*
X234950000Y-112077500D02*
X234950000Y-117792500D01*
X223266000Y-117792500D02*
X223266000Y-112077500D01*
X218440000Y-112077500D02*
X218440000Y-117792500D01*
X218440000Y-117792500D02*
X206756000Y-117792500D01*
X206756000Y-112077500D02*
X218440000Y-112077500D01*
X206756000Y-117792500D02*
X206756000Y-112077500D01*
X201930000Y-112077500D02*
X201930000Y-117792500D01*
X201930000Y-117792500D02*
X190246000Y-117792500D01*
X190246000Y-112077500D02*
X201930000Y-112077500D01*
X190246000Y-117792500D02*
X190246000Y-112077500D01*
X145796000Y-99377500D02*
X157480000Y-99377500D01*
X145796000Y-105092500D02*
X145796000Y-99377500D01*
X157480000Y-99377500D02*
X157480000Y-105092500D01*
X157480000Y-105092500D02*
X145796000Y-105092500D01*
X145796000Y-112077500D02*
X157480000Y-112077500D01*
X145796000Y-117792500D02*
X145796000Y-112077500D01*
X157480000Y-112077500D02*
X157480000Y-117792500D01*
X157480000Y-117792500D02*
X145796000Y-117792500D01*
X129286000Y-112077500D02*
X140970000Y-112077500D01*
X129286000Y-117792500D02*
X129286000Y-112077500D01*
X140970000Y-112077500D02*
X140970000Y-117792500D01*
X140970000Y-117792500D02*
X129286000Y-117792500D01*
X140970000Y-99377500D02*
X140970000Y-105092500D01*
X129286000Y-99377500D02*
X140970000Y-99377500D01*
X140970000Y-105092500D02*
X129286000Y-105092500D01*
X129286000Y-105092500D02*
X129286000Y-99377500D01*
X190246000Y-99377500D02*
X201930000Y-99377500D01*
X201930000Y-99377500D02*
X201930000Y-105092500D01*
X201930000Y-105092500D02*
X190246000Y-105092500D01*
X190246000Y-105092500D02*
X190246000Y-99377500D01*
X124460000Y-99377500D02*
X124460000Y-105092500D01*
X124460000Y-105092500D02*
X112776000Y-105092500D01*
X112776000Y-99377500D02*
X124460000Y-99377500D01*
X112776000Y-105092500D02*
X112776000Y-99377500D01*
X124460000Y-117792500D02*
X112776000Y-117792500D01*
X124460000Y-112077500D02*
X124460000Y-117792500D01*
X112776000Y-112077500D02*
X124460000Y-112077500D01*
X112776000Y-117792500D02*
X112776000Y-112077500D01*
X144399000Y-125539500D02*
X144399000Y-128714500D01*
X151447500Y-128714500D02*
X151447500Y-125539500D01*
X151447500Y-125539500D02*
X144399000Y-125539500D01*
X233045000Y-34480500D02*
X233045000Y-37655500D01*
X240093500Y-37655500D02*
X233045000Y-37655500D01*
X240093500Y-34480500D02*
X233045000Y-34480500D01*
X240093500Y-37655500D02*
X240093500Y-34480500D01*
X55816500Y-34480500D02*
X55816500Y-37655500D01*
X62865000Y-37655500D02*
X62865000Y-34480500D01*
X62865000Y-34480500D02*
X55816500Y-34480500D01*
X62865000Y-37655500D02*
X55816500Y-37655500D01*
X103060500Y-47561500D02*
X57050000Y-47561500D01*
X45212000Y-128714500D02*
X144399000Y-128714500D01*
X151447500Y-128714500D02*
X250698000Y-128714500D01*
X250698000Y-33020000D02*
X151511000Y-33020000D01*
X151511000Y-33020000D02*
X45212000Y-33020000D01*
X248920000Y-78000000D02*
X251968000Y-78000000D01*
X251968000Y-85196500D02*
X248920000Y-85196500D01*
X248920000Y-85196500D02*
X248920000Y-78000000D01*
X251968000Y-78000000D02*
X251968000Y-34290000D01*
X251968000Y-127444500D02*
X251968000Y-85196500D01*
X46990000Y-85200000D02*
X43942000Y-85200000D01*
X46990000Y-77998500D02*
X46990000Y-85200000D01*
X43942000Y-77998500D02*
X46990000Y-77998500D01*
X43942000Y-85200000D02*
X43942000Y-127444500D01*
X139128000Y-78740000D02*
G75*
G03*
X139128000Y-78740000I-4000000J0D01*
G01*
X177863000Y-78740000D02*
G75*
G03*
X177863000Y-78740000I-4000000J0D01*
G01*
X216598000Y-78740000D02*
G75*
G03*
X216598000Y-78740000I-4000000J0D01*
G01*
X216598000Y-52070000D02*
G75*
G03*
X216598000Y-52070000I-4000000J0D01*
G01*
X177863000Y-52070500D02*
G75*
G03*
X177863000Y-52070500I-4000000J0D01*
G01*
X139128000Y-52070500D02*
G75*
G03*
X139128000Y-52070500I-4000000J0D01*
G01*
X250698000Y-33020000D02*
G75*
G02*
X251968000Y-34290000I0J-1270000D01*
G01*
X251968000Y-127444500D02*
G75*
G02*
X250698000Y-128714500I-1270000J0D01*
G01*
X45212000Y-128714500D02*
G75*
G02*
X43942000Y-127444500I0J1270000D01*
G01*
X43942000Y-34290000D02*
G75*
G02*
X45212000Y-33020000I1270000J0D01*
G01*
X57050000Y-47561500D02*
X57050000Y-108700000D01*
X103050000Y-108700000D02*
X103060500Y-47561500D01*
X57050000Y-108700000D02*
X103050000Y-108700000D01*
X43942000Y-34290000D02*
X43942000Y-77998500D01*
M02*
