G04 #@! TF.GenerationSoftware,KiCad,Pcbnew,(5.1.8)-1*
G04 #@! TF.CreationDate,2021-03-16T09:30:59+01:00*
G04 #@! TF.ProjectId,pfm3_topsurface,70666d33-5f74-46f7-9073-757266616365,v1.2 / 176*
G04 #@! TF.SameCoordinates,Original*
G04 #@! TF.FileFunction,Profile,NP*
%FSLAX46Y46*%
G04 Gerber Fmt 4.6, Leading zero omitted, Abs format (unit mm)*
G04 Created by KiCad (PCBNEW (5.1.8)-1) date 2021-03-16 09:30:59*
%MOMM*%
%LPD*%
G01*
G04 APERTURE LIST*
G04 #@! TA.AperFunction,Profile*
%ADD10C,0.050000*%
G04 #@! TD*
G04 APERTURE END LIST*
D10*
X103050000Y-46550000D02*
X57050000Y-46550000D01*
X144399000Y-130175000D02*
X144399000Y-127190500D01*
X45212000Y-130175000D02*
X144399000Y-130175000D01*
X144399000Y-127190500D02*
X151511000Y-127190500D01*
X151511000Y-130175000D02*
X151511000Y-127190500D01*
X151511000Y-130175000D02*
X250698000Y-130175000D01*
X151511000Y-36004500D02*
X144399000Y-36004500D01*
X151511000Y-33020000D02*
X151511000Y-36004500D01*
X144399000Y-33020000D02*
X144399000Y-36004500D01*
X250698000Y-33020000D02*
X151511000Y-33020000D01*
X144399000Y-33020000D02*
X45212000Y-33020000D01*
X248920000Y-78000000D02*
X251968000Y-78000000D01*
X251968000Y-85196500D02*
X248920000Y-85196500D01*
X248920000Y-85196500D02*
X248920000Y-78000000D01*
X251968000Y-78000000D02*
X251968000Y-34290000D01*
X251968000Y-128905000D02*
X251968000Y-85196500D01*
X46990000Y-85200000D02*
X43942000Y-85200000D01*
X46990000Y-77998500D02*
X46990000Y-85200000D01*
X43942000Y-77998500D02*
X46990000Y-77998500D01*
X43942000Y-85200000D02*
X43942000Y-128905000D01*
X156500000Y-79500000D02*
G75*
G03*
X156500000Y-79500000I-4000000J0D01*
G01*
X193600000Y-79500000D02*
G75*
G03*
X193600000Y-79500000I-4000000J0D01*
G01*
X230650000Y-79500000D02*
G75*
G03*
X230650000Y-79500000I-4000000J0D01*
G01*
X230650000Y-52850000D02*
G75*
G03*
X230650000Y-52850000I-4000000J0D01*
G01*
X193600000Y-52850000D02*
G75*
G03*
X193600000Y-52850000I-4000000J0D01*
G01*
X156500000Y-52800000D02*
G75*
G03*
X156500000Y-52800000I-4000000J0D01*
G01*
X129100000Y-117800000D02*
X129100000Y-111800000D01*
X112600000Y-117800000D02*
X112600000Y-111800000D01*
X141100000Y-117800000D02*
X129100000Y-117800000D01*
X141100000Y-111800000D02*
X141100000Y-117800000D01*
X124600000Y-117800000D02*
X112600000Y-117800000D01*
X124600000Y-111800000D02*
X124600000Y-117800000D01*
X112600000Y-111800000D02*
X124600000Y-111800000D01*
X129100000Y-111800000D02*
X141100000Y-111800000D01*
X145600000Y-117800000D02*
X145600000Y-111800000D01*
X214850000Y-97200000D02*
X226850000Y-97200000D01*
X198350000Y-103200000D02*
X198350000Y-97200000D01*
X210350000Y-97200000D02*
X210350000Y-103200000D01*
X210350000Y-103200000D02*
X198350000Y-103200000D01*
X214850000Y-103200000D02*
X214850000Y-97200000D01*
X226850000Y-103200000D02*
X214850000Y-103200000D01*
X226850000Y-97200000D02*
X226850000Y-103200000D01*
X198350000Y-97200000D02*
X210350000Y-97200000D01*
X206650000Y-117800000D02*
X206650000Y-111800000D01*
X223150000Y-111800000D02*
X235150000Y-111800000D01*
X206650000Y-111800000D02*
X218650000Y-111800000D01*
X190150000Y-111800000D02*
X202150000Y-111800000D01*
X202150000Y-117800000D02*
X190150000Y-117800000D01*
X235150000Y-111800000D02*
X235150000Y-117800000D01*
X218650000Y-117800000D02*
X206650000Y-117800000D01*
X223150000Y-117800000D02*
X223150000Y-111800000D01*
X235150000Y-117800000D02*
X223150000Y-117800000D01*
X190150000Y-117800000D02*
X190150000Y-111800000D01*
X202150000Y-111800000D02*
X202150000Y-117800000D01*
X218650000Y-111800000D02*
X218650000Y-117800000D01*
X145600000Y-105100000D02*
X145600000Y-99100000D01*
X145600000Y-99100000D02*
X157600000Y-99100000D01*
X145600000Y-111800000D02*
X157600000Y-111800000D01*
X157600000Y-105100000D02*
X145600000Y-105100000D01*
X157600000Y-111800000D02*
X157600000Y-117800000D01*
X157600000Y-117800000D02*
X145600000Y-117800000D01*
X157600000Y-99100000D02*
X157600000Y-105100000D01*
X129100000Y-99100000D02*
X141100000Y-99100000D01*
X141100000Y-105100000D02*
X129100000Y-105100000D01*
X129100000Y-105100000D02*
X129100000Y-99100000D01*
X141100000Y-99100000D02*
X141100000Y-105100000D01*
X124600000Y-99100000D02*
X124600000Y-105100000D01*
X112600000Y-99100000D02*
X124600000Y-99100000D01*
X124600000Y-105100000D02*
X112600000Y-105100000D01*
X112600000Y-105100000D02*
X112600000Y-99100000D01*
X124600000Y-88600000D02*
X112600000Y-88600000D01*
X124600000Y-82600000D02*
X124600000Y-88600000D01*
X112600000Y-82600000D02*
X124600000Y-82600000D01*
X112600000Y-88600000D02*
X112600000Y-82600000D01*
X250698000Y-33020000D02*
G75*
G02*
X251968000Y-34290000I0J-1270000D01*
G01*
X251968000Y-128905000D02*
G75*
G02*
X250698000Y-130175000I-1270000J0D01*
G01*
X45212000Y-130175000D02*
G75*
G02*
X43942000Y-128905000I0J1270000D01*
G01*
X43942000Y-34290000D02*
G75*
G02*
X45212000Y-33020000I1270000J0D01*
G01*
X57050000Y-46550000D02*
X57050000Y-108700000D01*
X103050000Y-108700000D02*
X103050000Y-46550000D01*
X57050000Y-108700000D02*
X103050000Y-108700000D01*
X43942000Y-34290000D02*
X43942000Y-77998500D01*
M02*
