G04 #@! TF.GenerationSoftware,KiCad,Pcbnew,(5.1.8)-1*
G04 #@! TF.CreationDate,2022-11-27T21:23:24+01:00*
G04 #@! TF.ProjectId,pfm3_ctrl,70666d33-5f63-4747-926c-2e6b69636164,rev?*
G04 #@! TF.SameCoordinates,Original*
G04 #@! TF.FileFunction,Soldermask,Top*
G04 #@! TF.FilePolarity,Negative*
%FSLAX46Y46*%
G04 Gerber Fmt 4.6, Leading zero omitted, Abs format (unit mm)*
G04 Created by KiCad (PCBNEW (5.1.8)-1) date 2022-11-27 21:23:24*
%MOMM*%
%LPD*%
G01*
G04 APERTURE LIST*
%ADD10C,1.626000*%
%ADD11C,3.602000*%
%ADD12C,1.852060*%
%ADD13C,3.302400*%
%ADD14O,3.101740X2.100980*%
G04 APERTURE END LIST*
D10*
X139192000Y-117475000D03*
D11*
X135382000Y-61595000D03*
X200152000Y-36830000D03*
X71501000Y-61595000D03*
X200152000Y-117475000D03*
X71501000Y-117475000D03*
D10*
X136652000Y-117475000D03*
X134112000Y-117475000D03*
X131572000Y-117475000D03*
X129032000Y-117475000D03*
G36*
G01*
X125679000Y-118237000D02*
X125679000Y-116713000D01*
G75*
G02*
X125730000Y-116662000I51000J0D01*
G01*
X127254000Y-116662000D01*
G75*
G02*
X127305000Y-116713000I0J-51000D01*
G01*
X127305000Y-118237000D01*
G75*
G02*
X127254000Y-118288000I-51000J0D01*
G01*
X125730000Y-118288000D01*
G75*
G02*
X125679000Y-118237000I0J51000D01*
G01*
G37*
D12*
X172085000Y-67310000D03*
X177165000Y-67310000D03*
D13*
X168125140Y-74231500D03*
X181124860Y-74231500D03*
D12*
X172021500Y-81851500D03*
X174561500Y-81851500D03*
X177101500Y-81851500D03*
X133350000Y-67310000D03*
X138430000Y-67310000D03*
D13*
X129390140Y-74231500D03*
X142389860Y-74231500D03*
D12*
X133286500Y-81851500D03*
X135826500Y-81851500D03*
X138366500Y-81851500D03*
X94615000Y-67310000D03*
X99695000Y-67310000D03*
D13*
X90655140Y-74231500D03*
X103654860Y-74231500D03*
D12*
X94551500Y-81851500D03*
X97091500Y-81851500D03*
X99631500Y-81851500D03*
X172085000Y-40640000D03*
X177165000Y-40640000D03*
D13*
X168125140Y-47561500D03*
X181124860Y-47561500D03*
D12*
X172021500Y-55181500D03*
X174561500Y-55181500D03*
X177101500Y-55181500D03*
X133350000Y-40640000D03*
X138430000Y-40640000D03*
D13*
X129390140Y-47561500D03*
X142389860Y-47561500D03*
D12*
X133286500Y-55181500D03*
X135826500Y-55181500D03*
X138366500Y-55181500D03*
X94615000Y-40640000D03*
X99695000Y-40640000D03*
D13*
X90655140Y-47561500D03*
X103654860Y-47561500D03*
D12*
X94551500Y-55181500D03*
X97091500Y-55181500D03*
X99631500Y-55181500D03*
G36*
G01*
X77799000Y-74056000D02*
X77799000Y-74407000D01*
G75*
G02*
X77623500Y-74582500I-175500J0D01*
G01*
X75922500Y-74582500D01*
G75*
G02*
X75747000Y-74407000I0J175500D01*
G01*
X75747000Y-74056000D01*
G75*
G02*
X75922500Y-73880500I175500J0D01*
G01*
X77623500Y-73880500D01*
G75*
G02*
X77799000Y-74056000I0J-175500D01*
G01*
G37*
G36*
G01*
X77799000Y-72786000D02*
X77799000Y-73137000D01*
G75*
G02*
X77623500Y-73312500I-175500J0D01*
G01*
X75922500Y-73312500D01*
G75*
G02*
X75747000Y-73137000I0J175500D01*
G01*
X75747000Y-72786000D01*
G75*
G02*
X75922500Y-72610500I175500J0D01*
G01*
X77623500Y-72610500D01*
G75*
G02*
X77799000Y-72786000I0J-175500D01*
G01*
G37*
G36*
G01*
X77799000Y-71516000D02*
X77799000Y-71867000D01*
G75*
G02*
X77623500Y-72042500I-175500J0D01*
G01*
X75922500Y-72042500D01*
G75*
G02*
X75747000Y-71867000I0J175500D01*
G01*
X75747000Y-71516000D01*
G75*
G02*
X75922500Y-71340500I175500J0D01*
G01*
X77623500Y-71340500D01*
G75*
G02*
X77799000Y-71516000I0J-175500D01*
G01*
G37*
G36*
G01*
X77799000Y-70246000D02*
X77799000Y-70597000D01*
G75*
G02*
X77623500Y-70772500I-175500J0D01*
G01*
X75922500Y-70772500D01*
G75*
G02*
X75747000Y-70597000I0J175500D01*
G01*
X75747000Y-70246000D01*
G75*
G02*
X75922500Y-70070500I175500J0D01*
G01*
X77623500Y-70070500D01*
G75*
G02*
X77799000Y-70246000I0J-175500D01*
G01*
G37*
G36*
G01*
X77799000Y-68976000D02*
X77799000Y-69327000D01*
G75*
G02*
X77623500Y-69502500I-175500J0D01*
G01*
X75922500Y-69502500D01*
G75*
G02*
X75747000Y-69327000I0J175500D01*
G01*
X75747000Y-68976000D01*
G75*
G02*
X75922500Y-68800500I175500J0D01*
G01*
X77623500Y-68800500D01*
G75*
G02*
X77799000Y-68976000I0J-175500D01*
G01*
G37*
G36*
G01*
X77799000Y-67706000D02*
X77799000Y-68057000D01*
G75*
G02*
X77623500Y-68232500I-175500J0D01*
G01*
X75922500Y-68232500D01*
G75*
G02*
X75747000Y-68057000I0J175500D01*
G01*
X75747000Y-67706000D01*
G75*
G02*
X75922500Y-67530500I175500J0D01*
G01*
X77623500Y-67530500D01*
G75*
G02*
X77799000Y-67706000I0J-175500D01*
G01*
G37*
G36*
G01*
X77799000Y-66436000D02*
X77799000Y-66787000D01*
G75*
G02*
X77623500Y-66962500I-175500J0D01*
G01*
X75922500Y-66962500D01*
G75*
G02*
X75747000Y-66787000I0J175500D01*
G01*
X75747000Y-66436000D01*
G75*
G02*
X75922500Y-66260500I175500J0D01*
G01*
X77623500Y-66260500D01*
G75*
G02*
X77799000Y-66436000I0J-175500D01*
G01*
G37*
G36*
G01*
X77799000Y-65166000D02*
X77799000Y-65517000D01*
G75*
G02*
X77623500Y-65692500I-175500J0D01*
G01*
X75922500Y-65692500D01*
G75*
G02*
X75747000Y-65517000I0J175500D01*
G01*
X75747000Y-65166000D01*
G75*
G02*
X75922500Y-64990500I175500J0D01*
G01*
X77623500Y-64990500D01*
G75*
G02*
X77799000Y-65166000I0J-175500D01*
G01*
G37*
G36*
G01*
X82749000Y-65166000D02*
X82749000Y-65517000D01*
G75*
G02*
X82573500Y-65692500I-175500J0D01*
G01*
X80872500Y-65692500D01*
G75*
G02*
X80697000Y-65517000I0J175500D01*
G01*
X80697000Y-65166000D01*
G75*
G02*
X80872500Y-64990500I175500J0D01*
G01*
X82573500Y-64990500D01*
G75*
G02*
X82749000Y-65166000I0J-175500D01*
G01*
G37*
G36*
G01*
X82749000Y-66436000D02*
X82749000Y-66787000D01*
G75*
G02*
X82573500Y-66962500I-175500J0D01*
G01*
X80872500Y-66962500D01*
G75*
G02*
X80697000Y-66787000I0J175500D01*
G01*
X80697000Y-66436000D01*
G75*
G02*
X80872500Y-66260500I175500J0D01*
G01*
X82573500Y-66260500D01*
G75*
G02*
X82749000Y-66436000I0J-175500D01*
G01*
G37*
G36*
G01*
X82749000Y-67706000D02*
X82749000Y-68057000D01*
G75*
G02*
X82573500Y-68232500I-175500J0D01*
G01*
X80872500Y-68232500D01*
G75*
G02*
X80697000Y-68057000I0J175500D01*
G01*
X80697000Y-67706000D01*
G75*
G02*
X80872500Y-67530500I175500J0D01*
G01*
X82573500Y-67530500D01*
G75*
G02*
X82749000Y-67706000I0J-175500D01*
G01*
G37*
G36*
G01*
X82749000Y-68976000D02*
X82749000Y-69327000D01*
G75*
G02*
X82573500Y-69502500I-175500J0D01*
G01*
X80872500Y-69502500D01*
G75*
G02*
X80697000Y-69327000I0J175500D01*
G01*
X80697000Y-68976000D01*
G75*
G02*
X80872500Y-68800500I175500J0D01*
G01*
X82573500Y-68800500D01*
G75*
G02*
X82749000Y-68976000I0J-175500D01*
G01*
G37*
G36*
G01*
X82749000Y-70246000D02*
X82749000Y-70597000D01*
G75*
G02*
X82573500Y-70772500I-175500J0D01*
G01*
X80872500Y-70772500D01*
G75*
G02*
X80697000Y-70597000I0J175500D01*
G01*
X80697000Y-70246000D01*
G75*
G02*
X80872500Y-70070500I175500J0D01*
G01*
X82573500Y-70070500D01*
G75*
G02*
X82749000Y-70246000I0J-175500D01*
G01*
G37*
G36*
G01*
X82749000Y-71516000D02*
X82749000Y-71867000D01*
G75*
G02*
X82573500Y-72042500I-175500J0D01*
G01*
X80872500Y-72042500D01*
G75*
G02*
X80697000Y-71867000I0J175500D01*
G01*
X80697000Y-71516000D01*
G75*
G02*
X80872500Y-71340500I175500J0D01*
G01*
X82573500Y-71340500D01*
G75*
G02*
X82749000Y-71516000I0J-175500D01*
G01*
G37*
G36*
G01*
X82749000Y-72786000D02*
X82749000Y-73137000D01*
G75*
G02*
X82573500Y-73312500I-175500J0D01*
G01*
X80872500Y-73312500D01*
G75*
G02*
X80697000Y-73137000I0J175500D01*
G01*
X80697000Y-72786000D01*
G75*
G02*
X80872500Y-72610500I175500J0D01*
G01*
X82573500Y-72610500D01*
G75*
G02*
X82749000Y-72786000I0J-175500D01*
G01*
G37*
G36*
G01*
X82749000Y-74056000D02*
X82749000Y-74407000D01*
G75*
G02*
X82573500Y-74582500I-175500J0D01*
G01*
X80872500Y-74582500D01*
G75*
G02*
X80697000Y-74407000I0J175500D01*
G01*
X80697000Y-74056000D01*
G75*
G02*
X80872500Y-73880500I175500J0D01*
G01*
X82573500Y-73880500D01*
G75*
G02*
X82749000Y-74056000I0J-175500D01*
G01*
G37*
G36*
G01*
X85787000Y-71076500D02*
X85787000Y-70655500D01*
G75*
G02*
X85947500Y-70495000I160500J0D01*
G01*
X86268500Y-70495000D01*
G75*
G02*
X86429000Y-70655500I0J-160500D01*
G01*
X86429000Y-71076500D01*
G75*
G02*
X86268500Y-71237000I-160500J0D01*
G01*
X85947500Y-71237000D01*
G75*
G02*
X85787000Y-71076500I0J160500D01*
G01*
G37*
G36*
G01*
X84767000Y-71076500D02*
X84767000Y-70655500D01*
G75*
G02*
X84927500Y-70495000I160500J0D01*
G01*
X85248500Y-70495000D01*
G75*
G02*
X85409000Y-70655500I0J-160500D01*
G01*
X85409000Y-71076500D01*
G75*
G02*
X85248500Y-71237000I-160500J0D01*
G01*
X84927500Y-71237000D01*
G75*
G02*
X84767000Y-71076500I0J160500D01*
G01*
G37*
G36*
G01*
X85787000Y-72981500D02*
X85787000Y-72560500D01*
G75*
G02*
X85947500Y-72400000I160500J0D01*
G01*
X86268500Y-72400000D01*
G75*
G02*
X86429000Y-72560500I0J-160500D01*
G01*
X86429000Y-72981500D01*
G75*
G02*
X86268500Y-73142000I-160500J0D01*
G01*
X85947500Y-73142000D01*
G75*
G02*
X85787000Y-72981500I0J160500D01*
G01*
G37*
G36*
G01*
X84767000Y-72981500D02*
X84767000Y-72560500D01*
G75*
G02*
X84927500Y-72400000I160500J0D01*
G01*
X85248500Y-72400000D01*
G75*
G02*
X85409000Y-72560500I0J-160500D01*
G01*
X85409000Y-72981500D01*
G75*
G02*
X85248500Y-73142000I-160500J0D01*
G01*
X84927500Y-73142000D01*
G75*
G02*
X84767000Y-72981500I0J160500D01*
G01*
G37*
G36*
G01*
X71654000Y-72593500D02*
X71654000Y-73014500D01*
G75*
G02*
X71493500Y-73175000I-160500J0D01*
G01*
X71172500Y-73175000D01*
G75*
G02*
X71012000Y-73014500I0J160500D01*
G01*
X71012000Y-72593500D01*
G75*
G02*
X71172500Y-72433000I160500J0D01*
G01*
X71493500Y-72433000D01*
G75*
G02*
X71654000Y-72593500I0J-160500D01*
G01*
G37*
G36*
G01*
X72674000Y-72593500D02*
X72674000Y-73014500D01*
G75*
G02*
X72513500Y-73175000I-160500J0D01*
G01*
X72192500Y-73175000D01*
G75*
G02*
X72032000Y-73014500I0J160500D01*
G01*
X72032000Y-72593500D01*
G75*
G02*
X72192500Y-72433000I160500J0D01*
G01*
X72513500Y-72433000D01*
G75*
G02*
X72674000Y-72593500I0J-160500D01*
G01*
G37*
G36*
G01*
X71654000Y-70603500D02*
X71654000Y-71024500D01*
G75*
G02*
X71493500Y-71185000I-160500J0D01*
G01*
X71172500Y-71185000D01*
G75*
G02*
X71012000Y-71024500I0J160500D01*
G01*
X71012000Y-70603500D01*
G75*
G02*
X71172500Y-70443000I160500J0D01*
G01*
X71493500Y-70443000D01*
G75*
G02*
X71654000Y-70603500I0J-160500D01*
G01*
G37*
G36*
G01*
X72674000Y-70603500D02*
X72674000Y-71024500D01*
G75*
G02*
X72513500Y-71185000I-160500J0D01*
G01*
X72192500Y-71185000D01*
G75*
G02*
X72032000Y-71024500I0J160500D01*
G01*
X72032000Y-70603500D01*
G75*
G02*
X72192500Y-70443000I160500J0D01*
G01*
X72513500Y-70443000D01*
G75*
G02*
X72674000Y-70603500I0J-160500D01*
G01*
G37*
G36*
G01*
X71654000Y-68613500D02*
X71654000Y-69034500D01*
G75*
G02*
X71493500Y-69195000I-160500J0D01*
G01*
X71172500Y-69195000D01*
G75*
G02*
X71012000Y-69034500I0J160500D01*
G01*
X71012000Y-68613500D01*
G75*
G02*
X71172500Y-68453000I160500J0D01*
G01*
X71493500Y-68453000D01*
G75*
G02*
X71654000Y-68613500I0J-160500D01*
G01*
G37*
G36*
G01*
X72674000Y-68613500D02*
X72674000Y-69034500D01*
G75*
G02*
X72513500Y-69195000I-160500J0D01*
G01*
X72192500Y-69195000D01*
G75*
G02*
X72032000Y-69034500I0J160500D01*
G01*
X72032000Y-68613500D01*
G75*
G02*
X72192500Y-68453000I160500J0D01*
G01*
X72513500Y-68453000D01*
G75*
G02*
X72674000Y-68613500I0J-160500D01*
G01*
G37*
G36*
G01*
X71654000Y-66623500D02*
X71654000Y-67044500D01*
G75*
G02*
X71493500Y-67205000I-160500J0D01*
G01*
X71172500Y-67205000D01*
G75*
G02*
X71012000Y-67044500I0J160500D01*
G01*
X71012000Y-66623500D01*
G75*
G02*
X71172500Y-66463000I160500J0D01*
G01*
X71493500Y-66463000D01*
G75*
G02*
X71654000Y-66623500I0J-160500D01*
G01*
G37*
G36*
G01*
X72674000Y-66623500D02*
X72674000Y-67044500D01*
G75*
G02*
X72513500Y-67205000I-160500J0D01*
G01*
X72192500Y-67205000D01*
G75*
G02*
X72032000Y-67044500I0J160500D01*
G01*
X72032000Y-66623500D01*
G75*
G02*
X72192500Y-66463000I160500J0D01*
G01*
X72513500Y-66463000D01*
G75*
G02*
X72674000Y-66623500I0J-160500D01*
G01*
G37*
G36*
G01*
X74617500Y-74781000D02*
X74226500Y-74781000D01*
G75*
G02*
X74061000Y-74615500I0J165500D01*
G01*
X74061000Y-74284500D01*
G75*
G02*
X74226500Y-74119000I165500J0D01*
G01*
X74617500Y-74119000D01*
G75*
G02*
X74783000Y-74284500I0J-165500D01*
G01*
X74783000Y-74615500D01*
G75*
G02*
X74617500Y-74781000I-165500J0D01*
G01*
G37*
G36*
G01*
X74617500Y-75741000D02*
X74226500Y-75741000D01*
G75*
G02*
X74061000Y-75575500I0J165500D01*
G01*
X74061000Y-75244500D01*
G75*
G02*
X74226500Y-75079000I165500J0D01*
G01*
X74617500Y-75079000D01*
G75*
G02*
X74783000Y-75244500I0J-165500D01*
G01*
X74783000Y-75575500D01*
G75*
G02*
X74617500Y-75741000I-165500J0D01*
G01*
G37*
D14*
X184884060Y-100289360D03*
X197385940Y-100289360D03*
X197385940Y-95290640D03*
X184884060Y-95290640D03*
X151864060Y-100289360D03*
X164365940Y-100289360D03*
X164365940Y-95290640D03*
X151864060Y-95290640D03*
X184884060Y-112989360D03*
X197385940Y-112989360D03*
X197385940Y-107990640D03*
X184884060Y-107990640D03*
X168374060Y-112989360D03*
X180875940Y-112989360D03*
X180875940Y-107990640D03*
X168374060Y-107990640D03*
X151864060Y-112989360D03*
X164365940Y-112989360D03*
X164365940Y-107990640D03*
X151864060Y-107990640D03*
X168374060Y-100289360D03*
X180875940Y-100289360D03*
X180875940Y-95290640D03*
X168374060Y-95290640D03*
X107414060Y-112989360D03*
X119915940Y-112989360D03*
X119915940Y-107990640D03*
X107414060Y-107990640D03*
X90904060Y-112989360D03*
X103405940Y-112989360D03*
X103405940Y-107990640D03*
X90904060Y-107990640D03*
X74394060Y-112989360D03*
X86895940Y-112989360D03*
X86895940Y-107990640D03*
X74394060Y-107990640D03*
X107414060Y-100289360D03*
X119915940Y-100289360D03*
X119915940Y-95290640D03*
X107414060Y-95290640D03*
X90904060Y-100289360D03*
X103405940Y-100289360D03*
X103405940Y-95290640D03*
X90904060Y-95290640D03*
X74394060Y-100289360D03*
X86895940Y-100289360D03*
X86895940Y-95290640D03*
X74394060Y-95290640D03*
G36*
G01*
X135591000Y-88173750D02*
X135591000Y-88737250D01*
G75*
G02*
X135346750Y-88981500I-244250J0D01*
G01*
X134858250Y-88981500D01*
G75*
G02*
X134614000Y-88737250I0J244250D01*
G01*
X134614000Y-88173750D01*
G75*
G02*
X134858250Y-87929500I244250J0D01*
G01*
X135346750Y-87929500D01*
G75*
G02*
X135591000Y-88173750I0J-244250D01*
G01*
G37*
G36*
G01*
X137166000Y-88173750D02*
X137166000Y-88737250D01*
G75*
G02*
X136921750Y-88981500I-244250J0D01*
G01*
X136433250Y-88981500D01*
G75*
G02*
X136189000Y-88737250I0J244250D01*
G01*
X136189000Y-88173750D01*
G75*
G02*
X136433250Y-87929500I244250J0D01*
G01*
X136921750Y-87929500D01*
G75*
G02*
X137166000Y-88173750I0J-244250D01*
G01*
G37*
G36*
G01*
X135624001Y-86141750D02*
X135624001Y-86705250D01*
G75*
G02*
X135379751Y-86949500I-244250J0D01*
G01*
X134891251Y-86949500D01*
G75*
G02*
X134647001Y-86705250I0J244250D01*
G01*
X134647001Y-86141750D01*
G75*
G02*
X134891251Y-85897500I244250J0D01*
G01*
X135379751Y-85897500D01*
G75*
G02*
X135624001Y-86141750I0J-244250D01*
G01*
G37*
G36*
G01*
X137199001Y-86141750D02*
X137199001Y-86705250D01*
G75*
G02*
X136954751Y-86949500I-244250J0D01*
G01*
X136466251Y-86949500D01*
G75*
G02*
X136222001Y-86705250I0J244250D01*
G01*
X136222001Y-86141750D01*
G75*
G02*
X136466251Y-85897500I244250J0D01*
G01*
X136954751Y-85897500D01*
G75*
G02*
X137199001Y-86141750I0J-244250D01*
G01*
G37*
G36*
G01*
X126376000Y-104958000D02*
X126376000Y-105354000D01*
G75*
G02*
X126203000Y-105527000I-173000J0D01*
G01*
X125857000Y-105527000D01*
G75*
G02*
X125684000Y-105354000I0J173000D01*
G01*
X125684000Y-104958000D01*
G75*
G02*
X125857000Y-104785000I173000J0D01*
G01*
X126203000Y-104785000D01*
G75*
G02*
X126376000Y-104958000I0J-173000D01*
G01*
G37*
G36*
G01*
X127346000Y-104958000D02*
X127346000Y-105354000D01*
G75*
G02*
X127173000Y-105527000I-173000J0D01*
G01*
X126827000Y-105527000D01*
G75*
G02*
X126654000Y-105354000I0J173000D01*
G01*
X126654000Y-104958000D01*
G75*
G02*
X126827000Y-104785000I173000J0D01*
G01*
X127173000Y-104785000D01*
G75*
G02*
X127346000Y-104958000I0J-173000D01*
G01*
G37*
G36*
G01*
X126376000Y-103180000D02*
X126376000Y-103576000D01*
G75*
G02*
X126203000Y-103749000I-173000J0D01*
G01*
X125857000Y-103749000D01*
G75*
G02*
X125684000Y-103576000I0J173000D01*
G01*
X125684000Y-103180000D01*
G75*
G02*
X125857000Y-103007000I173000J0D01*
G01*
X126203000Y-103007000D01*
G75*
G02*
X126376000Y-103180000I0J-173000D01*
G01*
G37*
G36*
G01*
X127346000Y-103180000D02*
X127346000Y-103576000D01*
G75*
G02*
X127173000Y-103749000I-173000J0D01*
G01*
X126827000Y-103749000D01*
G75*
G02*
X126654000Y-103576000I0J173000D01*
G01*
X126654000Y-103180000D01*
G75*
G02*
X126827000Y-103007000I173000J0D01*
G01*
X127173000Y-103007000D01*
G75*
G02*
X127346000Y-103180000I0J-173000D01*
G01*
G37*
G36*
G01*
X126353000Y-101148000D02*
X126353000Y-101544000D01*
G75*
G02*
X126180000Y-101717000I-173000J0D01*
G01*
X125834000Y-101717000D01*
G75*
G02*
X125661000Y-101544000I0J173000D01*
G01*
X125661000Y-101148000D01*
G75*
G02*
X125834000Y-100975000I173000J0D01*
G01*
X126180000Y-100975000D01*
G75*
G02*
X126353000Y-101148000I0J-173000D01*
G01*
G37*
G36*
G01*
X127323000Y-101148000D02*
X127323000Y-101544000D01*
G75*
G02*
X127150000Y-101717000I-173000J0D01*
G01*
X126804000Y-101717000D01*
G75*
G02*
X126631000Y-101544000I0J173000D01*
G01*
X126631000Y-101148000D01*
G75*
G02*
X126804000Y-100975000I173000J0D01*
G01*
X127150000Y-100975000D01*
G75*
G02*
X127323000Y-101148000I0J-173000D01*
G01*
G37*
G36*
G01*
X126353000Y-99370000D02*
X126353000Y-99766000D01*
G75*
G02*
X126180000Y-99939000I-173000J0D01*
G01*
X125834000Y-99939000D01*
G75*
G02*
X125661000Y-99766000I0J173000D01*
G01*
X125661000Y-99370000D01*
G75*
G02*
X125834000Y-99197000I173000J0D01*
G01*
X126180000Y-99197000D01*
G75*
G02*
X126353000Y-99370000I0J-173000D01*
G01*
G37*
G36*
G01*
X127323000Y-99370000D02*
X127323000Y-99766000D01*
G75*
G02*
X127150000Y-99939000I-173000J0D01*
G01*
X126804000Y-99939000D01*
G75*
G02*
X126631000Y-99766000I0J173000D01*
G01*
X126631000Y-99370000D01*
G75*
G02*
X126804000Y-99197000I173000J0D01*
G01*
X127150000Y-99197000D01*
G75*
G02*
X127323000Y-99370000I0J-173000D01*
G01*
G37*
G36*
G01*
X140347000Y-99766000D02*
X140347000Y-99370000D01*
G75*
G02*
X140520000Y-99197000I173000J0D01*
G01*
X140866000Y-99197000D01*
G75*
G02*
X141039000Y-99370000I0J-173000D01*
G01*
X141039000Y-99766000D01*
G75*
G02*
X140866000Y-99939000I-173000J0D01*
G01*
X140520000Y-99939000D01*
G75*
G02*
X140347000Y-99766000I0J173000D01*
G01*
G37*
G36*
G01*
X139377000Y-99766000D02*
X139377000Y-99370000D01*
G75*
G02*
X139550000Y-99197000I173000J0D01*
G01*
X139896000Y-99197000D01*
G75*
G02*
X140069000Y-99370000I0J-173000D01*
G01*
X140069000Y-99766000D01*
G75*
G02*
X139896000Y-99939000I-173000J0D01*
G01*
X139550000Y-99939000D01*
G75*
G02*
X139377000Y-99766000I0J173000D01*
G01*
G37*
G36*
G01*
X140347000Y-101544000D02*
X140347000Y-101148000D01*
G75*
G02*
X140520000Y-100975000I173000J0D01*
G01*
X140866000Y-100975000D01*
G75*
G02*
X141039000Y-101148000I0J-173000D01*
G01*
X141039000Y-101544000D01*
G75*
G02*
X140866000Y-101717000I-173000J0D01*
G01*
X140520000Y-101717000D01*
G75*
G02*
X140347000Y-101544000I0J173000D01*
G01*
G37*
G36*
G01*
X139377000Y-101544000D02*
X139377000Y-101148000D01*
G75*
G02*
X139550000Y-100975000I173000J0D01*
G01*
X139896000Y-100975000D01*
G75*
G02*
X140069000Y-101148000I0J-173000D01*
G01*
X140069000Y-101544000D01*
G75*
G02*
X139896000Y-101717000I-173000J0D01*
G01*
X139550000Y-101717000D01*
G75*
G02*
X139377000Y-101544000I0J173000D01*
G01*
G37*
G36*
G01*
X140347000Y-103576000D02*
X140347000Y-103180000D01*
G75*
G02*
X140520000Y-103007000I173000J0D01*
G01*
X140866000Y-103007000D01*
G75*
G02*
X141039000Y-103180000I0J-173000D01*
G01*
X141039000Y-103576000D01*
G75*
G02*
X140866000Y-103749000I-173000J0D01*
G01*
X140520000Y-103749000D01*
G75*
G02*
X140347000Y-103576000I0J173000D01*
G01*
G37*
G36*
G01*
X139377000Y-103576000D02*
X139377000Y-103180000D01*
G75*
G02*
X139550000Y-103007000I173000J0D01*
G01*
X139896000Y-103007000D01*
G75*
G02*
X140069000Y-103180000I0J-173000D01*
G01*
X140069000Y-103576000D01*
G75*
G02*
X139896000Y-103749000I-173000J0D01*
G01*
X139550000Y-103749000D01*
G75*
G02*
X139377000Y-103576000I0J173000D01*
G01*
G37*
G36*
G01*
X140347000Y-105354000D02*
X140347000Y-104958000D01*
G75*
G02*
X140520000Y-104785000I173000J0D01*
G01*
X140866000Y-104785000D01*
G75*
G02*
X141039000Y-104958000I0J-173000D01*
G01*
X141039000Y-105354000D01*
G75*
G02*
X140866000Y-105527000I-173000J0D01*
G01*
X140520000Y-105527000D01*
G75*
G02*
X140347000Y-105354000I0J173000D01*
G01*
G37*
G36*
G01*
X139377000Y-105354000D02*
X139377000Y-104958000D01*
G75*
G02*
X139550000Y-104785000I173000J0D01*
G01*
X139896000Y-104785000D01*
G75*
G02*
X140069000Y-104958000I0J-173000D01*
G01*
X140069000Y-105354000D01*
G75*
G02*
X139896000Y-105527000I-173000J0D01*
G01*
X139550000Y-105527000D01*
G75*
G02*
X139377000Y-105354000I0J173000D01*
G01*
G37*
G36*
G01*
X160649500Y-64841000D02*
X160649500Y-64445000D01*
G75*
G02*
X160822500Y-64272000I173000J0D01*
G01*
X161168500Y-64272000D01*
G75*
G02*
X161341500Y-64445000I0J-173000D01*
G01*
X161341500Y-64841000D01*
G75*
G02*
X161168500Y-65014000I-173000J0D01*
G01*
X160822500Y-65014000D01*
G75*
G02*
X160649500Y-64841000I0J173000D01*
G01*
G37*
G36*
G01*
X161619500Y-64841000D02*
X161619500Y-64445000D01*
G75*
G02*
X161792500Y-64272000I173000J0D01*
G01*
X162138500Y-64272000D01*
G75*
G02*
X162311500Y-64445000I0J-173000D01*
G01*
X162311500Y-64841000D01*
G75*
G02*
X162138500Y-65014000I-173000J0D01*
G01*
X161792500Y-65014000D01*
G75*
G02*
X161619500Y-64841000I0J173000D01*
G01*
G37*
G36*
G01*
X160649500Y-66619000D02*
X160649500Y-66223000D01*
G75*
G02*
X160822500Y-66050000I173000J0D01*
G01*
X161168500Y-66050000D01*
G75*
G02*
X161341500Y-66223000I0J-173000D01*
G01*
X161341500Y-66619000D01*
G75*
G02*
X161168500Y-66792000I-173000J0D01*
G01*
X160822500Y-66792000D01*
G75*
G02*
X160649500Y-66619000I0J173000D01*
G01*
G37*
G36*
G01*
X161619500Y-66619000D02*
X161619500Y-66223000D01*
G75*
G02*
X161792500Y-66050000I173000J0D01*
G01*
X162138500Y-66050000D01*
G75*
G02*
X162311500Y-66223000I0J-173000D01*
G01*
X162311500Y-66619000D01*
G75*
G02*
X162138500Y-66792000I-173000J0D01*
G01*
X161792500Y-66792000D01*
G75*
G02*
X161619500Y-66619000I0J173000D01*
G01*
G37*
G36*
G01*
X160649500Y-68651000D02*
X160649500Y-68255000D01*
G75*
G02*
X160822500Y-68082000I173000J0D01*
G01*
X161168500Y-68082000D01*
G75*
G02*
X161341500Y-68255000I0J-173000D01*
G01*
X161341500Y-68651000D01*
G75*
G02*
X161168500Y-68824000I-173000J0D01*
G01*
X160822500Y-68824000D01*
G75*
G02*
X160649500Y-68651000I0J173000D01*
G01*
G37*
G36*
G01*
X161619500Y-68651000D02*
X161619500Y-68255000D01*
G75*
G02*
X161792500Y-68082000I173000J0D01*
G01*
X162138500Y-68082000D01*
G75*
G02*
X162311500Y-68255000I0J-173000D01*
G01*
X162311500Y-68651000D01*
G75*
G02*
X162138500Y-68824000I-173000J0D01*
G01*
X161792500Y-68824000D01*
G75*
G02*
X161619500Y-68651000I0J173000D01*
G01*
G37*
G36*
G01*
X160649500Y-70429000D02*
X160649500Y-70033000D01*
G75*
G02*
X160822500Y-69860000I173000J0D01*
G01*
X161168500Y-69860000D01*
G75*
G02*
X161341500Y-70033000I0J-173000D01*
G01*
X161341500Y-70429000D01*
G75*
G02*
X161168500Y-70602000I-173000J0D01*
G01*
X160822500Y-70602000D01*
G75*
G02*
X160649500Y-70429000I0J173000D01*
G01*
G37*
G36*
G01*
X161619500Y-70429000D02*
X161619500Y-70033000D01*
G75*
G02*
X161792500Y-69860000I173000J0D01*
G01*
X162138500Y-69860000D01*
G75*
G02*
X162311500Y-70033000I0J-173000D01*
G01*
X162311500Y-70429000D01*
G75*
G02*
X162138500Y-70602000I-173000J0D01*
G01*
X161792500Y-70602000D01*
G75*
G02*
X161619500Y-70429000I0J173000D01*
G01*
G37*
G36*
G01*
X149103500Y-69779000D02*
X149103500Y-70175000D01*
G75*
G02*
X148930500Y-70348000I-173000J0D01*
G01*
X148584500Y-70348000D01*
G75*
G02*
X148411500Y-70175000I0J173000D01*
G01*
X148411500Y-69779000D01*
G75*
G02*
X148584500Y-69606000I173000J0D01*
G01*
X148930500Y-69606000D01*
G75*
G02*
X149103500Y-69779000I0J-173000D01*
G01*
G37*
G36*
G01*
X148133500Y-69779000D02*
X148133500Y-70175000D01*
G75*
G02*
X147960500Y-70348000I-173000J0D01*
G01*
X147614500Y-70348000D01*
G75*
G02*
X147441500Y-70175000I0J173000D01*
G01*
X147441500Y-69779000D01*
G75*
G02*
X147614500Y-69606000I173000J0D01*
G01*
X147960500Y-69606000D01*
G75*
G02*
X148133500Y-69779000I0J-173000D01*
G01*
G37*
G36*
G01*
X149080500Y-68001000D02*
X149080500Y-68397000D01*
G75*
G02*
X148907500Y-68570000I-173000J0D01*
G01*
X148561500Y-68570000D01*
G75*
G02*
X148388500Y-68397000I0J173000D01*
G01*
X148388500Y-68001000D01*
G75*
G02*
X148561500Y-67828000I173000J0D01*
G01*
X148907500Y-67828000D01*
G75*
G02*
X149080500Y-68001000I0J-173000D01*
G01*
G37*
G36*
G01*
X148110500Y-68001000D02*
X148110500Y-68397000D01*
G75*
G02*
X147937500Y-68570000I-173000J0D01*
G01*
X147591500Y-68570000D01*
G75*
G02*
X147418500Y-68397000I0J173000D01*
G01*
X147418500Y-68001000D01*
G75*
G02*
X147591500Y-67828000I173000J0D01*
G01*
X147937500Y-67828000D01*
G75*
G02*
X148110500Y-68001000I0J-173000D01*
G01*
G37*
G36*
G01*
X149126500Y-65969000D02*
X149126500Y-66365000D01*
G75*
G02*
X148953500Y-66538000I-173000J0D01*
G01*
X148607500Y-66538000D01*
G75*
G02*
X148434500Y-66365000I0J173000D01*
G01*
X148434500Y-65969000D01*
G75*
G02*
X148607500Y-65796000I173000J0D01*
G01*
X148953500Y-65796000D01*
G75*
G02*
X149126500Y-65969000I0J-173000D01*
G01*
G37*
G36*
G01*
X148156500Y-65969000D02*
X148156500Y-66365000D01*
G75*
G02*
X147983500Y-66538000I-173000J0D01*
G01*
X147637500Y-66538000D01*
G75*
G02*
X147464500Y-66365000I0J173000D01*
G01*
X147464500Y-65969000D01*
G75*
G02*
X147637500Y-65796000I173000J0D01*
G01*
X147983500Y-65796000D01*
G75*
G02*
X148156500Y-65969000I0J-173000D01*
G01*
G37*
G36*
G01*
X149103500Y-64191000D02*
X149103500Y-64587000D01*
G75*
G02*
X148930500Y-64760000I-173000J0D01*
G01*
X148584500Y-64760000D01*
G75*
G02*
X148411500Y-64587000I0J173000D01*
G01*
X148411500Y-64191000D01*
G75*
G02*
X148584500Y-64018000I173000J0D01*
G01*
X148930500Y-64018000D01*
G75*
G02*
X149103500Y-64191000I0J-173000D01*
G01*
G37*
G36*
G01*
X148133500Y-64191000D02*
X148133500Y-64587000D01*
G75*
G02*
X147960500Y-64760000I-173000J0D01*
G01*
X147614500Y-64760000D01*
G75*
G02*
X147441500Y-64587000I0J173000D01*
G01*
X147441500Y-64191000D01*
G75*
G02*
X147614500Y-64018000I173000J0D01*
G01*
X147960500Y-64018000D01*
G75*
G02*
X148133500Y-64191000I0J-173000D01*
G01*
G37*
G36*
G01*
X87261000Y-79065000D02*
X87261000Y-78669000D01*
G75*
G02*
X87434000Y-78496000I173000J0D01*
G01*
X87780000Y-78496000D01*
G75*
G02*
X87953000Y-78669000I0J-173000D01*
G01*
X87953000Y-79065000D01*
G75*
G02*
X87780000Y-79238000I-173000J0D01*
G01*
X87434000Y-79238000D01*
G75*
G02*
X87261000Y-79065000I0J173000D01*
G01*
G37*
G36*
G01*
X86291000Y-79065000D02*
X86291000Y-78669000D01*
G75*
G02*
X86464000Y-78496000I173000J0D01*
G01*
X86810000Y-78496000D01*
G75*
G02*
X86983000Y-78669000I0J-173000D01*
G01*
X86983000Y-79065000D01*
G75*
G02*
X86810000Y-79238000I-173000J0D01*
G01*
X86464000Y-79238000D01*
G75*
G02*
X86291000Y-79065000I0J173000D01*
G01*
G37*
G36*
G01*
X87261000Y-80843000D02*
X87261000Y-80447000D01*
G75*
G02*
X87434000Y-80274000I173000J0D01*
G01*
X87780000Y-80274000D01*
G75*
G02*
X87953000Y-80447000I0J-173000D01*
G01*
X87953000Y-80843000D01*
G75*
G02*
X87780000Y-81016000I-173000J0D01*
G01*
X87434000Y-81016000D01*
G75*
G02*
X87261000Y-80843000I0J173000D01*
G01*
G37*
G36*
G01*
X86291000Y-80843000D02*
X86291000Y-80447000D01*
G75*
G02*
X86464000Y-80274000I173000J0D01*
G01*
X86810000Y-80274000D01*
G75*
G02*
X86983000Y-80447000I0J-173000D01*
G01*
X86983000Y-80843000D01*
G75*
G02*
X86810000Y-81016000I-173000J0D01*
G01*
X86464000Y-81016000D01*
G75*
G02*
X86291000Y-80843000I0J173000D01*
G01*
G37*
G36*
G01*
X87238000Y-82875000D02*
X87238000Y-82479000D01*
G75*
G02*
X87411000Y-82306000I173000J0D01*
G01*
X87757000Y-82306000D01*
G75*
G02*
X87930000Y-82479000I0J-173000D01*
G01*
X87930000Y-82875000D01*
G75*
G02*
X87757000Y-83048000I-173000J0D01*
G01*
X87411000Y-83048000D01*
G75*
G02*
X87238000Y-82875000I0J173000D01*
G01*
G37*
G36*
G01*
X86268000Y-82875000D02*
X86268000Y-82479000D01*
G75*
G02*
X86441000Y-82306000I173000J0D01*
G01*
X86787000Y-82306000D01*
G75*
G02*
X86960000Y-82479000I0J-173000D01*
G01*
X86960000Y-82875000D01*
G75*
G02*
X86787000Y-83048000I-173000J0D01*
G01*
X86441000Y-83048000D01*
G75*
G02*
X86268000Y-82875000I0J173000D01*
G01*
G37*
G36*
G01*
X87261000Y-84653000D02*
X87261000Y-84257000D01*
G75*
G02*
X87434000Y-84084000I173000J0D01*
G01*
X87780000Y-84084000D01*
G75*
G02*
X87953000Y-84257000I0J-173000D01*
G01*
X87953000Y-84653000D01*
G75*
G02*
X87780000Y-84826000I-173000J0D01*
G01*
X87434000Y-84826000D01*
G75*
G02*
X87261000Y-84653000I0J173000D01*
G01*
G37*
G36*
G01*
X86291000Y-84653000D02*
X86291000Y-84257000D01*
G75*
G02*
X86464000Y-84084000I173000J0D01*
G01*
X86810000Y-84084000D01*
G75*
G02*
X86983000Y-84257000I0J-173000D01*
G01*
X86983000Y-84653000D01*
G75*
G02*
X86810000Y-84826000I-173000J0D01*
G01*
X86464000Y-84826000D01*
G75*
G02*
X86291000Y-84653000I0J173000D01*
G01*
G37*
G36*
G01*
X71235000Y-84511000D02*
X71235000Y-84907000D01*
G75*
G02*
X71062000Y-85080000I-173000J0D01*
G01*
X70716000Y-85080000D01*
G75*
G02*
X70543000Y-84907000I0J173000D01*
G01*
X70543000Y-84511000D01*
G75*
G02*
X70716000Y-84338000I173000J0D01*
G01*
X71062000Y-84338000D01*
G75*
G02*
X71235000Y-84511000I0J-173000D01*
G01*
G37*
G36*
G01*
X72205000Y-84511000D02*
X72205000Y-84907000D01*
G75*
G02*
X72032000Y-85080000I-173000J0D01*
G01*
X71686000Y-85080000D01*
G75*
G02*
X71513000Y-84907000I0J173000D01*
G01*
X71513000Y-84511000D01*
G75*
G02*
X71686000Y-84338000I173000J0D01*
G01*
X72032000Y-84338000D01*
G75*
G02*
X72205000Y-84511000I0J-173000D01*
G01*
G37*
G36*
G01*
X71235000Y-82733000D02*
X71235000Y-83129000D01*
G75*
G02*
X71062000Y-83302000I-173000J0D01*
G01*
X70716000Y-83302000D01*
G75*
G02*
X70543000Y-83129000I0J173000D01*
G01*
X70543000Y-82733000D01*
G75*
G02*
X70716000Y-82560000I173000J0D01*
G01*
X71062000Y-82560000D01*
G75*
G02*
X71235000Y-82733000I0J-173000D01*
G01*
G37*
G36*
G01*
X72205000Y-82733000D02*
X72205000Y-83129000D01*
G75*
G02*
X72032000Y-83302000I-173000J0D01*
G01*
X71686000Y-83302000D01*
G75*
G02*
X71513000Y-83129000I0J173000D01*
G01*
X71513000Y-82733000D01*
G75*
G02*
X71686000Y-82560000I173000J0D01*
G01*
X72032000Y-82560000D01*
G75*
G02*
X72205000Y-82733000I0J-173000D01*
G01*
G37*
G36*
G01*
X71235000Y-80447000D02*
X71235000Y-80843000D01*
G75*
G02*
X71062000Y-81016000I-173000J0D01*
G01*
X70716000Y-81016000D01*
G75*
G02*
X70543000Y-80843000I0J173000D01*
G01*
X70543000Y-80447000D01*
G75*
G02*
X70716000Y-80274000I173000J0D01*
G01*
X71062000Y-80274000D01*
G75*
G02*
X71235000Y-80447000I0J-173000D01*
G01*
G37*
G36*
G01*
X72205000Y-80447000D02*
X72205000Y-80843000D01*
G75*
G02*
X72032000Y-81016000I-173000J0D01*
G01*
X71686000Y-81016000D01*
G75*
G02*
X71513000Y-80843000I0J173000D01*
G01*
X71513000Y-80447000D01*
G75*
G02*
X71686000Y-80274000I173000J0D01*
G01*
X72032000Y-80274000D01*
G75*
G02*
X72205000Y-80447000I0J-173000D01*
G01*
G37*
G36*
G01*
X71235000Y-78669000D02*
X71235000Y-79065000D01*
G75*
G02*
X71062000Y-79238000I-173000J0D01*
G01*
X70716000Y-79238000D01*
G75*
G02*
X70543000Y-79065000I0J173000D01*
G01*
X70543000Y-78669000D01*
G75*
G02*
X70716000Y-78496000I173000J0D01*
G01*
X71062000Y-78496000D01*
G75*
G02*
X71235000Y-78669000I0J-173000D01*
G01*
G37*
G36*
G01*
X72205000Y-78669000D02*
X72205000Y-79065000D01*
G75*
G02*
X72032000Y-79238000I-173000J0D01*
G01*
X71686000Y-79238000D01*
G75*
G02*
X71513000Y-79065000I0J173000D01*
G01*
X71513000Y-78669000D01*
G75*
G02*
X71686000Y-78496000I173000J0D01*
G01*
X72032000Y-78496000D01*
G75*
G02*
X72205000Y-78669000I0J-173000D01*
G01*
G37*
G36*
G01*
X135307000Y-98219500D02*
X135307000Y-97868500D01*
G75*
G02*
X135482500Y-97693000I175500J0D01*
G01*
X137183500Y-97693000D01*
G75*
G02*
X137359000Y-97868500I0J-175500D01*
G01*
X137359000Y-98219500D01*
G75*
G02*
X137183500Y-98395000I-175500J0D01*
G01*
X135482500Y-98395000D01*
G75*
G02*
X135307000Y-98219500I0J175500D01*
G01*
G37*
G36*
G01*
X135307000Y-99489500D02*
X135307000Y-99138500D01*
G75*
G02*
X135482500Y-98963000I175500J0D01*
G01*
X137183500Y-98963000D01*
G75*
G02*
X137359000Y-99138500I0J-175500D01*
G01*
X137359000Y-99489500D01*
G75*
G02*
X137183500Y-99665000I-175500J0D01*
G01*
X135482500Y-99665000D01*
G75*
G02*
X135307000Y-99489500I0J175500D01*
G01*
G37*
G36*
G01*
X135307000Y-100759500D02*
X135307000Y-100408500D01*
G75*
G02*
X135482500Y-100233000I175500J0D01*
G01*
X137183500Y-100233000D01*
G75*
G02*
X137359000Y-100408500I0J-175500D01*
G01*
X137359000Y-100759500D01*
G75*
G02*
X137183500Y-100935000I-175500J0D01*
G01*
X135482500Y-100935000D01*
G75*
G02*
X135307000Y-100759500I0J175500D01*
G01*
G37*
G36*
G01*
X135307000Y-102029500D02*
X135307000Y-101678500D01*
G75*
G02*
X135482500Y-101503000I175500J0D01*
G01*
X137183500Y-101503000D01*
G75*
G02*
X137359000Y-101678500I0J-175500D01*
G01*
X137359000Y-102029500D01*
G75*
G02*
X137183500Y-102205000I-175500J0D01*
G01*
X135482500Y-102205000D01*
G75*
G02*
X135307000Y-102029500I0J175500D01*
G01*
G37*
G36*
G01*
X135307000Y-103299500D02*
X135307000Y-102948500D01*
G75*
G02*
X135482500Y-102773000I175500J0D01*
G01*
X137183500Y-102773000D01*
G75*
G02*
X137359000Y-102948500I0J-175500D01*
G01*
X137359000Y-103299500D01*
G75*
G02*
X137183500Y-103475000I-175500J0D01*
G01*
X135482500Y-103475000D01*
G75*
G02*
X135307000Y-103299500I0J175500D01*
G01*
G37*
G36*
G01*
X135307000Y-104569500D02*
X135307000Y-104218500D01*
G75*
G02*
X135482500Y-104043000I175500J0D01*
G01*
X137183500Y-104043000D01*
G75*
G02*
X137359000Y-104218500I0J-175500D01*
G01*
X137359000Y-104569500D01*
G75*
G02*
X137183500Y-104745000I-175500J0D01*
G01*
X135482500Y-104745000D01*
G75*
G02*
X135307000Y-104569500I0J175500D01*
G01*
G37*
G36*
G01*
X135307000Y-105839500D02*
X135307000Y-105488500D01*
G75*
G02*
X135482500Y-105313000I175500J0D01*
G01*
X137183500Y-105313000D01*
G75*
G02*
X137359000Y-105488500I0J-175500D01*
G01*
X137359000Y-105839500D01*
G75*
G02*
X137183500Y-106015000I-175500J0D01*
G01*
X135482500Y-106015000D01*
G75*
G02*
X135307000Y-105839500I0J175500D01*
G01*
G37*
G36*
G01*
X135307000Y-107109500D02*
X135307000Y-106758500D01*
G75*
G02*
X135482500Y-106583000I175500J0D01*
G01*
X137183500Y-106583000D01*
G75*
G02*
X137359000Y-106758500I0J-175500D01*
G01*
X137359000Y-107109500D01*
G75*
G02*
X137183500Y-107285000I-175500J0D01*
G01*
X135482500Y-107285000D01*
G75*
G02*
X135307000Y-107109500I0J175500D01*
G01*
G37*
G36*
G01*
X130357000Y-107109500D02*
X130357000Y-106758500D01*
G75*
G02*
X130532500Y-106583000I175500J0D01*
G01*
X132233500Y-106583000D01*
G75*
G02*
X132409000Y-106758500I0J-175500D01*
G01*
X132409000Y-107109500D01*
G75*
G02*
X132233500Y-107285000I-175500J0D01*
G01*
X130532500Y-107285000D01*
G75*
G02*
X130357000Y-107109500I0J175500D01*
G01*
G37*
G36*
G01*
X130357000Y-105839500D02*
X130357000Y-105488500D01*
G75*
G02*
X130532500Y-105313000I175500J0D01*
G01*
X132233500Y-105313000D01*
G75*
G02*
X132409000Y-105488500I0J-175500D01*
G01*
X132409000Y-105839500D01*
G75*
G02*
X132233500Y-106015000I-175500J0D01*
G01*
X130532500Y-106015000D01*
G75*
G02*
X130357000Y-105839500I0J175500D01*
G01*
G37*
G36*
G01*
X130357000Y-104569500D02*
X130357000Y-104218500D01*
G75*
G02*
X130532500Y-104043000I175500J0D01*
G01*
X132233500Y-104043000D01*
G75*
G02*
X132409000Y-104218500I0J-175500D01*
G01*
X132409000Y-104569500D01*
G75*
G02*
X132233500Y-104745000I-175500J0D01*
G01*
X130532500Y-104745000D01*
G75*
G02*
X130357000Y-104569500I0J175500D01*
G01*
G37*
G36*
G01*
X130357000Y-103299500D02*
X130357000Y-102948500D01*
G75*
G02*
X130532500Y-102773000I175500J0D01*
G01*
X132233500Y-102773000D01*
G75*
G02*
X132409000Y-102948500I0J-175500D01*
G01*
X132409000Y-103299500D01*
G75*
G02*
X132233500Y-103475000I-175500J0D01*
G01*
X130532500Y-103475000D01*
G75*
G02*
X130357000Y-103299500I0J175500D01*
G01*
G37*
G36*
G01*
X130357000Y-102029500D02*
X130357000Y-101678500D01*
G75*
G02*
X130532500Y-101503000I175500J0D01*
G01*
X132233500Y-101503000D01*
G75*
G02*
X132409000Y-101678500I0J-175500D01*
G01*
X132409000Y-102029500D01*
G75*
G02*
X132233500Y-102205000I-175500J0D01*
G01*
X130532500Y-102205000D01*
G75*
G02*
X130357000Y-102029500I0J175500D01*
G01*
G37*
G36*
G01*
X130357000Y-100759500D02*
X130357000Y-100408500D01*
G75*
G02*
X130532500Y-100233000I175500J0D01*
G01*
X132233500Y-100233000D01*
G75*
G02*
X132409000Y-100408500I0J-175500D01*
G01*
X132409000Y-100759500D01*
G75*
G02*
X132233500Y-100935000I-175500J0D01*
G01*
X130532500Y-100935000D01*
G75*
G02*
X130357000Y-100759500I0J175500D01*
G01*
G37*
G36*
G01*
X130357000Y-99489500D02*
X130357000Y-99138500D01*
G75*
G02*
X130532500Y-98963000I175500J0D01*
G01*
X132233500Y-98963000D01*
G75*
G02*
X132409000Y-99138500I0J-175500D01*
G01*
X132409000Y-99489500D01*
G75*
G02*
X132233500Y-99665000I-175500J0D01*
G01*
X130532500Y-99665000D01*
G75*
G02*
X130357000Y-99489500I0J175500D01*
G01*
G37*
G36*
G01*
X130357000Y-98219500D02*
X130357000Y-97868500D01*
G75*
G02*
X130532500Y-97693000I175500J0D01*
G01*
X132233500Y-97693000D01*
G75*
G02*
X132409000Y-97868500I0J-175500D01*
G01*
X132409000Y-98219500D01*
G75*
G02*
X132233500Y-98395000I-175500J0D01*
G01*
X130532500Y-98395000D01*
G75*
G02*
X130357000Y-98219500I0J175500D01*
G01*
G37*
G36*
G01*
X158504500Y-71706500D02*
X158504500Y-72057500D01*
G75*
G02*
X158329000Y-72233000I-175500J0D01*
G01*
X156628000Y-72233000D01*
G75*
G02*
X156452500Y-72057500I0J175500D01*
G01*
X156452500Y-71706500D01*
G75*
G02*
X156628000Y-71531000I175500J0D01*
G01*
X158329000Y-71531000D01*
G75*
G02*
X158504500Y-71706500I0J-175500D01*
G01*
G37*
G36*
G01*
X158504500Y-70436500D02*
X158504500Y-70787500D01*
G75*
G02*
X158329000Y-70963000I-175500J0D01*
G01*
X156628000Y-70963000D01*
G75*
G02*
X156452500Y-70787500I0J175500D01*
G01*
X156452500Y-70436500D01*
G75*
G02*
X156628000Y-70261000I175500J0D01*
G01*
X158329000Y-70261000D01*
G75*
G02*
X158504500Y-70436500I0J-175500D01*
G01*
G37*
G36*
G01*
X158504500Y-69166500D02*
X158504500Y-69517500D01*
G75*
G02*
X158329000Y-69693000I-175500J0D01*
G01*
X156628000Y-69693000D01*
G75*
G02*
X156452500Y-69517500I0J175500D01*
G01*
X156452500Y-69166500D01*
G75*
G02*
X156628000Y-68991000I175500J0D01*
G01*
X158329000Y-68991000D01*
G75*
G02*
X158504500Y-69166500I0J-175500D01*
G01*
G37*
G36*
G01*
X158504500Y-67896500D02*
X158504500Y-68247500D01*
G75*
G02*
X158329000Y-68423000I-175500J0D01*
G01*
X156628000Y-68423000D01*
G75*
G02*
X156452500Y-68247500I0J175500D01*
G01*
X156452500Y-67896500D01*
G75*
G02*
X156628000Y-67721000I175500J0D01*
G01*
X158329000Y-67721000D01*
G75*
G02*
X158504500Y-67896500I0J-175500D01*
G01*
G37*
G36*
G01*
X158504500Y-66626500D02*
X158504500Y-66977500D01*
G75*
G02*
X158329000Y-67153000I-175500J0D01*
G01*
X156628000Y-67153000D01*
G75*
G02*
X156452500Y-66977500I0J175500D01*
G01*
X156452500Y-66626500D01*
G75*
G02*
X156628000Y-66451000I175500J0D01*
G01*
X158329000Y-66451000D01*
G75*
G02*
X158504500Y-66626500I0J-175500D01*
G01*
G37*
G36*
G01*
X158504500Y-65356500D02*
X158504500Y-65707500D01*
G75*
G02*
X158329000Y-65883000I-175500J0D01*
G01*
X156628000Y-65883000D01*
G75*
G02*
X156452500Y-65707500I0J175500D01*
G01*
X156452500Y-65356500D01*
G75*
G02*
X156628000Y-65181000I175500J0D01*
G01*
X158329000Y-65181000D01*
G75*
G02*
X158504500Y-65356500I0J-175500D01*
G01*
G37*
G36*
G01*
X158504500Y-64086500D02*
X158504500Y-64437500D01*
G75*
G02*
X158329000Y-64613000I-175500J0D01*
G01*
X156628000Y-64613000D01*
G75*
G02*
X156452500Y-64437500I0J175500D01*
G01*
X156452500Y-64086500D01*
G75*
G02*
X156628000Y-63911000I175500J0D01*
G01*
X158329000Y-63911000D01*
G75*
G02*
X158504500Y-64086500I0J-175500D01*
G01*
G37*
G36*
G01*
X158504500Y-62816500D02*
X158504500Y-63167500D01*
G75*
G02*
X158329000Y-63343000I-175500J0D01*
G01*
X156628000Y-63343000D01*
G75*
G02*
X156452500Y-63167500I0J175500D01*
G01*
X156452500Y-62816500D01*
G75*
G02*
X156628000Y-62641000I175500J0D01*
G01*
X158329000Y-62641000D01*
G75*
G02*
X158504500Y-62816500I0J-175500D01*
G01*
G37*
G36*
G01*
X153554500Y-62816500D02*
X153554500Y-63167500D01*
G75*
G02*
X153379000Y-63343000I-175500J0D01*
G01*
X151678000Y-63343000D01*
G75*
G02*
X151502500Y-63167500I0J175500D01*
G01*
X151502500Y-62816500D01*
G75*
G02*
X151678000Y-62641000I175500J0D01*
G01*
X153379000Y-62641000D01*
G75*
G02*
X153554500Y-62816500I0J-175500D01*
G01*
G37*
G36*
G01*
X153554500Y-64086500D02*
X153554500Y-64437500D01*
G75*
G02*
X153379000Y-64613000I-175500J0D01*
G01*
X151678000Y-64613000D01*
G75*
G02*
X151502500Y-64437500I0J175500D01*
G01*
X151502500Y-64086500D01*
G75*
G02*
X151678000Y-63911000I175500J0D01*
G01*
X153379000Y-63911000D01*
G75*
G02*
X153554500Y-64086500I0J-175500D01*
G01*
G37*
G36*
G01*
X153554500Y-65356500D02*
X153554500Y-65707500D01*
G75*
G02*
X153379000Y-65883000I-175500J0D01*
G01*
X151678000Y-65883000D01*
G75*
G02*
X151502500Y-65707500I0J175500D01*
G01*
X151502500Y-65356500D01*
G75*
G02*
X151678000Y-65181000I175500J0D01*
G01*
X153379000Y-65181000D01*
G75*
G02*
X153554500Y-65356500I0J-175500D01*
G01*
G37*
G36*
G01*
X153554500Y-66626500D02*
X153554500Y-66977500D01*
G75*
G02*
X153379000Y-67153000I-175500J0D01*
G01*
X151678000Y-67153000D01*
G75*
G02*
X151502500Y-66977500I0J175500D01*
G01*
X151502500Y-66626500D01*
G75*
G02*
X151678000Y-66451000I175500J0D01*
G01*
X153379000Y-66451000D01*
G75*
G02*
X153554500Y-66626500I0J-175500D01*
G01*
G37*
G36*
G01*
X153554500Y-67896500D02*
X153554500Y-68247500D01*
G75*
G02*
X153379000Y-68423000I-175500J0D01*
G01*
X151678000Y-68423000D01*
G75*
G02*
X151502500Y-68247500I0J175500D01*
G01*
X151502500Y-67896500D01*
G75*
G02*
X151678000Y-67721000I175500J0D01*
G01*
X153379000Y-67721000D01*
G75*
G02*
X153554500Y-67896500I0J-175500D01*
G01*
G37*
G36*
G01*
X153554500Y-69166500D02*
X153554500Y-69517500D01*
G75*
G02*
X153379000Y-69693000I-175500J0D01*
G01*
X151678000Y-69693000D01*
G75*
G02*
X151502500Y-69517500I0J175500D01*
G01*
X151502500Y-69166500D01*
G75*
G02*
X151678000Y-68991000I175500J0D01*
G01*
X153379000Y-68991000D01*
G75*
G02*
X153554500Y-69166500I0J-175500D01*
G01*
G37*
G36*
G01*
X153554500Y-70436500D02*
X153554500Y-70787500D01*
G75*
G02*
X153379000Y-70963000I-175500J0D01*
G01*
X151678000Y-70963000D01*
G75*
G02*
X151502500Y-70787500I0J175500D01*
G01*
X151502500Y-70436500D01*
G75*
G02*
X151678000Y-70261000I175500J0D01*
G01*
X153379000Y-70261000D01*
G75*
G02*
X153554500Y-70436500I0J-175500D01*
G01*
G37*
G36*
G01*
X153554500Y-71706500D02*
X153554500Y-72057500D01*
G75*
G02*
X153379000Y-72233000I-175500J0D01*
G01*
X151678000Y-72233000D01*
G75*
G02*
X151502500Y-72057500I0J175500D01*
G01*
X151502500Y-71706500D01*
G75*
G02*
X151678000Y-71531000I175500J0D01*
G01*
X153379000Y-71531000D01*
G75*
G02*
X153554500Y-71706500I0J-175500D01*
G01*
G37*
G36*
G01*
X77672000Y-86057500D02*
X77672000Y-86408500D01*
G75*
G02*
X77496500Y-86584000I-175500J0D01*
G01*
X75795500Y-86584000D01*
G75*
G02*
X75620000Y-86408500I0J175500D01*
G01*
X75620000Y-86057500D01*
G75*
G02*
X75795500Y-85882000I175500J0D01*
G01*
X77496500Y-85882000D01*
G75*
G02*
X77672000Y-86057500I0J-175500D01*
G01*
G37*
G36*
G01*
X77672000Y-84787500D02*
X77672000Y-85138500D01*
G75*
G02*
X77496500Y-85314000I-175500J0D01*
G01*
X75795500Y-85314000D01*
G75*
G02*
X75620000Y-85138500I0J175500D01*
G01*
X75620000Y-84787500D01*
G75*
G02*
X75795500Y-84612000I175500J0D01*
G01*
X77496500Y-84612000D01*
G75*
G02*
X77672000Y-84787500I0J-175500D01*
G01*
G37*
G36*
G01*
X77672000Y-83517500D02*
X77672000Y-83868500D01*
G75*
G02*
X77496500Y-84044000I-175500J0D01*
G01*
X75795500Y-84044000D01*
G75*
G02*
X75620000Y-83868500I0J175500D01*
G01*
X75620000Y-83517500D01*
G75*
G02*
X75795500Y-83342000I175500J0D01*
G01*
X77496500Y-83342000D01*
G75*
G02*
X77672000Y-83517500I0J-175500D01*
G01*
G37*
G36*
G01*
X77672000Y-82247500D02*
X77672000Y-82598500D01*
G75*
G02*
X77496500Y-82774000I-175500J0D01*
G01*
X75795500Y-82774000D01*
G75*
G02*
X75620000Y-82598500I0J175500D01*
G01*
X75620000Y-82247500D01*
G75*
G02*
X75795500Y-82072000I175500J0D01*
G01*
X77496500Y-82072000D01*
G75*
G02*
X77672000Y-82247500I0J-175500D01*
G01*
G37*
G36*
G01*
X77672000Y-80977500D02*
X77672000Y-81328500D01*
G75*
G02*
X77496500Y-81504000I-175500J0D01*
G01*
X75795500Y-81504000D01*
G75*
G02*
X75620000Y-81328500I0J175500D01*
G01*
X75620000Y-80977500D01*
G75*
G02*
X75795500Y-80802000I175500J0D01*
G01*
X77496500Y-80802000D01*
G75*
G02*
X77672000Y-80977500I0J-175500D01*
G01*
G37*
G36*
G01*
X77672000Y-79707500D02*
X77672000Y-80058500D01*
G75*
G02*
X77496500Y-80234000I-175500J0D01*
G01*
X75795500Y-80234000D01*
G75*
G02*
X75620000Y-80058500I0J175500D01*
G01*
X75620000Y-79707500D01*
G75*
G02*
X75795500Y-79532000I175500J0D01*
G01*
X77496500Y-79532000D01*
G75*
G02*
X77672000Y-79707500I0J-175500D01*
G01*
G37*
G36*
G01*
X77672000Y-78437500D02*
X77672000Y-78788500D01*
G75*
G02*
X77496500Y-78964000I-175500J0D01*
G01*
X75795500Y-78964000D01*
G75*
G02*
X75620000Y-78788500I0J175500D01*
G01*
X75620000Y-78437500D01*
G75*
G02*
X75795500Y-78262000I175500J0D01*
G01*
X77496500Y-78262000D01*
G75*
G02*
X77672000Y-78437500I0J-175500D01*
G01*
G37*
G36*
G01*
X77672000Y-77167500D02*
X77672000Y-77518500D01*
G75*
G02*
X77496500Y-77694000I-175500J0D01*
G01*
X75795500Y-77694000D01*
G75*
G02*
X75620000Y-77518500I0J175500D01*
G01*
X75620000Y-77167500D01*
G75*
G02*
X75795500Y-76992000I175500J0D01*
G01*
X77496500Y-76992000D01*
G75*
G02*
X77672000Y-77167500I0J-175500D01*
G01*
G37*
G36*
G01*
X82622000Y-77167500D02*
X82622000Y-77518500D01*
G75*
G02*
X82446500Y-77694000I-175500J0D01*
G01*
X80745500Y-77694000D01*
G75*
G02*
X80570000Y-77518500I0J175500D01*
G01*
X80570000Y-77167500D01*
G75*
G02*
X80745500Y-76992000I175500J0D01*
G01*
X82446500Y-76992000D01*
G75*
G02*
X82622000Y-77167500I0J-175500D01*
G01*
G37*
G36*
G01*
X82622000Y-78437500D02*
X82622000Y-78788500D01*
G75*
G02*
X82446500Y-78964000I-175500J0D01*
G01*
X80745500Y-78964000D01*
G75*
G02*
X80570000Y-78788500I0J175500D01*
G01*
X80570000Y-78437500D01*
G75*
G02*
X80745500Y-78262000I175500J0D01*
G01*
X82446500Y-78262000D01*
G75*
G02*
X82622000Y-78437500I0J-175500D01*
G01*
G37*
G36*
G01*
X82622000Y-79707500D02*
X82622000Y-80058500D01*
G75*
G02*
X82446500Y-80234000I-175500J0D01*
G01*
X80745500Y-80234000D01*
G75*
G02*
X80570000Y-80058500I0J175500D01*
G01*
X80570000Y-79707500D01*
G75*
G02*
X80745500Y-79532000I175500J0D01*
G01*
X82446500Y-79532000D01*
G75*
G02*
X82622000Y-79707500I0J-175500D01*
G01*
G37*
G36*
G01*
X82622000Y-80977500D02*
X82622000Y-81328500D01*
G75*
G02*
X82446500Y-81504000I-175500J0D01*
G01*
X80745500Y-81504000D01*
G75*
G02*
X80570000Y-81328500I0J175500D01*
G01*
X80570000Y-80977500D01*
G75*
G02*
X80745500Y-80802000I175500J0D01*
G01*
X82446500Y-80802000D01*
G75*
G02*
X82622000Y-80977500I0J-175500D01*
G01*
G37*
G36*
G01*
X82622000Y-82247500D02*
X82622000Y-82598500D01*
G75*
G02*
X82446500Y-82774000I-175500J0D01*
G01*
X80745500Y-82774000D01*
G75*
G02*
X80570000Y-82598500I0J175500D01*
G01*
X80570000Y-82247500D01*
G75*
G02*
X80745500Y-82072000I175500J0D01*
G01*
X82446500Y-82072000D01*
G75*
G02*
X82622000Y-82247500I0J-175500D01*
G01*
G37*
G36*
G01*
X82622000Y-83517500D02*
X82622000Y-83868500D01*
G75*
G02*
X82446500Y-84044000I-175500J0D01*
G01*
X80745500Y-84044000D01*
G75*
G02*
X80570000Y-83868500I0J175500D01*
G01*
X80570000Y-83517500D01*
G75*
G02*
X80745500Y-83342000I175500J0D01*
G01*
X82446500Y-83342000D01*
G75*
G02*
X82622000Y-83517500I0J-175500D01*
G01*
G37*
G36*
G01*
X82622000Y-84787500D02*
X82622000Y-85138500D01*
G75*
G02*
X82446500Y-85314000I-175500J0D01*
G01*
X80745500Y-85314000D01*
G75*
G02*
X80570000Y-85138500I0J175500D01*
G01*
X80570000Y-84787500D01*
G75*
G02*
X80745500Y-84612000I175500J0D01*
G01*
X82446500Y-84612000D01*
G75*
G02*
X82622000Y-84787500I0J-175500D01*
G01*
G37*
G36*
G01*
X82622000Y-86057500D02*
X82622000Y-86408500D01*
G75*
G02*
X82446500Y-86584000I-175500J0D01*
G01*
X80745500Y-86584000D01*
G75*
G02*
X80570000Y-86408500I0J175500D01*
G01*
X80570000Y-86057500D01*
G75*
G02*
X80745500Y-85882000I175500J0D01*
G01*
X82446500Y-85882000D01*
G75*
G02*
X82622000Y-86057500I0J-175500D01*
G01*
G37*
G36*
G01*
X74366000Y-86348000D02*
X73970000Y-86348000D01*
G75*
G02*
X73797000Y-86175000I0J173000D01*
G01*
X73797000Y-85829000D01*
G75*
G02*
X73970000Y-85656000I173000J0D01*
G01*
X74366000Y-85656000D01*
G75*
G02*
X74539000Y-85829000I0J-173000D01*
G01*
X74539000Y-86175000D01*
G75*
G02*
X74366000Y-86348000I-173000J0D01*
G01*
G37*
G36*
G01*
X74366000Y-87318000D02*
X73970000Y-87318000D01*
G75*
G02*
X73797000Y-87145000I0J173000D01*
G01*
X73797000Y-86799000D01*
G75*
G02*
X73970000Y-86626000I173000J0D01*
G01*
X74366000Y-86626000D01*
G75*
G02*
X74539000Y-86799000I0J-173000D01*
G01*
X74539000Y-87145000D01*
G75*
G02*
X74366000Y-87318000I-173000J0D01*
G01*
G37*
G36*
G01*
X138740000Y-97444000D02*
X139136000Y-97444000D01*
G75*
G02*
X139309000Y-97617000I0J-173000D01*
G01*
X139309000Y-97963000D01*
G75*
G02*
X139136000Y-98136000I-173000J0D01*
G01*
X138740000Y-98136000D01*
G75*
G02*
X138567000Y-97963000I0J173000D01*
G01*
X138567000Y-97617000D01*
G75*
G02*
X138740000Y-97444000I173000J0D01*
G01*
G37*
G36*
G01*
X138740000Y-96474000D02*
X139136000Y-96474000D01*
G75*
G02*
X139309000Y-96647000I0J-173000D01*
G01*
X139309000Y-96993000D01*
G75*
G02*
X139136000Y-97166000I-173000J0D01*
G01*
X138740000Y-97166000D01*
G75*
G02*
X138567000Y-96993000I0J173000D01*
G01*
X138567000Y-96647000D01*
G75*
G02*
X138740000Y-96474000I173000J0D01*
G01*
G37*
G36*
G01*
X150121500Y-72840000D02*
X149725500Y-72840000D01*
G75*
G02*
X149552500Y-72667000I0J173000D01*
G01*
X149552500Y-72321000D01*
G75*
G02*
X149725500Y-72148000I173000J0D01*
G01*
X150121500Y-72148000D01*
G75*
G02*
X150294500Y-72321000I0J-173000D01*
G01*
X150294500Y-72667000D01*
G75*
G02*
X150121500Y-72840000I-173000J0D01*
G01*
G37*
G36*
G01*
X150121500Y-71870000D02*
X149725500Y-71870000D01*
G75*
G02*
X149552500Y-71697000I0J173000D01*
G01*
X149552500Y-71351000D01*
G75*
G02*
X149725500Y-71178000I173000J0D01*
G01*
X150121500Y-71178000D01*
G75*
G02*
X150294500Y-71351000I0J-173000D01*
G01*
X150294500Y-71697000D01*
G75*
G02*
X150121500Y-71870000I-173000J0D01*
G01*
G37*
M02*
