M48
; DRILL file {KiCad (5.1.8)-1} date 11/27/22 21:23:22
; FORMAT={-:-/ absolute / inch / decimal}
; #@! TF.CreationDate,2022-11-27T21:23:22+01:00
; #@! TF.GenerationSoftware,Kicad,Pcbnew,(5.1.8)-1
; #@! TF.FileFunction,Plated,1,2,PTH
FMAT,2
INCH
T1C0.0157
T2C0.0197
T3C0.0300
T4C0.0394
T5C0.0512
T6C0.0984
T7C0.1378
%
G90
G05
T1
X3.04Y-2.9875
X3.205Y-2.9875
X3.3075Y-2.93
X3.355Y-3.365
X3.6175Y-3.0725
X3.66Y-3.0825
X3.685Y-3.0049
X3.7325Y-3.0049
X5.0975Y-4.41
X5.125Y-4.365
X5.17Y-3.78
X5.21Y-3.72
X5.28Y-3.66
X5.32Y-3.7
X5.3525Y-3.5375
X5.48Y-3.6575
X5.535Y-3.555
X5.575Y-4.365
X5.63Y-2.495
X5.6325Y-2.4225
X5.66Y-4.22
X5.685Y-2.425
X5.685Y-2.4926
X5.6875Y-3.44
X5.7125Y-4.05
T2
X2.8675Y-2.945
X2.89Y-3.485
X2.8903Y-3.1672
X2.91Y-3.2686
X2.9175Y-2.7975
X2.92Y-2.6825
X3.11Y-3.225
X3.1325Y-2.8
X3.3Y-3.025
X3.3025Y-2.5704
X3.3025Y-2.825
X3.32Y-3.1686
X3.32Y-3.265
X4.9875Y-3.6025
X5.0589Y-4.0775
X5.0594Y-3.9819
X5.0975Y-4.1874
X5.15Y-3.6025
X5.17Y-4.28
X5.385Y-3.3325
X5.45Y-3.97
X5.4506Y-4.0881
X5.47Y-3.76
X5.53Y-3.85
X5.8375Y-2.825
X5.9075Y-2.695
X5.9175Y-2.585
X6.0975Y-2.675
X6.2025Y-2.4225
X6.2775Y-2.715
X6.2875Y-2.585
T3
X4.98Y-4.625
X5.08Y-4.625
X5.18Y-4.625
X5.28Y-4.625
X5.38Y-4.625
X5.48Y-4.625
T4
X5.2475Y-2.1725
X5.25Y-1.6
X5.3475Y-2.1725
X5.4475Y-2.1725
X5.45Y-1.6
X6.7725Y-2.1725
X6.775Y-1.6
X6.8725Y-2.1725
X6.9725Y-2.1725
X6.975Y-1.6
X3.7225Y-3.2225
X3.725Y-2.65
X3.8225Y-3.2225
X3.9225Y-3.2225
X3.925Y-2.65
X5.2475Y-3.2225
X5.25Y-2.65
X5.3475Y-3.2225
X5.4475Y-3.2225
X5.45Y-2.65
X6.7725Y-3.2225
X6.775Y-2.65
X6.8725Y-3.2225
X6.9725Y-3.2225
X6.975Y-2.65
X3.7225Y-2.1725
X3.725Y-1.6
X3.8225Y-2.1725
X3.9225Y-2.1725
X3.925Y-1.6
T5
X7.2789Y-3.7516
X7.2789Y-3.9484
X7.7711Y-3.7516
X7.7711Y-3.9484
X4.2289Y-3.7516
X4.2289Y-3.9484
X4.7211Y-3.7516
X4.7211Y-3.9484
X6.6289Y-3.7516
X6.6289Y-3.9484
X7.1211Y-3.7516
X7.1211Y-3.9484
X2.9289Y-3.7516
X2.9289Y-3.9484
X3.4211Y-3.7516
X3.4211Y-3.9484
X7.2789Y-4.2516
X7.2789Y-4.4484
X7.7711Y-4.2516
X7.7711Y-4.4484
X2.9289Y-4.2516
X2.9289Y-4.4484
X3.4211Y-4.2516
X3.4211Y-4.4484
X3.5789Y-4.2516
X3.5789Y-4.4484
X4.0711Y-4.2516
X4.0711Y-4.4484
X5.9789Y-3.7516
X5.9789Y-3.9484
X6.4711Y-3.7516
X6.4711Y-3.9484
X5.9789Y-4.2516
X5.9789Y-4.4484
X6.4711Y-4.2516
X6.4711Y-4.4484
X4.2289Y-4.2516
X4.2289Y-4.4484
X4.7211Y-4.2516
X4.7211Y-4.4484
X6.6289Y-4.2516
X6.6289Y-4.4484
X7.1211Y-4.2516
X7.1211Y-4.4484
X3.5789Y-3.7516
X3.5789Y-3.9484
X4.0711Y-3.7516
X4.0711Y-3.9484
T6
X3.5691Y-1.8725
X4.0809Y-1.8725
X5.0941Y-1.8725
X5.6059Y-1.8725
X6.6191Y-1.8725
X7.1309Y-1.8725
X3.5691Y-2.9225
X4.0809Y-2.9225
X5.0941Y-2.9225
X5.6059Y-2.9225
X6.6191Y-2.9225
X7.1309Y-2.9225
T7
X2.815Y-2.425
X2.815Y-4.625
X5.33Y-2.425
X7.88Y-1.45
X7.88Y-4.625
T0
M30
