G04 #@! TF.GenerationSoftware,KiCad,Pcbnew,(5.1.8)-1*
G04 #@! TF.CreationDate,2022-11-27T21:23:24+01:00*
G04 #@! TF.ProjectId,pfm3_ctrl,70666d33-5f63-4747-926c-2e6b69636164,rev?*
G04 #@! TF.SameCoordinates,Original*
G04 #@! TF.FileFunction,Legend,Bot*
G04 #@! TF.FilePolarity,Positive*
%FSLAX46Y46*%
G04 Gerber Fmt 4.6, Leading zero omitted, Abs format (unit mm)*
G04 Created by KiCad (PCBNEW (5.1.8)-1) date 2022-11-27 21:23:24*
%MOMM*%
%LPD*%
G01*
G04 APERTURE LIST*
%ADD10C,0.120000*%
%ADD11C,0.150000*%
G04 APERTURE END LIST*
D10*
X127762000Y-116205000D02*
X127762000Y-118745000D01*
X140462000Y-118745000D02*
X125222000Y-118745000D01*
X140462000Y-116205000D02*
X140462000Y-118745000D01*
X125222000Y-116205000D02*
X140462000Y-116205000D01*
X125222000Y-118745000D02*
X125222000Y-116205000D01*
D11*
X139365809Y-119165714D02*
X139365809Y-120165714D01*
X139365809Y-119213333D02*
X139270571Y-119165714D01*
X139080095Y-119165714D01*
X138984857Y-119213333D01*
X138937238Y-119260952D01*
X138889619Y-119356190D01*
X138889619Y-119641904D01*
X138937238Y-119737142D01*
X138984857Y-119784761D01*
X139080095Y-119832380D01*
X139270571Y-119832380D01*
X139365809Y-119784761D01*
X138603904Y-119165714D02*
X138222952Y-119165714D01*
X138461047Y-119832380D02*
X138461047Y-118975238D01*
X138413428Y-118880000D01*
X138318190Y-118832380D01*
X138222952Y-118832380D01*
X137889619Y-119832380D02*
X137889619Y-119165714D01*
X137889619Y-119260952D02*
X137842000Y-119213333D01*
X137746761Y-119165714D01*
X137603904Y-119165714D01*
X137508666Y-119213333D01*
X137461047Y-119308571D01*
X137461047Y-119832380D01*
X137461047Y-119308571D02*
X137413428Y-119213333D01*
X137318190Y-119165714D01*
X137175333Y-119165714D01*
X137080095Y-119213333D01*
X137032476Y-119308571D01*
X137032476Y-119832380D01*
X136651523Y-118832380D02*
X136032476Y-118832380D01*
X136365809Y-119213333D01*
X136222952Y-119213333D01*
X136127714Y-119260952D01*
X136080095Y-119308571D01*
X136032476Y-119403809D01*
X136032476Y-119641904D01*
X136080095Y-119737142D01*
X136127714Y-119784761D01*
X136222952Y-119832380D01*
X136508666Y-119832380D01*
X136603904Y-119784761D01*
X136651523Y-119737142D01*
X135032476Y-119737142D02*
X135080095Y-119784761D01*
X135222952Y-119832380D01*
X135318190Y-119832380D01*
X135461047Y-119784761D01*
X135556285Y-119689523D01*
X135603904Y-119594285D01*
X135651523Y-119403809D01*
X135651523Y-119260952D01*
X135603904Y-119070476D01*
X135556285Y-118975238D01*
X135461047Y-118880000D01*
X135318190Y-118832380D01*
X135222952Y-118832380D01*
X135080095Y-118880000D01*
X135032476Y-118927619D01*
X134461047Y-119832380D02*
X134556285Y-119784761D01*
X134603904Y-119737142D01*
X134651523Y-119641904D01*
X134651523Y-119356190D01*
X134603904Y-119260952D01*
X134556285Y-119213333D01*
X134461047Y-119165714D01*
X134318190Y-119165714D01*
X134222952Y-119213333D01*
X134175333Y-119260952D01*
X134127714Y-119356190D01*
X134127714Y-119641904D01*
X134175333Y-119737142D01*
X134222952Y-119784761D01*
X134318190Y-119832380D01*
X134461047Y-119832380D01*
X133699142Y-119165714D02*
X133699142Y-119832380D01*
X133699142Y-119260952D02*
X133651523Y-119213333D01*
X133556285Y-119165714D01*
X133413428Y-119165714D01*
X133318190Y-119213333D01*
X133270571Y-119308571D01*
X133270571Y-119832380D01*
X132937238Y-119165714D02*
X132556285Y-119165714D01*
X132794380Y-118832380D02*
X132794380Y-119689523D01*
X132746761Y-119784761D01*
X132651523Y-119832380D01*
X132556285Y-119832380D01*
X132222952Y-119832380D02*
X132222952Y-119165714D01*
X132222952Y-119356190D02*
X132175333Y-119260952D01*
X132127714Y-119213333D01*
X132032476Y-119165714D01*
X131937238Y-119165714D01*
X131461047Y-119832380D02*
X131556285Y-119784761D01*
X131603904Y-119737142D01*
X131651523Y-119641904D01*
X131651523Y-119356190D01*
X131603904Y-119260952D01*
X131556285Y-119213333D01*
X131461047Y-119165714D01*
X131318190Y-119165714D01*
X131222952Y-119213333D01*
X131175333Y-119260952D01*
X131127714Y-119356190D01*
X131127714Y-119641904D01*
X131175333Y-119737142D01*
X131222952Y-119784761D01*
X131318190Y-119832380D01*
X131461047Y-119832380D01*
X130556285Y-119832380D02*
X130651523Y-119784761D01*
X130699142Y-119689523D01*
X130699142Y-118832380D01*
X129842000Y-119308571D02*
X129699142Y-119356190D01*
X129651523Y-119403809D01*
X129603904Y-119499047D01*
X129603904Y-119641904D01*
X129651523Y-119737142D01*
X129699142Y-119784761D01*
X129794380Y-119832380D01*
X130175333Y-119832380D01*
X130175333Y-118832380D01*
X129842000Y-118832380D01*
X129746761Y-118880000D01*
X129699142Y-118927619D01*
X129651523Y-119022857D01*
X129651523Y-119118095D01*
X129699142Y-119213333D01*
X129746761Y-119260952D01*
X129842000Y-119308571D01*
X130175333Y-119308571D01*
X129032476Y-119832380D02*
X129127714Y-119784761D01*
X129175333Y-119737142D01*
X129222952Y-119641904D01*
X129222952Y-119356190D01*
X129175333Y-119260952D01*
X129127714Y-119213333D01*
X129032476Y-119165714D01*
X128889619Y-119165714D01*
X128794380Y-119213333D01*
X128746761Y-119260952D01*
X128699142Y-119356190D01*
X128699142Y-119641904D01*
X128746761Y-119737142D01*
X128794380Y-119784761D01*
X128889619Y-119832380D01*
X129032476Y-119832380D01*
X127842000Y-119832380D02*
X127842000Y-119308571D01*
X127889619Y-119213333D01*
X127984857Y-119165714D01*
X128175333Y-119165714D01*
X128270571Y-119213333D01*
X127842000Y-119784761D02*
X127937238Y-119832380D01*
X128175333Y-119832380D01*
X128270571Y-119784761D01*
X128318190Y-119689523D01*
X128318190Y-119594285D01*
X128270571Y-119499047D01*
X128175333Y-119451428D01*
X127937238Y-119451428D01*
X127842000Y-119403809D01*
X127365809Y-119832380D02*
X127365809Y-119165714D01*
X127365809Y-119356190D02*
X127318190Y-119260952D01*
X127270571Y-119213333D01*
X127175333Y-119165714D01*
X127080095Y-119165714D01*
X126318190Y-119832380D02*
X126318190Y-118832380D01*
X126318190Y-119784761D02*
X126413428Y-119832380D01*
X126603904Y-119832380D01*
X126699142Y-119784761D01*
X126746761Y-119737142D01*
X126794380Y-119641904D01*
X126794380Y-119356190D01*
X126746761Y-119260952D01*
X126699142Y-119213333D01*
X126603904Y-119165714D01*
X126413428Y-119165714D01*
X126318190Y-119213333D01*
X139644380Y-114022142D02*
X139644380Y-113545951D01*
X138644380Y-113545951D01*
X139596761Y-114736428D02*
X139644380Y-114641190D01*
X139644380Y-114450713D01*
X139596761Y-114355475D01*
X139501523Y-114307856D01*
X139120571Y-114307856D01*
X139025333Y-114355475D01*
X138977714Y-114450713D01*
X138977714Y-114641190D01*
X139025333Y-114736428D01*
X139120571Y-114784047D01*
X139215809Y-114784047D01*
X139311047Y-114307856D01*
X139644380Y-115641190D02*
X138644380Y-115641190D01*
X139596761Y-115641190D02*
X139644380Y-115545951D01*
X139644380Y-115355475D01*
X139596761Y-115260237D01*
X139549142Y-115212618D01*
X139453904Y-115164999D01*
X139168190Y-115164999D01*
X139072952Y-115212618D01*
X139025333Y-115260237D01*
X138977714Y-115355475D01*
X138977714Y-115545951D01*
X139025333Y-115641190D01*
X137009142Y-114355476D02*
X137056761Y-114307857D01*
X137104380Y-114164999D01*
X137104380Y-114069761D01*
X137056761Y-113926904D01*
X136961523Y-113831666D01*
X136866285Y-113784047D01*
X136675809Y-113736428D01*
X136532952Y-113736428D01*
X136342476Y-113784047D01*
X136247238Y-113831666D01*
X136152000Y-113926904D01*
X136104380Y-114069761D01*
X136104380Y-114164999D01*
X136152000Y-114307857D01*
X136199619Y-114355476D01*
X137104380Y-114926904D02*
X137056761Y-114831666D01*
X136961523Y-114784047D01*
X136104380Y-114784047D01*
X137104380Y-115307857D02*
X136104380Y-115307857D01*
X136723428Y-115403095D02*
X137104380Y-115688809D01*
X136437714Y-115688809D02*
X136818666Y-115307857D01*
X134564380Y-113069760D02*
X134564380Y-112593570D01*
X133564380Y-112593570D01*
X134564380Y-113545951D02*
X134516761Y-113450713D01*
X134469142Y-113403094D01*
X134373904Y-113355475D01*
X134088190Y-113355475D01*
X133992952Y-113403094D01*
X133945333Y-113450713D01*
X133897714Y-113545951D01*
X133897714Y-113688808D01*
X133945333Y-113784046D01*
X133992952Y-113831665D01*
X134088190Y-113879284D01*
X134373904Y-113879284D01*
X134469142Y-113831665D01*
X134516761Y-113784046D01*
X134564380Y-113688808D01*
X134564380Y-113545951D01*
X134564380Y-114736427D02*
X134040571Y-114736427D01*
X133945333Y-114688808D01*
X133897714Y-114593570D01*
X133897714Y-114403094D01*
X133945333Y-114307856D01*
X134516761Y-114736427D02*
X134564380Y-114641189D01*
X134564380Y-114403094D01*
X134516761Y-114307856D01*
X134421523Y-114260237D01*
X134326285Y-114260237D01*
X134231047Y-114307856D01*
X134183428Y-114403094D01*
X134183428Y-114641189D01*
X134135809Y-114736427D01*
X134564380Y-115641189D02*
X133564380Y-115641189D01*
X134516761Y-115641189D02*
X134564380Y-115545951D01*
X134564380Y-115355475D01*
X134516761Y-115260237D01*
X134469142Y-115212618D01*
X134373904Y-115164999D01*
X134088190Y-115164999D01*
X133992952Y-115212618D01*
X133945333Y-115260237D01*
X133897714Y-115355475D01*
X133897714Y-115545951D01*
X133945333Y-115641189D01*
X132024380Y-112736428D02*
X131024380Y-112736428D01*
X131024380Y-112974523D01*
X131072000Y-113117380D01*
X131167238Y-113212618D01*
X131262476Y-113260237D01*
X131452952Y-113307856D01*
X131595809Y-113307856D01*
X131786285Y-113260237D01*
X131881523Y-113212618D01*
X131976761Y-113117380D01*
X132024380Y-112974523D01*
X132024380Y-112736428D01*
X132024380Y-114164999D02*
X131500571Y-114164999D01*
X131405333Y-114117380D01*
X131357714Y-114022142D01*
X131357714Y-113831666D01*
X131405333Y-113736428D01*
X131976761Y-114164999D02*
X132024380Y-114069761D01*
X132024380Y-113831666D01*
X131976761Y-113736428D01*
X131881523Y-113688809D01*
X131786285Y-113688809D01*
X131691047Y-113736428D01*
X131643428Y-113831666D01*
X131643428Y-114069761D01*
X131595809Y-114164999D01*
X131357714Y-114498332D02*
X131357714Y-114879285D01*
X131024380Y-114641189D02*
X131881523Y-114641189D01*
X131976761Y-114688809D01*
X132024380Y-114784047D01*
X132024380Y-114879285D01*
X132024380Y-115641189D02*
X131500571Y-115641189D01*
X131405333Y-115593570D01*
X131357714Y-115498332D01*
X131357714Y-115307856D01*
X131405333Y-115212618D01*
X131976761Y-115641189D02*
X132024380Y-115545951D01*
X132024380Y-115307856D01*
X131976761Y-115212618D01*
X131881523Y-115164999D01*
X131786285Y-115164999D01*
X131691047Y-115212618D01*
X131643428Y-115307856D01*
X131643428Y-115545951D01*
X131595809Y-115641189D01*
X128532000Y-113831665D02*
X128484380Y-113736427D01*
X128484380Y-113593570D01*
X128532000Y-113450713D01*
X128627238Y-113355475D01*
X128722476Y-113307856D01*
X128912952Y-113260237D01*
X129055809Y-113260237D01*
X129246285Y-113307856D01*
X129341523Y-113355475D01*
X129436761Y-113450713D01*
X129484380Y-113593570D01*
X129484380Y-113688808D01*
X129436761Y-113831665D01*
X129389142Y-113879284D01*
X129055809Y-113879284D01*
X129055809Y-113688808D01*
X128817714Y-114307856D02*
X129484380Y-114307856D01*
X128912952Y-114307856D02*
X128865333Y-114355475D01*
X128817714Y-114450713D01*
X128817714Y-114593570D01*
X128865333Y-114688808D01*
X128960571Y-114736427D01*
X129484380Y-114736427D01*
X129484380Y-115641189D02*
X128484380Y-115641189D01*
X129436761Y-115641189D02*
X129484380Y-115545951D01*
X129484380Y-115355475D01*
X129436761Y-115260237D01*
X129389142Y-115212618D01*
X129293904Y-115164999D01*
X129008190Y-115164999D01*
X128912952Y-115212618D01*
X128865333Y-115260237D01*
X128817714Y-115355475D01*
X128817714Y-115545951D01*
X128865333Y-115641189D01*
X125944380Y-113403094D02*
X126944380Y-113736428D01*
X125944380Y-114069761D01*
X126896761Y-114831666D02*
X126944380Y-114736428D01*
X126944380Y-114545951D01*
X126896761Y-114450713D01*
X126849142Y-114403094D01*
X126753904Y-114355475D01*
X126468190Y-114355475D01*
X126372952Y-114403094D01*
X126325333Y-114450713D01*
X126277714Y-114545951D01*
X126277714Y-114736428D01*
X126325333Y-114831666D01*
X126896761Y-115688809D02*
X126944380Y-115593571D01*
X126944380Y-115403094D01*
X126896761Y-115307856D01*
X126849142Y-115260237D01*
X126753904Y-115212618D01*
X126468190Y-115212618D01*
X126372952Y-115260237D01*
X126325333Y-115307856D01*
X126277714Y-115403094D01*
X126277714Y-115593571D01*
X126325333Y-115688809D01*
X78498238Y-36010904D02*
X78498238Y-36582333D01*
X78536333Y-36696619D01*
X78612523Y-36772809D01*
X78726809Y-36810904D01*
X78803000Y-36810904D01*
X77736333Y-36810904D02*
X78117285Y-36810904D01*
X78117285Y-36010904D01*
X77012523Y-36734714D02*
X77050619Y-36772809D01*
X77164904Y-36810904D01*
X77241095Y-36810904D01*
X77355380Y-36772809D01*
X77431571Y-36696619D01*
X77469666Y-36620428D01*
X77507761Y-36468047D01*
X77507761Y-36353761D01*
X77469666Y-36201380D01*
X77431571Y-36125190D01*
X77355380Y-36049000D01*
X77241095Y-36010904D01*
X77164904Y-36010904D01*
X77050619Y-36049000D01*
X77012523Y-36087095D01*
X76441095Y-36010904D02*
X76441095Y-36582333D01*
X76479190Y-36696619D01*
X76555380Y-36772809D01*
X76669666Y-36810904D01*
X76745857Y-36810904D01*
X75679190Y-36810904D02*
X76060142Y-36810904D01*
X76060142Y-36010904D01*
X74955380Y-36734714D02*
X74993476Y-36772809D01*
X75107761Y-36810904D01*
X75183952Y-36810904D01*
X75298238Y-36772809D01*
X75374428Y-36696619D01*
X75412523Y-36620428D01*
X75450619Y-36468047D01*
X75450619Y-36353761D01*
X75412523Y-36201380D01*
X75374428Y-36125190D01*
X75298238Y-36049000D01*
X75183952Y-36010904D01*
X75107761Y-36010904D01*
X74993476Y-36049000D01*
X74955380Y-36087095D01*
X74383952Y-36010904D02*
X74383952Y-36582333D01*
X74422047Y-36696619D01*
X74498238Y-36772809D01*
X74612523Y-36810904D01*
X74688714Y-36810904D01*
X73622047Y-36810904D02*
X74003000Y-36810904D01*
X74003000Y-36010904D01*
X72898238Y-36734714D02*
X72936333Y-36772809D01*
X73050619Y-36810904D01*
X73126809Y-36810904D01*
X73241095Y-36772809D01*
X73317285Y-36696619D01*
X73355380Y-36620428D01*
X73393476Y-36468047D01*
X73393476Y-36353761D01*
X73355380Y-36201380D01*
X73317285Y-36125190D01*
X73241095Y-36049000D01*
X73126809Y-36010904D01*
X73050619Y-36010904D01*
X72936333Y-36049000D01*
X72898238Y-36087095D01*
X72326809Y-36010904D02*
X72326809Y-36582333D01*
X72364904Y-36696619D01*
X72441095Y-36772809D01*
X72555380Y-36810904D01*
X72631571Y-36810904D01*
X71564904Y-36810904D02*
X71945857Y-36810904D01*
X71945857Y-36010904D01*
X70841095Y-36734714D02*
X70879190Y-36772809D01*
X70993476Y-36810904D01*
X71069666Y-36810904D01*
X71183952Y-36772809D01*
X71260142Y-36696619D01*
X71298238Y-36620428D01*
X71336333Y-36468047D01*
X71336333Y-36353761D01*
X71298238Y-36201380D01*
X71260142Y-36125190D01*
X71183952Y-36049000D01*
X71069666Y-36010904D01*
X70993476Y-36010904D01*
X70879190Y-36049000D01*
X70841095Y-36087095D01*
M02*
