G04 #@! TF.GenerationSoftware,KiCad,Pcbnew,(5.1.8)-1*
G04 #@! TF.CreationDate,2022-11-27T21:23:24+01:00*
G04 #@! TF.ProjectId,pfm3_ctrl,70666d33-5f63-4747-926c-2e6b69636164,rev?*
G04 #@! TF.SameCoordinates,Original*
G04 #@! TF.FileFunction,Legend,Top*
G04 #@! TF.FilePolarity,Positive*
%FSLAX46Y46*%
G04 Gerber Fmt 4.6, Leading zero omitted, Abs format (unit mm)*
G04 Created by KiCad (PCBNEW (5.1.8)-1) date 2022-11-27 21:23:24*
%MOMM*%
%LPD*%
G01*
G04 APERTURE LIST*
%ADD10C,0.120000*%
%ADD11C,0.150000*%
%ADD12C,0.400000*%
%ADD13C,0.300000*%
%ADD14C,0.200000*%
%ADD15C,0.250000*%
%ADD16C,0.010000*%
%ADD17C,0.304800*%
G04 APERTURE END LIST*
D10*
X82401210Y-75374500D02*
G75*
G03*
X82401210Y-75374500I-359210J0D01*
G01*
D11*
X137858547Y-86431428D02*
X138620452Y-86431428D01*
D12*
X173609142Y-88860285D02*
X175894857Y-88860285D01*
D13*
X154781666Y-90185761D02*
X154781666Y-88185761D01*
X155448333Y-89614333D01*
X156115000Y-88185761D01*
X156115000Y-90185761D01*
X157829285Y-90090523D02*
X157638809Y-90185761D01*
X157257857Y-90185761D01*
X157067380Y-90090523D01*
X156972142Y-89900047D01*
X156972142Y-89138142D01*
X157067380Y-88947666D01*
X157257857Y-88852428D01*
X157638809Y-88852428D01*
X157829285Y-88947666D01*
X157924523Y-89138142D01*
X157924523Y-89328619D01*
X156972142Y-89519095D01*
X158781666Y-88852428D02*
X158781666Y-90185761D01*
X158781666Y-89042904D02*
X158876904Y-88947666D01*
X159067380Y-88852428D01*
X159353095Y-88852428D01*
X159543571Y-88947666D01*
X159638809Y-89138142D01*
X159638809Y-90185761D01*
X161448333Y-88852428D02*
X161448333Y-90185761D01*
X160591190Y-88852428D02*
X160591190Y-89900047D01*
X160686428Y-90090523D01*
X160876904Y-90185761D01*
X161162619Y-90185761D01*
X161353095Y-90090523D01*
X161448333Y-89995285D01*
D10*
X82655210Y-87503000D02*
G75*
G03*
X82655210Y-87503000I-359210J0D01*
G01*
X158537710Y-73025000D02*
G75*
G03*
X158537710Y-73025000I-359210J0D01*
G01*
X130915210Y-96774000D02*
G75*
G03*
X130915210Y-96774000I-359210J0D01*
G01*
D13*
X97059690Y-117459261D02*
X96107309Y-117459261D01*
X96012071Y-118411642D01*
X96107309Y-118316404D01*
X96297785Y-118221166D01*
X96773976Y-118221166D01*
X96964452Y-118316404D01*
X97059690Y-118411642D01*
X97154928Y-118602119D01*
X97154928Y-119078309D01*
X97059690Y-119268785D01*
X96964452Y-119364023D01*
X96773976Y-119459261D01*
X96297785Y-119459261D01*
X96107309Y-119364023D01*
X96012071Y-119268785D01*
X80454452Y-118125928D02*
X80454452Y-119459261D01*
X79978261Y-117364023D02*
X79502071Y-118792595D01*
X80740166Y-118792595D01*
X113474452Y-117459261D02*
X113093500Y-117459261D01*
X112903023Y-117554500D01*
X112807785Y-117649738D01*
X112617309Y-117935452D01*
X112522071Y-118316404D01*
X112522071Y-119078309D01*
X112617309Y-119268785D01*
X112712547Y-119364023D01*
X112903023Y-119459261D01*
X113283976Y-119459261D01*
X113474452Y-119364023D01*
X113569690Y-119268785D01*
X113664928Y-119078309D01*
X113664928Y-118602119D01*
X113569690Y-118411642D01*
X113474452Y-118316404D01*
X113283976Y-118221166D01*
X112903023Y-118221166D01*
X112712547Y-118316404D01*
X112617309Y-118411642D01*
X112522071Y-118602119D01*
X97028071Y-88693738D02*
X97123309Y-88598500D01*
X97313785Y-88503261D01*
X97789976Y-88503261D01*
X97980452Y-88598500D01*
X98075690Y-88693738D01*
X98170928Y-88884214D01*
X98170928Y-89074690D01*
X98075690Y-89360404D01*
X96932833Y-90503261D01*
X98170928Y-90503261D01*
X81660928Y-90503261D02*
X80518071Y-90503261D01*
X81089500Y-90503261D02*
X81089500Y-88503261D01*
X80899023Y-88788976D01*
X80708547Y-88979452D01*
X80518071Y-89074690D01*
X113442833Y-88503261D02*
X114680928Y-88503261D01*
X114014261Y-89265166D01*
X114299976Y-89265166D01*
X114490452Y-89360404D01*
X114585690Y-89455642D01*
X114680928Y-89646119D01*
X114680928Y-90122309D01*
X114585690Y-90312785D01*
X114490452Y-90408023D01*
X114299976Y-90503261D01*
X113728547Y-90503261D01*
X113538071Y-90408023D01*
X113442833Y-90312785D01*
D12*
X189992142Y-88987285D02*
X192277857Y-88987285D01*
X191135000Y-90130142D02*
X191135000Y-87844428D01*
D13*
X188801666Y-119554523D02*
X189087380Y-119649761D01*
X189563571Y-119649761D01*
X189754047Y-119554523D01*
X189849285Y-119459285D01*
X189944523Y-119268809D01*
X189944523Y-119078333D01*
X189849285Y-118887857D01*
X189754047Y-118792619D01*
X189563571Y-118697380D01*
X189182619Y-118602142D01*
X188992142Y-118506904D01*
X188896904Y-118411666D01*
X188801666Y-118221190D01*
X188801666Y-118030714D01*
X188896904Y-117840238D01*
X188992142Y-117745000D01*
X189182619Y-117649761D01*
X189658809Y-117649761D01*
X189944523Y-117745000D01*
X191563571Y-119554523D02*
X191373095Y-119649761D01*
X190992142Y-119649761D01*
X190801666Y-119554523D01*
X190706428Y-119364047D01*
X190706428Y-118602142D01*
X190801666Y-118411666D01*
X190992142Y-118316428D01*
X191373095Y-118316428D01*
X191563571Y-118411666D01*
X191658809Y-118602142D01*
X191658809Y-118792619D01*
X190706428Y-118983095D01*
X193373095Y-118316428D02*
X193373095Y-120316428D01*
X193373095Y-119554523D02*
X193182619Y-119649761D01*
X192801666Y-119649761D01*
X192611190Y-119554523D01*
X192515952Y-119459285D01*
X192420714Y-119268809D01*
X192420714Y-118697380D01*
X192515952Y-118506904D01*
X192611190Y-118411666D01*
X192801666Y-118316428D01*
X193182619Y-118316428D01*
X193373095Y-118411666D01*
X172244047Y-118602142D02*
X172910714Y-118602142D01*
X173196428Y-119649761D02*
X172244047Y-119649761D01*
X172244047Y-117649761D01*
X173196428Y-117649761D01*
X174910714Y-119649761D02*
X174910714Y-117649761D01*
X174910714Y-119554523D02*
X174720238Y-119649761D01*
X174339285Y-119649761D01*
X174148809Y-119554523D01*
X174053571Y-119459285D01*
X173958333Y-119268809D01*
X173958333Y-118697380D01*
X174053571Y-118506904D01*
X174148809Y-118411666D01*
X174339285Y-118316428D01*
X174720238Y-118316428D01*
X174910714Y-118411666D01*
X175863095Y-119649761D02*
X175863095Y-118316428D01*
X175863095Y-117649761D02*
X175767857Y-117745000D01*
X175863095Y-117840238D01*
X175958333Y-117745000D01*
X175863095Y-117649761D01*
X175863095Y-117840238D01*
X176529761Y-118316428D02*
X177291666Y-118316428D01*
X176815476Y-117649761D02*
X176815476Y-119364047D01*
X176910714Y-119554523D01*
X177101190Y-119649761D01*
X177291666Y-119649761D01*
X154686428Y-119649761D02*
X154686428Y-117649761D01*
X155353095Y-119078333D01*
X156019761Y-117649761D01*
X156019761Y-119649761D01*
X156972142Y-119649761D02*
X156972142Y-118316428D01*
X156972142Y-117649761D02*
X156876904Y-117745000D01*
X156972142Y-117840238D01*
X157067380Y-117745000D01*
X156972142Y-117649761D01*
X156972142Y-117840238D01*
X157734047Y-119649761D02*
X158781666Y-118316428D01*
X157734047Y-118316428D02*
X158781666Y-119649761D01*
X160305476Y-119554523D02*
X160115000Y-119649761D01*
X159734047Y-119649761D01*
X159543571Y-119554523D01*
X159448333Y-119364047D01*
X159448333Y-118602142D01*
X159543571Y-118411666D01*
X159734047Y-118316428D01*
X160115000Y-118316428D01*
X160305476Y-118411666D01*
X160400714Y-118602142D01*
X160400714Y-118792619D01*
X159448333Y-118983095D01*
X161257857Y-119649761D02*
X161257857Y-118316428D01*
X161257857Y-118697380D02*
X161353095Y-118506904D01*
X161448333Y-118411666D01*
X161638809Y-118316428D01*
X161829285Y-118316428D01*
D14*
X70210142Y-35373571D02*
X70210142Y-36873571D01*
X70210142Y-35445000D02*
X70353000Y-35373571D01*
X70638714Y-35373571D01*
X70781571Y-35445000D01*
X70853000Y-35516428D01*
X70924428Y-35659285D01*
X70924428Y-36087857D01*
X70853000Y-36230714D01*
X70781571Y-36302142D01*
X70638714Y-36373571D01*
X70353000Y-36373571D01*
X70210142Y-36302142D01*
X71567285Y-36373571D02*
X71567285Y-35373571D01*
X71567285Y-35659285D02*
X71638714Y-35516428D01*
X71710142Y-35445000D01*
X71853000Y-35373571D01*
X71995857Y-35373571D01*
X73067285Y-36302142D02*
X72924428Y-36373571D01*
X72638714Y-36373571D01*
X72495857Y-36302142D01*
X72424428Y-36159285D01*
X72424428Y-35587857D01*
X72495857Y-35445000D01*
X72638714Y-35373571D01*
X72924428Y-35373571D01*
X73067285Y-35445000D01*
X73138714Y-35587857D01*
X73138714Y-35730714D01*
X72424428Y-35873571D01*
X74353000Y-36302142D02*
X74210142Y-36373571D01*
X73924428Y-36373571D01*
X73781571Y-36302142D01*
X73710142Y-36159285D01*
X73710142Y-35587857D01*
X73781571Y-35445000D01*
X73924428Y-35373571D01*
X74210142Y-35373571D01*
X74353000Y-35445000D01*
X74424428Y-35587857D01*
X74424428Y-35730714D01*
X73710142Y-35873571D01*
X75067285Y-35373571D02*
X75067285Y-36373571D01*
X75067285Y-35516428D02*
X75138714Y-35445000D01*
X75281571Y-35373571D01*
X75495857Y-35373571D01*
X75638714Y-35445000D01*
X75710142Y-35587857D01*
X75710142Y-36373571D01*
X76210142Y-35373571D02*
X76781571Y-35373571D01*
X76424428Y-36373571D02*
X76424428Y-35087857D01*
X76495857Y-34945000D01*
X76638714Y-34873571D01*
X76781571Y-34873571D01*
X77281571Y-36373571D02*
X77281571Y-35373571D01*
X77281571Y-35516428D02*
X77353000Y-35445000D01*
X77495857Y-35373571D01*
X77710142Y-35373571D01*
X77853000Y-35445000D01*
X77924428Y-35587857D01*
X77924428Y-36373571D01*
X77924428Y-35587857D02*
X77995857Y-35445000D01*
X78138714Y-35373571D01*
X78353000Y-35373571D01*
X78495857Y-35445000D01*
X78567285Y-35587857D01*
X78567285Y-36373571D01*
X79138714Y-34873571D02*
X80067285Y-34873571D01*
X79567285Y-35445000D01*
X79781571Y-35445000D01*
X79924428Y-35516428D01*
X79995857Y-35587857D01*
X80067285Y-35730714D01*
X80067285Y-36087857D01*
X79995857Y-36230714D01*
X79924428Y-36302142D01*
X79781571Y-36373571D01*
X79353000Y-36373571D01*
X79210142Y-36302142D01*
X79138714Y-36230714D01*
X82495857Y-36302142D02*
X82353000Y-36373571D01*
X82067285Y-36373571D01*
X81924428Y-36302142D01*
X81853000Y-36230714D01*
X81781571Y-36087857D01*
X81781571Y-35659285D01*
X81853000Y-35516428D01*
X81924428Y-35445000D01*
X82067285Y-35373571D01*
X82353000Y-35373571D01*
X82495857Y-35445000D01*
X83353000Y-36373571D02*
X83210142Y-36302142D01*
X83138714Y-36230714D01*
X83067285Y-36087857D01*
X83067285Y-35659285D01*
X83138714Y-35516428D01*
X83210142Y-35445000D01*
X83353000Y-35373571D01*
X83567285Y-35373571D01*
X83710142Y-35445000D01*
X83781571Y-35516428D01*
X83853000Y-35659285D01*
X83853000Y-36087857D01*
X83781571Y-36230714D01*
X83710142Y-36302142D01*
X83567285Y-36373571D01*
X83353000Y-36373571D01*
X84495857Y-35373571D02*
X84495857Y-36373571D01*
X84495857Y-35516428D02*
X84567285Y-35445000D01*
X84710142Y-35373571D01*
X84924428Y-35373571D01*
X85067285Y-35445000D01*
X85138714Y-35587857D01*
X85138714Y-36373571D01*
X85638714Y-35373571D02*
X86210142Y-35373571D01*
X85853000Y-34873571D02*
X85853000Y-36159285D01*
X85924428Y-36302142D01*
X86067285Y-36373571D01*
X86210142Y-36373571D01*
X86710142Y-36373571D02*
X86710142Y-35373571D01*
X86710142Y-35659285D02*
X86781571Y-35516428D01*
X86853000Y-35445000D01*
X86995857Y-35373571D01*
X87138714Y-35373571D01*
X87853000Y-36373571D02*
X87710142Y-36302142D01*
X87638714Y-36230714D01*
X87567285Y-36087857D01*
X87567285Y-35659285D01*
X87638714Y-35516428D01*
X87710142Y-35445000D01*
X87853000Y-35373571D01*
X88067285Y-35373571D01*
X88210142Y-35445000D01*
X88281571Y-35516428D01*
X88353000Y-35659285D01*
X88353000Y-36087857D01*
X88281571Y-36230714D01*
X88210142Y-36302142D01*
X88067285Y-36373571D01*
X87853000Y-36373571D01*
X89210142Y-36373571D02*
X89067285Y-36302142D01*
X88995857Y-36159285D01*
X88995857Y-34873571D01*
X70067285Y-37823571D02*
X70424428Y-38823571D01*
X70781571Y-37823571D01*
X71281571Y-37466428D02*
X71353000Y-37395000D01*
X71495857Y-37323571D01*
X71853000Y-37323571D01*
X71995857Y-37395000D01*
X72067285Y-37466428D01*
X72138714Y-37609285D01*
X72138714Y-37752142D01*
X72067285Y-37966428D01*
X71210142Y-38823571D01*
X72138714Y-38823571D01*
X72781571Y-38680714D02*
X72853000Y-38752142D01*
X72781571Y-38823571D01*
X72710142Y-38752142D01*
X72781571Y-38680714D01*
X72781571Y-38823571D01*
X73781571Y-37323571D02*
X73924428Y-37323571D01*
X74067285Y-37395000D01*
X74138714Y-37466428D01*
X74210142Y-37609285D01*
X74281571Y-37895000D01*
X74281571Y-38252142D01*
X74210142Y-38537857D01*
X74138714Y-38680714D01*
X74067285Y-38752142D01*
X73924428Y-38823571D01*
X73781571Y-38823571D01*
X73638714Y-38752142D01*
X73567285Y-38680714D01*
X73495857Y-38537857D01*
X73424428Y-38252142D01*
X73424428Y-37895000D01*
X73495857Y-37609285D01*
X73567285Y-37466428D01*
X73638714Y-37395000D01*
X73781571Y-37323571D01*
X75995857Y-38752142D02*
X76210142Y-38823571D01*
X76567285Y-38823571D01*
X76710142Y-38752142D01*
X76781571Y-38680714D01*
X76853000Y-38537857D01*
X76853000Y-38395000D01*
X76781571Y-38252142D01*
X76710142Y-38180714D01*
X76567285Y-38109285D01*
X76281571Y-38037857D01*
X76138714Y-37966428D01*
X76067285Y-37895000D01*
X75995857Y-37752142D01*
X75995857Y-37609285D01*
X76067285Y-37466428D01*
X76138714Y-37395000D01*
X76281571Y-37323571D01*
X76638714Y-37323571D01*
X76853000Y-37395000D01*
X77495857Y-38823571D02*
X77495857Y-37323571D01*
X77995857Y-38395000D01*
X78495857Y-37323571D01*
X78495857Y-38823571D01*
X79210142Y-38823571D02*
X79210142Y-37323571D01*
X79567285Y-37323571D01*
X79781571Y-37395000D01*
X79924428Y-37537857D01*
X79995857Y-37680714D01*
X80067285Y-37966428D01*
X80067285Y-38180714D01*
X79995857Y-38466428D01*
X79924428Y-38609285D01*
X79781571Y-38752142D01*
X79567285Y-38823571D01*
X79210142Y-38823571D01*
X70067285Y-39773571D02*
X71067285Y-41273571D01*
X71067285Y-39773571D02*
X70067285Y-41273571D01*
X72281571Y-41273571D02*
X72281571Y-40487857D01*
X72210142Y-40345000D01*
X72067285Y-40273571D01*
X71781571Y-40273571D01*
X71638714Y-40345000D01*
X72281571Y-41202142D02*
X72138714Y-41273571D01*
X71781571Y-41273571D01*
X71638714Y-41202142D01*
X71567285Y-41059285D01*
X71567285Y-40916428D01*
X71638714Y-40773571D01*
X71781571Y-40702142D01*
X72138714Y-40702142D01*
X72281571Y-40630714D01*
X72853000Y-40273571D02*
X73210142Y-41273571D01*
X73567285Y-40273571D01*
X74138714Y-41273571D02*
X74138714Y-40273571D01*
X74138714Y-39773571D02*
X74067285Y-39845000D01*
X74138714Y-39916428D01*
X74210142Y-39845000D01*
X74138714Y-39773571D01*
X74138714Y-39916428D01*
X75424428Y-41202142D02*
X75281571Y-41273571D01*
X74995857Y-41273571D01*
X74853000Y-41202142D01*
X74781571Y-41059285D01*
X74781571Y-40487857D01*
X74853000Y-40345000D01*
X74995857Y-40273571D01*
X75281571Y-40273571D01*
X75424428Y-40345000D01*
X75495857Y-40487857D01*
X75495857Y-40630714D01*
X74781571Y-40773571D01*
X76138714Y-41273571D02*
X76138714Y-40273571D01*
X76138714Y-40559285D02*
X76210142Y-40416428D01*
X76281571Y-40345000D01*
X76424428Y-40273571D01*
X76567285Y-40273571D01*
X78210142Y-41273571D02*
X78210142Y-39773571D01*
X78210142Y-40487857D02*
X79067285Y-40487857D01*
X79067285Y-41273571D02*
X79067285Y-39773571D01*
X79995857Y-41273571D02*
X79853000Y-41202142D01*
X79781571Y-41130714D01*
X79710142Y-40987857D01*
X79710142Y-40559285D01*
X79781571Y-40416428D01*
X79853000Y-40345000D01*
X79995857Y-40273571D01*
X80210142Y-40273571D01*
X80353000Y-40345000D01*
X80424428Y-40416428D01*
X80495857Y-40559285D01*
X80495857Y-40987857D01*
X80424428Y-41130714D01*
X80353000Y-41202142D01*
X80210142Y-41273571D01*
X79995857Y-41273571D01*
X81067285Y-41202142D02*
X81210142Y-41273571D01*
X81495857Y-41273571D01*
X81638714Y-41202142D01*
X81710142Y-41059285D01*
X81710142Y-40987857D01*
X81638714Y-40845000D01*
X81495857Y-40773571D01*
X81281571Y-40773571D01*
X81138714Y-40702142D01*
X81067285Y-40559285D01*
X81067285Y-40487857D01*
X81138714Y-40345000D01*
X81281571Y-40273571D01*
X81495857Y-40273571D01*
X81638714Y-40345000D01*
X82210142Y-41273571D02*
X82995857Y-40273571D01*
X82210142Y-40273571D02*
X82995857Y-41273571D01*
X84138714Y-41202142D02*
X83995857Y-41273571D01*
X83710142Y-41273571D01*
X83567285Y-41202142D01*
X83495857Y-41059285D01*
X83495857Y-40487857D01*
X83567285Y-40345000D01*
X83710142Y-40273571D01*
X83995857Y-40273571D01*
X84138714Y-40345000D01*
X84210142Y-40487857D01*
X84210142Y-40630714D01*
X83495857Y-40773571D01*
X70995857Y-43723571D02*
X70138714Y-43723571D01*
X70567285Y-43723571D02*
X70567285Y-42223571D01*
X70424428Y-42437857D01*
X70281571Y-42580714D01*
X70138714Y-42652142D01*
X72424428Y-43723571D02*
X71567285Y-43723571D01*
X71995857Y-43723571D02*
X71995857Y-42223571D01*
X71853000Y-42437857D01*
X71710142Y-42580714D01*
X71567285Y-42652142D01*
X74138714Y-42152142D02*
X72853000Y-44080714D01*
X74567285Y-42366428D02*
X74638714Y-42295000D01*
X74781571Y-42223571D01*
X75138714Y-42223571D01*
X75281571Y-42295000D01*
X75353000Y-42366428D01*
X75424428Y-42509285D01*
X75424428Y-42652142D01*
X75353000Y-42866428D01*
X74495857Y-43723571D01*
X75424428Y-43723571D01*
X76353000Y-42223571D02*
X76495857Y-42223571D01*
X76638714Y-42295000D01*
X76710142Y-42366428D01*
X76781571Y-42509285D01*
X76853000Y-42795000D01*
X76853000Y-43152142D01*
X76781571Y-43437857D01*
X76710142Y-43580714D01*
X76638714Y-43652142D01*
X76495857Y-43723571D01*
X76353000Y-43723571D01*
X76210142Y-43652142D01*
X76138714Y-43580714D01*
X76067285Y-43437857D01*
X75995857Y-43152142D01*
X75995857Y-42795000D01*
X76067285Y-42509285D01*
X76138714Y-42366428D01*
X76210142Y-42295000D01*
X76353000Y-42223571D01*
X77424428Y-42366428D02*
X77495857Y-42295000D01*
X77638714Y-42223571D01*
X77995857Y-42223571D01*
X78138714Y-42295000D01*
X78210142Y-42366428D01*
X78281571Y-42509285D01*
X78281571Y-42652142D01*
X78210142Y-42866428D01*
X77353000Y-43723571D01*
X78281571Y-43723571D01*
X78853000Y-42366428D02*
X78924428Y-42295000D01*
X79067285Y-42223571D01*
X79424428Y-42223571D01*
X79567285Y-42295000D01*
X79638714Y-42366428D01*
X79710142Y-42509285D01*
X79710142Y-42652142D01*
X79638714Y-42866428D01*
X78781571Y-43723571D01*
X79710142Y-43723571D01*
D15*
X180340000Y-73025000D02*
X180340000Y-68707000D01*
X179578000Y-67945000D02*
X169672000Y-67945000D01*
X168910000Y-68707000D02*
X168910000Y-73025000D01*
X180340000Y-75438000D02*
X180340000Y-79883000D01*
X179578000Y-80645000D02*
X169672000Y-80645000D01*
X168910000Y-79883000D02*
X168910000Y-75438000D01*
X176657000Y-75565000D02*
X172466000Y-75565000D01*
X177101500Y-74231500D02*
G75*
G03*
X177101500Y-74231500I-2540000J0D01*
G01*
D10*
X180035905Y-79883000D02*
G75*
G03*
X180035905Y-79883000I-457905J0D01*
G01*
X170129905Y-79883000D02*
G75*
G03*
X170129905Y-79883000I-457905J0D01*
G01*
X170129905Y-68707000D02*
G75*
G03*
X170129905Y-68707000I-457905J0D01*
G01*
X180035905Y-68707000D02*
G75*
G03*
X180035905Y-68707000I-457905J0D01*
G01*
D15*
X168910000Y-68707000D02*
G75*
G02*
X169672000Y-67945000I762000J0D01*
G01*
X179578000Y-67945000D02*
G75*
G02*
X180340000Y-68707000I0J-762000D01*
G01*
X169672000Y-80645000D02*
G75*
G02*
X168910000Y-79883000I0J762000D01*
G01*
X180340000Y-79883000D02*
G75*
G02*
X179578000Y-80645000I-762000J0D01*
G01*
X141605000Y-73025000D02*
X141605000Y-68707000D01*
X140843000Y-67945000D02*
X130937000Y-67945000D01*
X130175000Y-68707000D02*
X130175000Y-73025000D01*
X141605000Y-75438000D02*
X141605000Y-79883000D01*
X140843000Y-80645000D02*
X130937000Y-80645000D01*
X130175000Y-79883000D02*
X130175000Y-75438000D01*
X137922000Y-75565000D02*
X133731000Y-75565000D01*
X138366500Y-74231500D02*
G75*
G03*
X138366500Y-74231500I-2540000J0D01*
G01*
D10*
X141300905Y-79883000D02*
G75*
G03*
X141300905Y-79883000I-457905J0D01*
G01*
X131394905Y-79883000D02*
G75*
G03*
X131394905Y-79883000I-457905J0D01*
G01*
X131394905Y-68707000D02*
G75*
G03*
X131394905Y-68707000I-457905J0D01*
G01*
X141300905Y-68707000D02*
G75*
G03*
X141300905Y-68707000I-457905J0D01*
G01*
D15*
X130175000Y-68707000D02*
G75*
G02*
X130937000Y-67945000I762000J0D01*
G01*
X140843000Y-67945000D02*
G75*
G02*
X141605000Y-68707000I0J-762000D01*
G01*
X130937000Y-80645000D02*
G75*
G02*
X130175000Y-79883000I0J762000D01*
G01*
X141605000Y-79883000D02*
G75*
G02*
X140843000Y-80645000I-762000J0D01*
G01*
X102870000Y-73025000D02*
X102870000Y-68707000D01*
X102108000Y-67945000D02*
X92202000Y-67945000D01*
X91440000Y-68707000D02*
X91440000Y-73025000D01*
X102870000Y-75438000D02*
X102870000Y-79883000D01*
X102108000Y-80645000D02*
X92202000Y-80645000D01*
X91440000Y-79883000D02*
X91440000Y-75438000D01*
X99187000Y-75565000D02*
X94996000Y-75565000D01*
X99631500Y-74231500D02*
G75*
G03*
X99631500Y-74231500I-2540000J0D01*
G01*
D10*
X102565905Y-79883000D02*
G75*
G03*
X102565905Y-79883000I-457905J0D01*
G01*
X92659905Y-79883000D02*
G75*
G03*
X92659905Y-79883000I-457905J0D01*
G01*
X92659905Y-68707000D02*
G75*
G03*
X92659905Y-68707000I-457905J0D01*
G01*
X102565905Y-68707000D02*
G75*
G03*
X102565905Y-68707000I-457905J0D01*
G01*
D15*
X91440000Y-68707000D02*
G75*
G02*
X92202000Y-67945000I762000J0D01*
G01*
X102108000Y-67945000D02*
G75*
G02*
X102870000Y-68707000I0J-762000D01*
G01*
X92202000Y-80645000D02*
G75*
G02*
X91440000Y-79883000I0J762000D01*
G01*
X102870000Y-79883000D02*
G75*
G02*
X102108000Y-80645000I-762000J0D01*
G01*
X180340000Y-46355000D02*
X180340000Y-42037000D01*
X179578000Y-41275000D02*
X169672000Y-41275000D01*
X168910000Y-42037000D02*
X168910000Y-46355000D01*
X180340000Y-48768000D02*
X180340000Y-53213000D01*
X179578000Y-53975000D02*
X169672000Y-53975000D01*
X168910000Y-53213000D02*
X168910000Y-48768000D01*
X176657000Y-48895000D02*
X172466000Y-48895000D01*
X177101500Y-47561500D02*
G75*
G03*
X177101500Y-47561500I-2540000J0D01*
G01*
D10*
X180035905Y-53213000D02*
G75*
G03*
X180035905Y-53213000I-457905J0D01*
G01*
X170129905Y-53213000D02*
G75*
G03*
X170129905Y-53213000I-457905J0D01*
G01*
X170129905Y-42037000D02*
G75*
G03*
X170129905Y-42037000I-457905J0D01*
G01*
X180035905Y-42037000D02*
G75*
G03*
X180035905Y-42037000I-457905J0D01*
G01*
D15*
X168910000Y-42037000D02*
G75*
G02*
X169672000Y-41275000I762000J0D01*
G01*
X179578000Y-41275000D02*
G75*
G02*
X180340000Y-42037000I0J-762000D01*
G01*
X169672000Y-53975000D02*
G75*
G02*
X168910000Y-53213000I0J762000D01*
G01*
X180340000Y-53213000D02*
G75*
G02*
X179578000Y-53975000I-762000J0D01*
G01*
X141605000Y-46355000D02*
X141605000Y-42037000D01*
X140843000Y-41275000D02*
X130937000Y-41275000D01*
X130175000Y-42037000D02*
X130175000Y-46355000D01*
X141605000Y-48768000D02*
X141605000Y-53213000D01*
X140843000Y-53975000D02*
X130937000Y-53975000D01*
X130175000Y-53213000D02*
X130175000Y-48768000D01*
X137922000Y-48895000D02*
X133731000Y-48895000D01*
X138366500Y-47561500D02*
G75*
G03*
X138366500Y-47561500I-2540000J0D01*
G01*
D10*
X141300905Y-53213000D02*
G75*
G03*
X141300905Y-53213000I-457905J0D01*
G01*
X131394905Y-53213000D02*
G75*
G03*
X131394905Y-53213000I-457905J0D01*
G01*
X131394905Y-42037000D02*
G75*
G03*
X131394905Y-42037000I-457905J0D01*
G01*
X141300905Y-42037000D02*
G75*
G03*
X141300905Y-42037000I-457905J0D01*
G01*
D15*
X130175000Y-42037000D02*
G75*
G02*
X130937000Y-41275000I762000J0D01*
G01*
X140843000Y-41275000D02*
G75*
G02*
X141605000Y-42037000I0J-762000D01*
G01*
X130937000Y-53975000D02*
G75*
G02*
X130175000Y-53213000I0J762000D01*
G01*
X141605000Y-53213000D02*
G75*
G02*
X140843000Y-53975000I-762000J0D01*
G01*
X102870000Y-46355000D02*
X102870000Y-42037000D01*
X102108000Y-41275000D02*
X92202000Y-41275000D01*
X91440000Y-42037000D02*
X91440000Y-46355000D01*
X102870000Y-48768000D02*
X102870000Y-53213000D01*
X102108000Y-53975000D02*
X92202000Y-53975000D01*
X91440000Y-53213000D02*
X91440000Y-48768000D01*
X99187000Y-48895000D02*
X94996000Y-48895000D01*
X99631500Y-47561500D02*
G75*
G03*
X99631500Y-47561500I-2540000J0D01*
G01*
D10*
X102565905Y-53213000D02*
G75*
G03*
X102565905Y-53213000I-457905J0D01*
G01*
X92659905Y-53213000D02*
G75*
G03*
X92659905Y-53213000I-457905J0D01*
G01*
X92659905Y-42037000D02*
G75*
G03*
X92659905Y-42037000I-457905J0D01*
G01*
X102565905Y-42037000D02*
G75*
G03*
X102565905Y-42037000I-457905J0D01*
G01*
D15*
X91440000Y-42037000D02*
G75*
G02*
X92202000Y-41275000I762000J0D01*
G01*
X102108000Y-41275000D02*
G75*
G02*
X102870000Y-42037000I0J-762000D01*
G01*
X92202000Y-53975000D02*
G75*
G02*
X91440000Y-53213000I0J762000D01*
G01*
X102870000Y-53213000D02*
G75*
G02*
X102108000Y-53975000I-762000J0D01*
G01*
D10*
X79248000Y-64726500D02*
X77298000Y-64726500D01*
X79248000Y-64726500D02*
X81198000Y-64726500D01*
X79248000Y-74846500D02*
X77298000Y-74846500D01*
X79248000Y-74846500D02*
X82698000Y-74846500D01*
X85444359Y-70486000D02*
X85751641Y-70486000D01*
X85444359Y-71246000D02*
X85751641Y-71246000D01*
X85444359Y-72391000D02*
X85751641Y-72391000D01*
X85444359Y-73151000D02*
X85751641Y-73151000D01*
X71996641Y-73184000D02*
X71689359Y-73184000D01*
X71996641Y-72424000D02*
X71689359Y-72424000D01*
X71996641Y-71194000D02*
X71689359Y-71194000D01*
X71996641Y-70434000D02*
X71689359Y-70434000D01*
X71996641Y-69204000D02*
X71689359Y-69204000D01*
X71996641Y-68444000D02*
X71689359Y-68444000D01*
X71996641Y-67214000D02*
X71689359Y-67214000D01*
X71996641Y-66454000D02*
X71689359Y-66454000D01*
X74062000Y-75037836D02*
X74062000Y-74822164D01*
X74782000Y-75037836D02*
X74782000Y-74822164D01*
D15*
X185135520Y-99187000D02*
X185135520Y-96266000D01*
X197134480Y-101219000D02*
X197134480Y-102997000D01*
X196342000Y-103789480D02*
X185928000Y-103789480D01*
X185135520Y-102997000D02*
X185135520Y-101346000D01*
X197134480Y-96393000D02*
X197134480Y-99187000D01*
X185135520Y-94234000D02*
X185135520Y-92583000D01*
X185928000Y-91790520D02*
X196342000Y-91790520D01*
X197134480Y-92583000D02*
X197134480Y-94361000D01*
X189865000Y-100330000D02*
X186055000Y-100330000D01*
X196088000Y-100330000D02*
X192405000Y-100330000D01*
X192405000Y-95250000D02*
X195961000Y-95250000D01*
X186309000Y-95250000D02*
X189865000Y-95250000D01*
X193974806Y-97790000D02*
G75*
G03*
X193974806Y-97790000I-2839806J0D01*
G01*
D10*
X186385905Y-92583000D02*
G75*
G03*
X186385905Y-92583000I-457905J0D01*
G01*
X196799905Y-92583000D02*
G75*
G03*
X196799905Y-92583000I-457905J0D01*
G01*
X196799905Y-102997000D02*
G75*
G03*
X196799905Y-102997000I-457905J0D01*
G01*
X186385905Y-102997000D02*
G75*
G03*
X186385905Y-102997000I-457905J0D01*
G01*
D15*
X185928000Y-103789480D02*
G75*
G02*
X185135520Y-102997000I0J792480D01*
G01*
X197134480Y-102997000D02*
G75*
G02*
X196342000Y-103789480I-792480J0D01*
G01*
X196342000Y-91790520D02*
G75*
G02*
X197134480Y-92583000I0J-792480D01*
G01*
X185135520Y-92583000D02*
G75*
G02*
X185928000Y-91790520I792480J0D01*
G01*
X152115520Y-99187000D02*
X152115520Y-96266000D01*
X164114480Y-101219000D02*
X164114480Y-102997000D01*
X163322000Y-103789480D02*
X152908000Y-103789480D01*
X152115520Y-102997000D02*
X152115520Y-101346000D01*
X164114480Y-96393000D02*
X164114480Y-99187000D01*
X152115520Y-94234000D02*
X152115520Y-92583000D01*
X152908000Y-91790520D02*
X163322000Y-91790520D01*
X164114480Y-92583000D02*
X164114480Y-94361000D01*
X156845000Y-100330000D02*
X153035000Y-100330000D01*
X163068000Y-100330000D02*
X159385000Y-100330000D01*
X159385000Y-95250000D02*
X162941000Y-95250000D01*
X153289000Y-95250000D02*
X156845000Y-95250000D01*
X160954806Y-97790000D02*
G75*
G03*
X160954806Y-97790000I-2839806J0D01*
G01*
D10*
X153365905Y-92583000D02*
G75*
G03*
X153365905Y-92583000I-457905J0D01*
G01*
X163779905Y-92583000D02*
G75*
G03*
X163779905Y-92583000I-457905J0D01*
G01*
X163779905Y-102997000D02*
G75*
G03*
X163779905Y-102997000I-457905J0D01*
G01*
X153365905Y-102997000D02*
G75*
G03*
X153365905Y-102997000I-457905J0D01*
G01*
D15*
X152908000Y-103789480D02*
G75*
G02*
X152115520Y-102997000I0J792480D01*
G01*
X164114480Y-102997000D02*
G75*
G02*
X163322000Y-103789480I-792480J0D01*
G01*
X163322000Y-91790520D02*
G75*
G02*
X164114480Y-92583000I0J-792480D01*
G01*
X152115520Y-92583000D02*
G75*
G02*
X152908000Y-91790520I792480J0D01*
G01*
X185135520Y-111887000D02*
X185135520Y-108966000D01*
X197134480Y-113919000D02*
X197134480Y-115697000D01*
X196342000Y-116489480D02*
X185928000Y-116489480D01*
X185135520Y-115697000D02*
X185135520Y-114046000D01*
X197134480Y-109093000D02*
X197134480Y-111887000D01*
X185135520Y-106934000D02*
X185135520Y-105283000D01*
X185928000Y-104490520D02*
X196342000Y-104490520D01*
X197134480Y-105283000D02*
X197134480Y-107061000D01*
X189865000Y-113030000D02*
X186055000Y-113030000D01*
X196088000Y-113030000D02*
X192405000Y-113030000D01*
X192405000Y-107950000D02*
X195961000Y-107950000D01*
X186309000Y-107950000D02*
X189865000Y-107950000D01*
X193974806Y-110490000D02*
G75*
G03*
X193974806Y-110490000I-2839806J0D01*
G01*
D10*
X186385905Y-105283000D02*
G75*
G03*
X186385905Y-105283000I-457905J0D01*
G01*
X196799905Y-105283000D02*
G75*
G03*
X196799905Y-105283000I-457905J0D01*
G01*
X196799905Y-115697000D02*
G75*
G03*
X196799905Y-115697000I-457905J0D01*
G01*
X186385905Y-115697000D02*
G75*
G03*
X186385905Y-115697000I-457905J0D01*
G01*
D15*
X185928000Y-116489480D02*
G75*
G02*
X185135520Y-115697000I0J792480D01*
G01*
X197134480Y-115697000D02*
G75*
G02*
X196342000Y-116489480I-792480J0D01*
G01*
X196342000Y-104490520D02*
G75*
G02*
X197134480Y-105283000I0J-792480D01*
G01*
X185135520Y-105283000D02*
G75*
G02*
X185928000Y-104490520I792480J0D01*
G01*
X168625520Y-111887000D02*
X168625520Y-108966000D01*
X180624480Y-113919000D02*
X180624480Y-115697000D01*
X179832000Y-116489480D02*
X169418000Y-116489480D01*
X168625520Y-115697000D02*
X168625520Y-114046000D01*
X180624480Y-109093000D02*
X180624480Y-111887000D01*
X168625520Y-106934000D02*
X168625520Y-105283000D01*
X169418000Y-104490520D02*
X179832000Y-104490520D01*
X180624480Y-105283000D02*
X180624480Y-107061000D01*
X173355000Y-113030000D02*
X169545000Y-113030000D01*
X179578000Y-113030000D02*
X175895000Y-113030000D01*
X175895000Y-107950000D02*
X179451000Y-107950000D01*
X169799000Y-107950000D02*
X173355000Y-107950000D01*
X177464806Y-110490000D02*
G75*
G03*
X177464806Y-110490000I-2839806J0D01*
G01*
D10*
X169875905Y-105283000D02*
G75*
G03*
X169875905Y-105283000I-457905J0D01*
G01*
X180289905Y-105283000D02*
G75*
G03*
X180289905Y-105283000I-457905J0D01*
G01*
X180289905Y-115697000D02*
G75*
G03*
X180289905Y-115697000I-457905J0D01*
G01*
X169875905Y-115697000D02*
G75*
G03*
X169875905Y-115697000I-457905J0D01*
G01*
D15*
X169418000Y-116489480D02*
G75*
G02*
X168625520Y-115697000I0J792480D01*
G01*
X180624480Y-115697000D02*
G75*
G02*
X179832000Y-116489480I-792480J0D01*
G01*
X179832000Y-104490520D02*
G75*
G02*
X180624480Y-105283000I0J-792480D01*
G01*
X168625520Y-105283000D02*
G75*
G02*
X169418000Y-104490520I792480J0D01*
G01*
X152115520Y-111887000D02*
X152115520Y-108966000D01*
X164114480Y-113919000D02*
X164114480Y-115697000D01*
X163322000Y-116489480D02*
X152908000Y-116489480D01*
X152115520Y-115697000D02*
X152115520Y-114046000D01*
X164114480Y-109093000D02*
X164114480Y-111887000D01*
X152115520Y-106934000D02*
X152115520Y-105283000D01*
X152908000Y-104490520D02*
X163322000Y-104490520D01*
X164114480Y-105283000D02*
X164114480Y-107061000D01*
X156845000Y-113030000D02*
X153035000Y-113030000D01*
X163068000Y-113030000D02*
X159385000Y-113030000D01*
X159385000Y-107950000D02*
X162941000Y-107950000D01*
X153289000Y-107950000D02*
X156845000Y-107950000D01*
X160954806Y-110490000D02*
G75*
G03*
X160954806Y-110490000I-2839806J0D01*
G01*
D10*
X153365905Y-105283000D02*
G75*
G03*
X153365905Y-105283000I-457905J0D01*
G01*
X163779905Y-105283000D02*
G75*
G03*
X163779905Y-105283000I-457905J0D01*
G01*
X163779905Y-115697000D02*
G75*
G03*
X163779905Y-115697000I-457905J0D01*
G01*
X153365905Y-115697000D02*
G75*
G03*
X153365905Y-115697000I-457905J0D01*
G01*
D15*
X152908000Y-116489480D02*
G75*
G02*
X152115520Y-115697000I0J792480D01*
G01*
X164114480Y-115697000D02*
G75*
G02*
X163322000Y-116489480I-792480J0D01*
G01*
X163322000Y-104490520D02*
G75*
G02*
X164114480Y-105283000I0J-792480D01*
G01*
X152115520Y-105283000D02*
G75*
G02*
X152908000Y-104490520I792480J0D01*
G01*
X168625520Y-99187000D02*
X168625520Y-96266000D01*
X180624480Y-101219000D02*
X180624480Y-102997000D01*
X179832000Y-103789480D02*
X169418000Y-103789480D01*
X168625520Y-102997000D02*
X168625520Y-101346000D01*
X180624480Y-96393000D02*
X180624480Y-99187000D01*
X168625520Y-94234000D02*
X168625520Y-92583000D01*
X169418000Y-91790520D02*
X179832000Y-91790520D01*
X180624480Y-92583000D02*
X180624480Y-94361000D01*
X173355000Y-100330000D02*
X169545000Y-100330000D01*
X179578000Y-100330000D02*
X175895000Y-100330000D01*
X175895000Y-95250000D02*
X179451000Y-95250000D01*
X169799000Y-95250000D02*
X173355000Y-95250000D01*
X177464806Y-97790000D02*
G75*
G03*
X177464806Y-97790000I-2839806J0D01*
G01*
D10*
X169875905Y-92583000D02*
G75*
G03*
X169875905Y-92583000I-457905J0D01*
G01*
X180289905Y-92583000D02*
G75*
G03*
X180289905Y-92583000I-457905J0D01*
G01*
X180289905Y-102997000D02*
G75*
G03*
X180289905Y-102997000I-457905J0D01*
G01*
X169875905Y-102997000D02*
G75*
G03*
X169875905Y-102997000I-457905J0D01*
G01*
D15*
X169418000Y-103789480D02*
G75*
G02*
X168625520Y-102997000I0J792480D01*
G01*
X180624480Y-102997000D02*
G75*
G02*
X179832000Y-103789480I-792480J0D01*
G01*
X179832000Y-91790520D02*
G75*
G02*
X180624480Y-92583000I0J-792480D01*
G01*
X168625520Y-92583000D02*
G75*
G02*
X169418000Y-91790520I792480J0D01*
G01*
X107665520Y-111887000D02*
X107665520Y-108966000D01*
X119664480Y-113919000D02*
X119664480Y-115697000D01*
X118872000Y-116489480D02*
X108458000Y-116489480D01*
X107665520Y-115697000D02*
X107665520Y-114046000D01*
X119664480Y-109093000D02*
X119664480Y-111887000D01*
X107665520Y-106934000D02*
X107665520Y-105283000D01*
X108458000Y-104490520D02*
X118872000Y-104490520D01*
X119664480Y-105283000D02*
X119664480Y-107061000D01*
X112395000Y-113030000D02*
X108585000Y-113030000D01*
X118618000Y-113030000D02*
X114935000Y-113030000D01*
X114935000Y-107950000D02*
X118491000Y-107950000D01*
X108839000Y-107950000D02*
X112395000Y-107950000D01*
X116504806Y-110490000D02*
G75*
G03*
X116504806Y-110490000I-2839806J0D01*
G01*
D10*
X108915905Y-105283000D02*
G75*
G03*
X108915905Y-105283000I-457905J0D01*
G01*
X119329905Y-105283000D02*
G75*
G03*
X119329905Y-105283000I-457905J0D01*
G01*
X119329905Y-115697000D02*
G75*
G03*
X119329905Y-115697000I-457905J0D01*
G01*
X108915905Y-115697000D02*
G75*
G03*
X108915905Y-115697000I-457905J0D01*
G01*
D15*
X108458000Y-116489480D02*
G75*
G02*
X107665520Y-115697000I0J792480D01*
G01*
X119664480Y-115697000D02*
G75*
G02*
X118872000Y-116489480I-792480J0D01*
G01*
X118872000Y-104490520D02*
G75*
G02*
X119664480Y-105283000I0J-792480D01*
G01*
X107665520Y-105283000D02*
G75*
G02*
X108458000Y-104490520I792480J0D01*
G01*
X91155520Y-111887000D02*
X91155520Y-108966000D01*
X103154480Y-113919000D02*
X103154480Y-115697000D01*
X102362000Y-116489480D02*
X91948000Y-116489480D01*
X91155520Y-115697000D02*
X91155520Y-114046000D01*
X103154480Y-109093000D02*
X103154480Y-111887000D01*
X91155520Y-106934000D02*
X91155520Y-105283000D01*
X91948000Y-104490520D02*
X102362000Y-104490520D01*
X103154480Y-105283000D02*
X103154480Y-107061000D01*
X95885000Y-113030000D02*
X92075000Y-113030000D01*
X102108000Y-113030000D02*
X98425000Y-113030000D01*
X98425000Y-107950000D02*
X101981000Y-107950000D01*
X92329000Y-107950000D02*
X95885000Y-107950000D01*
X99994806Y-110490000D02*
G75*
G03*
X99994806Y-110490000I-2839806J0D01*
G01*
D10*
X92405905Y-105283000D02*
G75*
G03*
X92405905Y-105283000I-457905J0D01*
G01*
X102819905Y-105283000D02*
G75*
G03*
X102819905Y-105283000I-457905J0D01*
G01*
X102819905Y-115697000D02*
G75*
G03*
X102819905Y-115697000I-457905J0D01*
G01*
X92405905Y-115697000D02*
G75*
G03*
X92405905Y-115697000I-457905J0D01*
G01*
D15*
X91948000Y-116489480D02*
G75*
G02*
X91155520Y-115697000I0J792480D01*
G01*
X103154480Y-115697000D02*
G75*
G02*
X102362000Y-116489480I-792480J0D01*
G01*
X102362000Y-104490520D02*
G75*
G02*
X103154480Y-105283000I0J-792480D01*
G01*
X91155520Y-105283000D02*
G75*
G02*
X91948000Y-104490520I792480J0D01*
G01*
X74645520Y-111887000D02*
X74645520Y-108966000D01*
X86644480Y-113919000D02*
X86644480Y-115697000D01*
X85852000Y-116489480D02*
X75438000Y-116489480D01*
X74645520Y-115697000D02*
X74645520Y-114046000D01*
X86644480Y-109093000D02*
X86644480Y-111887000D01*
X74645520Y-106934000D02*
X74645520Y-105283000D01*
X75438000Y-104490520D02*
X85852000Y-104490520D01*
X86644480Y-105283000D02*
X86644480Y-107061000D01*
X79375000Y-113030000D02*
X75565000Y-113030000D01*
X85598000Y-113030000D02*
X81915000Y-113030000D01*
X81915000Y-107950000D02*
X85471000Y-107950000D01*
X75819000Y-107950000D02*
X79375000Y-107950000D01*
X83484806Y-110490000D02*
G75*
G03*
X83484806Y-110490000I-2839806J0D01*
G01*
D10*
X75895905Y-105283000D02*
G75*
G03*
X75895905Y-105283000I-457905J0D01*
G01*
X86309905Y-105283000D02*
G75*
G03*
X86309905Y-105283000I-457905J0D01*
G01*
X86309905Y-115697000D02*
G75*
G03*
X86309905Y-115697000I-457905J0D01*
G01*
X75895905Y-115697000D02*
G75*
G03*
X75895905Y-115697000I-457905J0D01*
G01*
D15*
X75438000Y-116489480D02*
G75*
G02*
X74645520Y-115697000I0J792480D01*
G01*
X86644480Y-115697000D02*
G75*
G02*
X85852000Y-116489480I-792480J0D01*
G01*
X85852000Y-104490520D02*
G75*
G02*
X86644480Y-105283000I0J-792480D01*
G01*
X74645520Y-105283000D02*
G75*
G02*
X75438000Y-104490520I792480J0D01*
G01*
X107665520Y-99187000D02*
X107665520Y-96266000D01*
X119664480Y-101219000D02*
X119664480Y-102997000D01*
X118872000Y-103789480D02*
X108458000Y-103789480D01*
X107665520Y-102997000D02*
X107665520Y-101346000D01*
X119664480Y-96393000D02*
X119664480Y-99187000D01*
X107665520Y-94234000D02*
X107665520Y-92583000D01*
X108458000Y-91790520D02*
X118872000Y-91790520D01*
X119664480Y-92583000D02*
X119664480Y-94361000D01*
X112395000Y-100330000D02*
X108585000Y-100330000D01*
X118618000Y-100330000D02*
X114935000Y-100330000D01*
X114935000Y-95250000D02*
X118491000Y-95250000D01*
X108839000Y-95250000D02*
X112395000Y-95250000D01*
X116504806Y-97790000D02*
G75*
G03*
X116504806Y-97790000I-2839806J0D01*
G01*
D10*
X108915905Y-92583000D02*
G75*
G03*
X108915905Y-92583000I-457905J0D01*
G01*
X119329905Y-92583000D02*
G75*
G03*
X119329905Y-92583000I-457905J0D01*
G01*
X119329905Y-102997000D02*
G75*
G03*
X119329905Y-102997000I-457905J0D01*
G01*
X108915905Y-102997000D02*
G75*
G03*
X108915905Y-102997000I-457905J0D01*
G01*
D15*
X108458000Y-103789480D02*
G75*
G02*
X107665520Y-102997000I0J792480D01*
G01*
X119664480Y-102997000D02*
G75*
G02*
X118872000Y-103789480I-792480J0D01*
G01*
X118872000Y-91790520D02*
G75*
G02*
X119664480Y-92583000I0J-792480D01*
G01*
X107665520Y-92583000D02*
G75*
G02*
X108458000Y-91790520I792480J0D01*
G01*
X91155520Y-99187000D02*
X91155520Y-96266000D01*
X103154480Y-101219000D02*
X103154480Y-102997000D01*
X102362000Y-103789480D02*
X91948000Y-103789480D01*
X91155520Y-102997000D02*
X91155520Y-101346000D01*
X103154480Y-96393000D02*
X103154480Y-99187000D01*
X91155520Y-94234000D02*
X91155520Y-92583000D01*
X91948000Y-91790520D02*
X102362000Y-91790520D01*
X103154480Y-92583000D02*
X103154480Y-94361000D01*
X95885000Y-100330000D02*
X92075000Y-100330000D01*
X102108000Y-100330000D02*
X98425000Y-100330000D01*
X98425000Y-95250000D02*
X101981000Y-95250000D01*
X92329000Y-95250000D02*
X95885000Y-95250000D01*
X99994806Y-97790000D02*
G75*
G03*
X99994806Y-97790000I-2839806J0D01*
G01*
D10*
X92405905Y-92583000D02*
G75*
G03*
X92405905Y-92583000I-457905J0D01*
G01*
X102819905Y-92583000D02*
G75*
G03*
X102819905Y-92583000I-457905J0D01*
G01*
X102819905Y-102997000D02*
G75*
G03*
X102819905Y-102997000I-457905J0D01*
G01*
X92405905Y-102997000D02*
G75*
G03*
X92405905Y-102997000I-457905J0D01*
G01*
D15*
X91948000Y-103789480D02*
G75*
G02*
X91155520Y-102997000I0J792480D01*
G01*
X103154480Y-102997000D02*
G75*
G02*
X102362000Y-103789480I-792480J0D01*
G01*
X102362000Y-91790520D02*
G75*
G02*
X103154480Y-92583000I0J-792480D01*
G01*
X91155520Y-92583000D02*
G75*
G02*
X91948000Y-91790520I792480J0D01*
G01*
X74645520Y-99187000D02*
X74645520Y-96266000D01*
X86644480Y-101219000D02*
X86644480Y-102997000D01*
X85852000Y-103789480D02*
X75438000Y-103789480D01*
X74645520Y-102997000D02*
X74645520Y-101346000D01*
X86644480Y-96393000D02*
X86644480Y-99187000D01*
X74645520Y-94234000D02*
X74645520Y-92583000D01*
X75438000Y-91790520D02*
X85852000Y-91790520D01*
X86644480Y-92583000D02*
X86644480Y-94361000D01*
X79375000Y-100330000D02*
X75565000Y-100330000D01*
X85598000Y-100330000D02*
X81915000Y-100330000D01*
X81915000Y-95250000D02*
X85471000Y-95250000D01*
X75819000Y-95250000D02*
X79375000Y-95250000D01*
X83484806Y-97790000D02*
G75*
G03*
X83484806Y-97790000I-2839806J0D01*
G01*
D10*
X75895905Y-92583000D02*
G75*
G03*
X75895905Y-92583000I-457905J0D01*
G01*
X86309905Y-92583000D02*
G75*
G03*
X86309905Y-92583000I-457905J0D01*
G01*
X86309905Y-102997000D02*
G75*
G03*
X86309905Y-102997000I-457905J0D01*
G01*
X75895905Y-102997000D02*
G75*
G03*
X75895905Y-102997000I-457905J0D01*
G01*
D15*
X75438000Y-103789480D02*
G75*
G02*
X74645520Y-102997000I0J792480D01*
G01*
X86644480Y-102997000D02*
G75*
G02*
X85852000Y-103789480I-792480J0D01*
G01*
X85852000Y-91790520D02*
G75*
G02*
X86644480Y-92583000I0J-792480D01*
G01*
X74645520Y-92583000D02*
G75*
G02*
X75438000Y-91790520I792480J0D01*
G01*
D16*
G36*
X76504611Y-47766892D02*
G01*
X76590333Y-47887901D01*
X76623128Y-48155585D01*
X76623334Y-48184392D01*
X76630137Y-48414874D01*
X76675320Y-48522663D01*
X76796039Y-48554398D01*
X76919667Y-48556334D01*
X77216000Y-48556334D01*
X77216000Y-49133633D01*
X77155965Y-49806210D01*
X76981640Y-50387647D01*
X76701695Y-50863573D01*
X76324799Y-51219618D01*
X75859620Y-51441410D01*
X75816467Y-51453563D01*
X75581101Y-51529814D01*
X75469548Y-51616830D01*
X75438417Y-51752136D01*
X75438000Y-51780860D01*
X75395921Y-51997988D01*
X75292504Y-52125089D01*
X75161980Y-52129119D01*
X75114252Y-52093386D01*
X75037536Y-51936728D01*
X75014667Y-51774294D01*
X74989426Y-51627750D01*
X74884420Y-51535326D01*
X74655724Y-51458437D01*
X74654834Y-51458198D01*
X74374395Y-51342661D01*
X74071742Y-51159271D01*
X73941827Y-51058741D01*
X73629576Y-50717800D01*
X73422741Y-50307654D01*
X73324414Y-49862171D01*
X73998667Y-49862171D01*
X74049942Y-50000346D01*
X74177195Y-50192750D01*
X74217860Y-50243171D01*
X74484091Y-50455011D01*
X74773765Y-50507328D01*
X75058459Y-50398934D01*
X75190408Y-50283723D01*
X75405414Y-50077423D01*
X75618660Y-49903964D01*
X75779013Y-49801307D01*
X75891817Y-49799802D01*
X76042420Y-49902098D01*
X76062343Y-49917744D01*
X76266358Y-50030626D01*
X76404897Y-50011371D01*
X76454000Y-49869815D01*
X76385742Y-49730453D01*
X76221440Y-49574564D01*
X76021804Y-49449673D01*
X75857677Y-49403000D01*
X75720134Y-49454063D01*
X75501696Y-49588175D01*
X75248766Y-49776723D01*
X75239805Y-49784000D01*
X74996810Y-49972452D01*
X74798947Y-50108668D01*
X74686883Y-50164788D01*
X74683662Y-50165000D01*
X74578447Y-50100926D01*
X74456548Y-49953334D01*
X74313337Y-49809283D01*
X74155141Y-49745371D01*
X74033987Y-49771955D01*
X73998667Y-49862171D01*
X73324414Y-49862171D01*
X73310495Y-49799113D01*
X73281397Y-49278137D01*
X73279000Y-48598667D01*
X73554167Y-48572136D01*
X73725888Y-48543986D01*
X73805472Y-48470177D01*
X73828227Y-48300266D01*
X73829334Y-48179028D01*
X73857743Y-47903373D01*
X73939510Y-47770730D01*
X73948056Y-47766892D01*
X74071574Y-47750938D01*
X74139707Y-47840069D01*
X74166086Y-48060470D01*
X74168000Y-48189445D01*
X74168000Y-48556334D01*
X76284667Y-48556334D01*
X76284667Y-48189445D01*
X76298309Y-47909981D01*
X76348322Y-47772131D01*
X76448336Y-47749709D01*
X76504611Y-47766892D01*
G37*
X76504611Y-47766892D02*
X76590333Y-47887901D01*
X76623128Y-48155585D01*
X76623334Y-48184392D01*
X76630137Y-48414874D01*
X76675320Y-48522663D01*
X76796039Y-48554398D01*
X76919667Y-48556334D01*
X77216000Y-48556334D01*
X77216000Y-49133633D01*
X77155965Y-49806210D01*
X76981640Y-50387647D01*
X76701695Y-50863573D01*
X76324799Y-51219618D01*
X75859620Y-51441410D01*
X75816467Y-51453563D01*
X75581101Y-51529814D01*
X75469548Y-51616830D01*
X75438417Y-51752136D01*
X75438000Y-51780860D01*
X75395921Y-51997988D01*
X75292504Y-52125089D01*
X75161980Y-52129119D01*
X75114252Y-52093386D01*
X75037536Y-51936728D01*
X75014667Y-51774294D01*
X74989426Y-51627750D01*
X74884420Y-51535326D01*
X74655724Y-51458437D01*
X74654834Y-51458198D01*
X74374395Y-51342661D01*
X74071742Y-51159271D01*
X73941827Y-51058741D01*
X73629576Y-50717800D01*
X73422741Y-50307654D01*
X73324414Y-49862171D01*
X73998667Y-49862171D01*
X74049942Y-50000346D01*
X74177195Y-50192750D01*
X74217860Y-50243171D01*
X74484091Y-50455011D01*
X74773765Y-50507328D01*
X75058459Y-50398934D01*
X75190408Y-50283723D01*
X75405414Y-50077423D01*
X75618660Y-49903964D01*
X75779013Y-49801307D01*
X75891817Y-49799802D01*
X76042420Y-49902098D01*
X76062343Y-49917744D01*
X76266358Y-50030626D01*
X76404897Y-50011371D01*
X76454000Y-49869815D01*
X76385742Y-49730453D01*
X76221440Y-49574564D01*
X76021804Y-49449673D01*
X75857677Y-49403000D01*
X75720134Y-49454063D01*
X75501696Y-49588175D01*
X75248766Y-49776723D01*
X75239805Y-49784000D01*
X74996810Y-49972452D01*
X74798947Y-50108668D01*
X74686883Y-50164788D01*
X74683662Y-50165000D01*
X74578447Y-50100926D01*
X74456548Y-49953334D01*
X74313337Y-49809283D01*
X74155141Y-49745371D01*
X74033987Y-49771955D01*
X73998667Y-49862171D01*
X73324414Y-49862171D01*
X73310495Y-49799113D01*
X73281397Y-49278137D01*
X73279000Y-48598667D01*
X73554167Y-48572136D01*
X73725888Y-48543986D01*
X73805472Y-48470177D01*
X73828227Y-48300266D01*
X73829334Y-48179028D01*
X73857743Y-47903373D01*
X73939510Y-47770730D01*
X73948056Y-47766892D01*
X74071574Y-47750938D01*
X74139707Y-47840069D01*
X74166086Y-48060470D01*
X74168000Y-48189445D01*
X74168000Y-48556334D01*
X76284667Y-48556334D01*
X76284667Y-48189445D01*
X76298309Y-47909981D01*
X76348322Y-47772131D01*
X76448336Y-47749709D01*
X76504611Y-47766892D01*
G36*
X75655600Y-46583547D02*
G01*
X75755561Y-46600378D01*
X76354107Y-46755943D01*
X76855400Y-46997799D01*
X77322621Y-47358067D01*
X77413480Y-47443253D01*
X77870084Y-47993183D01*
X78185925Y-48617702D01*
X78352710Y-49291091D01*
X78362147Y-49987635D01*
X78321536Y-50259251D01*
X78162367Y-50847695D01*
X77921760Y-51338682D01*
X77566224Y-51797163D01*
X77482414Y-51886480D01*
X76922081Y-52353470D01*
X76292277Y-52670382D01*
X75611300Y-52831949D01*
X74897446Y-52832907D01*
X74464334Y-52755036D01*
X73855608Y-52543336D01*
X73334095Y-52219108D01*
X72970253Y-51886339D01*
X72583687Y-51418614D01*
X72321645Y-50928827D01*
X72152026Y-50353844D01*
X72127378Y-50228561D01*
X72088921Y-49655903D01*
X72442752Y-49655903D01*
X72500561Y-50271352D01*
X72699394Y-50869794D01*
X73043943Y-51427434D01*
X73222734Y-51632815D01*
X73739216Y-52057126D01*
X74326942Y-52336593D01*
X74962628Y-52466862D01*
X75622989Y-52443582D01*
X76284741Y-52262401D01*
X76379276Y-52222831D01*
X76941190Y-51888742D01*
X77398424Y-51437118D01*
X77737533Y-50893079D01*
X77945072Y-50281743D01*
X78007595Y-49628231D01*
X77973010Y-49245343D01*
X77793005Y-48615426D01*
X77480872Y-48066147D01*
X77059424Y-47609828D01*
X76551474Y-47258786D01*
X75979833Y-47025342D01*
X75367314Y-46921815D01*
X74736729Y-46960525D01*
X74110890Y-47153790D01*
X74104941Y-47156451D01*
X73527972Y-47499981D01*
X73068579Y-47945488D01*
X72731451Y-48469175D01*
X72521279Y-49047245D01*
X72442752Y-49655903D01*
X72088921Y-49655903D01*
X72079816Y-49520327D01*
X72194194Y-48832490D01*
X72463133Y-48187591D01*
X72879252Y-47608175D01*
X73039187Y-47443253D01*
X73621847Y-46990987D01*
X74261316Y-46694099D01*
X74943824Y-46556861D01*
X75655600Y-46583547D01*
G37*
X75655600Y-46583547D02*
X75755561Y-46600378D01*
X76354107Y-46755943D01*
X76855400Y-46997799D01*
X77322621Y-47358067D01*
X77413480Y-47443253D01*
X77870084Y-47993183D01*
X78185925Y-48617702D01*
X78352710Y-49291091D01*
X78362147Y-49987635D01*
X78321536Y-50259251D01*
X78162367Y-50847695D01*
X77921760Y-51338682D01*
X77566224Y-51797163D01*
X77482414Y-51886480D01*
X76922081Y-52353470D01*
X76292277Y-52670382D01*
X75611300Y-52831949D01*
X74897446Y-52832907D01*
X74464334Y-52755036D01*
X73855608Y-52543336D01*
X73334095Y-52219108D01*
X72970253Y-51886339D01*
X72583687Y-51418614D01*
X72321645Y-50928827D01*
X72152026Y-50353844D01*
X72127378Y-50228561D01*
X72088921Y-49655903D01*
X72442752Y-49655903D01*
X72500561Y-50271352D01*
X72699394Y-50869794D01*
X73043943Y-51427434D01*
X73222734Y-51632815D01*
X73739216Y-52057126D01*
X74326942Y-52336593D01*
X74962628Y-52466862D01*
X75622989Y-52443582D01*
X76284741Y-52262401D01*
X76379276Y-52222831D01*
X76941190Y-51888742D01*
X77398424Y-51437118D01*
X77737533Y-50893079D01*
X77945072Y-50281743D01*
X78007595Y-49628231D01*
X77973010Y-49245343D01*
X77793005Y-48615426D01*
X77480872Y-48066147D01*
X77059424Y-47609828D01*
X76551474Y-47258786D01*
X75979833Y-47025342D01*
X75367314Y-46921815D01*
X74736729Y-46960525D01*
X74110890Y-47153790D01*
X74104941Y-47156451D01*
X73527972Y-47499981D01*
X73068579Y-47945488D01*
X72731451Y-48469175D01*
X72521279Y-49047245D01*
X72442752Y-49655903D01*
X72088921Y-49655903D01*
X72079816Y-49520327D01*
X72194194Y-48832490D01*
X72463133Y-48187591D01*
X72879252Y-47608175D01*
X73039187Y-47443253D01*
X73621847Y-46990987D01*
X74261316Y-46694099D01*
X74943824Y-46556861D01*
X75655600Y-46583547D01*
D10*
X136052779Y-88965500D02*
X135727221Y-88965500D01*
X136052779Y-87945500D02*
X135727221Y-87945500D01*
X135123001Y-87158500D02*
X137408001Y-87158500D01*
X137408001Y-87158500D02*
X137408001Y-85688500D01*
X137408001Y-85688500D02*
X135123001Y-85688500D01*
X133858000Y-107549000D02*
X135808000Y-107549000D01*
X133858000Y-107549000D02*
X131908000Y-107549000D01*
X133858000Y-97429000D02*
X135808000Y-97429000D01*
X133858000Y-97429000D02*
X130408000Y-97429000D01*
X155003500Y-72497000D02*
X158453500Y-72497000D01*
X155003500Y-72497000D02*
X153053500Y-72497000D01*
X155003500Y-62377000D02*
X156953500Y-62377000D01*
X155003500Y-62377000D02*
X153053500Y-62377000D01*
X79121000Y-76728000D02*
X77171000Y-76728000D01*
X79121000Y-76728000D02*
X81071000Y-76728000D01*
X79121000Y-86848000D02*
X77171000Y-86848000D01*
X79121000Y-86848000D02*
X82571000Y-86848000D01*
D11*
X136294857Y-113942857D02*
X136247238Y-113895238D01*
X136199619Y-113752380D01*
X136199619Y-113657142D01*
X136247238Y-113514285D01*
X136342476Y-113419047D01*
X136437714Y-113371428D01*
X136628190Y-113323809D01*
X136771047Y-113323809D01*
X136961523Y-113371428D01*
X137056761Y-113419047D01*
X137152000Y-113514285D01*
X137199619Y-113657142D01*
X137199619Y-113752380D01*
X137152000Y-113895238D01*
X137104380Y-113942857D01*
X136199619Y-114514285D02*
X136247238Y-114419047D01*
X136342476Y-114371428D01*
X137199619Y-114371428D01*
X136199619Y-114895238D02*
X137199619Y-114895238D01*
X136580571Y-114990476D02*
X136199619Y-115276190D01*
X136866285Y-115276190D02*
X136485333Y-114895238D01*
X127039619Y-112990475D02*
X126039619Y-113323809D01*
X127039619Y-113657142D01*
X126087238Y-114419047D02*
X126039619Y-114323809D01*
X126039619Y-114133332D01*
X126087238Y-114038094D01*
X126134857Y-113990475D01*
X126230095Y-113942856D01*
X126515809Y-113942856D01*
X126611047Y-113990475D01*
X126658666Y-114038094D01*
X126706285Y-114133332D01*
X126706285Y-114323809D01*
X126658666Y-114419047D01*
X126087238Y-115276190D02*
X126039619Y-115180952D01*
X126039619Y-114990475D01*
X126087238Y-114895237D01*
X126134857Y-114847618D01*
X126230095Y-114799999D01*
X126515809Y-114799999D01*
X126611047Y-114847618D01*
X126658666Y-114895237D01*
X126706285Y-114990475D01*
X126706285Y-115180952D01*
X126658666Y-115276190D01*
X129532000Y-113419047D02*
X129579619Y-113323809D01*
X129579619Y-113180952D01*
X129532000Y-113038095D01*
X129436761Y-112942857D01*
X129341523Y-112895238D01*
X129151047Y-112847619D01*
X129008190Y-112847619D01*
X128817714Y-112895238D01*
X128722476Y-112942857D01*
X128627238Y-113038095D01*
X128579619Y-113180952D01*
X128579619Y-113276190D01*
X128627238Y-113419047D01*
X128674857Y-113466666D01*
X129008190Y-113466666D01*
X129008190Y-113276190D01*
X129246285Y-113895238D02*
X128579619Y-113895238D01*
X129151047Y-113895238D02*
X129198666Y-113942857D01*
X129246285Y-114038095D01*
X129246285Y-114180952D01*
X129198666Y-114276190D01*
X129103428Y-114323809D01*
X128579619Y-114323809D01*
X128579619Y-115228571D02*
X129579619Y-115228571D01*
X128627238Y-115228571D02*
X128579619Y-115133333D01*
X128579619Y-114942857D01*
X128627238Y-114847619D01*
X128674857Y-114800000D01*
X128770095Y-114752381D01*
X129055809Y-114752381D01*
X129151047Y-114800000D01*
X129198666Y-114847619D01*
X129246285Y-114942857D01*
X129246285Y-115133333D01*
X129198666Y-115228571D01*
X133659619Y-112657142D02*
X133659619Y-112180952D01*
X134659619Y-112180952D01*
X133659619Y-113133333D02*
X133707238Y-113038095D01*
X133754857Y-112990476D01*
X133850095Y-112942857D01*
X134135809Y-112942857D01*
X134231047Y-112990476D01*
X134278666Y-113038095D01*
X134326285Y-113133333D01*
X134326285Y-113276190D01*
X134278666Y-113371428D01*
X134231047Y-113419047D01*
X134135809Y-113466666D01*
X133850095Y-113466666D01*
X133754857Y-113419047D01*
X133707238Y-113371428D01*
X133659619Y-113276190D01*
X133659619Y-113133333D01*
X133659619Y-114323809D02*
X134183428Y-114323809D01*
X134278666Y-114276190D01*
X134326285Y-114180952D01*
X134326285Y-113990476D01*
X134278666Y-113895238D01*
X133707238Y-114323809D02*
X133659619Y-114228571D01*
X133659619Y-113990476D01*
X133707238Y-113895238D01*
X133802476Y-113847619D01*
X133897714Y-113847619D01*
X133992952Y-113895238D01*
X134040571Y-113990476D01*
X134040571Y-114228571D01*
X134088190Y-114323809D01*
X133659619Y-115228571D02*
X134659619Y-115228571D01*
X133707238Y-115228571D02*
X133659619Y-115133333D01*
X133659619Y-114942857D01*
X133707238Y-114847619D01*
X133754857Y-114800000D01*
X133850095Y-114752381D01*
X134135809Y-114752381D01*
X134231047Y-114800000D01*
X134278666Y-114847619D01*
X134326285Y-114942857D01*
X134326285Y-115133333D01*
X134278666Y-115228571D01*
X138739619Y-113609523D02*
X138739619Y-113133332D01*
X139739619Y-113133332D01*
X138787238Y-114323809D02*
X138739619Y-114228571D01*
X138739619Y-114038094D01*
X138787238Y-113942856D01*
X138882476Y-113895237D01*
X139263428Y-113895237D01*
X139358666Y-113942856D01*
X139406285Y-114038094D01*
X139406285Y-114228571D01*
X139358666Y-114323809D01*
X139263428Y-114371428D01*
X139168190Y-114371428D01*
X139072952Y-113895237D01*
X138739619Y-115228571D02*
X139739619Y-115228571D01*
X138787238Y-115228571D02*
X138739619Y-115133332D01*
X138739619Y-114942856D01*
X138787238Y-114847618D01*
X138834857Y-114799999D01*
X138930095Y-114752380D01*
X139215809Y-114752380D01*
X139311047Y-114799999D01*
X139358666Y-114847618D01*
X139406285Y-114942856D01*
X139406285Y-115133332D01*
X139358666Y-115228571D01*
X131119619Y-112323810D02*
X132119619Y-112323810D01*
X132119619Y-112561905D01*
X132072000Y-112704762D01*
X131976761Y-112800000D01*
X131881523Y-112847619D01*
X131691047Y-112895238D01*
X131548190Y-112895238D01*
X131357714Y-112847619D01*
X131262476Y-112800000D01*
X131167238Y-112704762D01*
X131119619Y-112561905D01*
X131119619Y-112323810D01*
X131119619Y-113752381D02*
X131643428Y-113752381D01*
X131738666Y-113704762D01*
X131786285Y-113609524D01*
X131786285Y-113419048D01*
X131738666Y-113323810D01*
X131167238Y-113752381D02*
X131119619Y-113657143D01*
X131119619Y-113419048D01*
X131167238Y-113323810D01*
X131262476Y-113276191D01*
X131357714Y-113276191D01*
X131452952Y-113323810D01*
X131500571Y-113419048D01*
X131500571Y-113657143D01*
X131548190Y-113752381D01*
X131786285Y-114085714D02*
X131786285Y-114466667D01*
X132119619Y-114228571D02*
X131262476Y-114228571D01*
X131167238Y-114276191D01*
X131119619Y-114371429D01*
X131119619Y-114466667D01*
X131119619Y-115228571D02*
X131643428Y-115228571D01*
X131738666Y-115180952D01*
X131786285Y-115085714D01*
X131786285Y-114895238D01*
X131738666Y-114800000D01*
X131167238Y-115228571D02*
X131119619Y-115133333D01*
X131119619Y-114895238D01*
X131167238Y-114800000D01*
X131262476Y-114752381D01*
X131357714Y-114752381D01*
X131452952Y-114800000D01*
X131500571Y-114895238D01*
X131500571Y-115133333D01*
X131548190Y-115228571D01*
D13*
X163936309Y-73632285D02*
X164888690Y-73632285D01*
X164293452Y-75298952D02*
X164293452Y-73156095D01*
X164412500Y-72918000D01*
X164650595Y-72798952D01*
X164888690Y-72798952D01*
X125761690Y-74798904D02*
X125523595Y-74917952D01*
X125047404Y-74917952D01*
X124809309Y-74798904D01*
X124690261Y-74560809D01*
X124690261Y-73608428D01*
X124809309Y-73370333D01*
X125047404Y-73251285D01*
X125523595Y-73251285D01*
X125761690Y-73370333D01*
X125880738Y-73608428D01*
X125880738Y-73846523D01*
X124690261Y-74084619D01*
X86982074Y-75489452D02*
X86982074Y-72989452D01*
X86982074Y-75370404D02*
X86743979Y-75489452D01*
X86267788Y-75489452D01*
X86029693Y-75370404D01*
X85910645Y-75251357D01*
X85791598Y-75013261D01*
X85791598Y-74298976D01*
X85910645Y-74060880D01*
X86029693Y-73941833D01*
X86267788Y-73822785D01*
X86743979Y-73822785D01*
X86982074Y-73941833D01*
X164425238Y-48192404D02*
X164187142Y-48311452D01*
X163710952Y-48311452D01*
X163472857Y-48192404D01*
X163353809Y-48073357D01*
X163234761Y-47835261D01*
X163234761Y-47120976D01*
X163353809Y-46882880D01*
X163472857Y-46763833D01*
X163710952Y-46644785D01*
X164187142Y-46644785D01*
X164425238Y-46763833D01*
X124813285Y-48438452D02*
X124813285Y-45938452D01*
X124813285Y-46890833D02*
X125051380Y-46771785D01*
X125527571Y-46771785D01*
X125765666Y-46890833D01*
X125884714Y-47009880D01*
X126003761Y-47247976D01*
X126003761Y-47962261D01*
X125884714Y-48200357D01*
X125765666Y-48319404D01*
X125527571Y-48438452D01*
X125051380Y-48438452D01*
X124813285Y-48319404D01*
X86990714Y-48311452D02*
X86990714Y-47001928D01*
X86871666Y-46763833D01*
X86633571Y-46644785D01*
X86157380Y-46644785D01*
X85919285Y-46763833D01*
X86990714Y-48192404D02*
X86752619Y-48311452D01*
X86157380Y-48311452D01*
X85919285Y-48192404D01*
X85800238Y-47954309D01*
X85800238Y-47716214D01*
X85919285Y-47478119D01*
X86157380Y-47359071D01*
X86752619Y-47359071D01*
X86990714Y-47240023D01*
D17*
X189103000Y-98406857D02*
X189320714Y-98479428D01*
X189683571Y-98479428D01*
X189828714Y-98406857D01*
X189901285Y-98334285D01*
X189973857Y-98189142D01*
X189973857Y-98044000D01*
X189901285Y-97898857D01*
X189828714Y-97826285D01*
X189683571Y-97753714D01*
X189393285Y-97681142D01*
X189248142Y-97608571D01*
X189175571Y-97536000D01*
X189103000Y-97390857D01*
X189103000Y-97245714D01*
X189175571Y-97100571D01*
X189248142Y-97028000D01*
X189393285Y-96955428D01*
X189756142Y-96955428D01*
X189973857Y-97028000D01*
X190481857Y-96955428D02*
X190844714Y-98479428D01*
X191135000Y-97390857D01*
X191425285Y-98479428D01*
X191788142Y-96955428D01*
X192441285Y-98479428D02*
X192731571Y-98479428D01*
X192876714Y-98406857D01*
X192949285Y-98334285D01*
X193094428Y-98116571D01*
X193167000Y-97826285D01*
X193167000Y-97245714D01*
X193094428Y-97100571D01*
X193021857Y-97028000D01*
X192876714Y-96955428D01*
X192586428Y-96955428D01*
X192441285Y-97028000D01*
X192368714Y-97100571D01*
X192296142Y-97245714D01*
X192296142Y-97608571D01*
X192368714Y-97753714D01*
X192441285Y-97826285D01*
X192586428Y-97898857D01*
X192876714Y-97898857D01*
X193021857Y-97826285D01*
X193094428Y-97753714D01*
X193167000Y-97608571D01*
X156083000Y-98406857D02*
X156300714Y-98479428D01*
X156663571Y-98479428D01*
X156808714Y-98406857D01*
X156881285Y-98334285D01*
X156953857Y-98189142D01*
X156953857Y-98044000D01*
X156881285Y-97898857D01*
X156808714Y-97826285D01*
X156663571Y-97753714D01*
X156373285Y-97681142D01*
X156228142Y-97608571D01*
X156155571Y-97536000D01*
X156083000Y-97390857D01*
X156083000Y-97245714D01*
X156155571Y-97100571D01*
X156228142Y-97028000D01*
X156373285Y-96955428D01*
X156736142Y-96955428D01*
X156953857Y-97028000D01*
X157461857Y-96955428D02*
X157824714Y-98479428D01*
X158115000Y-97390857D01*
X158405285Y-98479428D01*
X158768142Y-96955428D01*
X159203571Y-96955428D02*
X160219571Y-96955428D01*
X159566428Y-98479428D01*
X188341897Y-111106857D02*
X188559612Y-111179428D01*
X188922469Y-111179428D01*
X189067612Y-111106857D01*
X189140183Y-111034285D01*
X189212754Y-110889142D01*
X189212754Y-110744000D01*
X189140183Y-110598857D01*
X189067612Y-110526285D01*
X188922469Y-110453714D01*
X188632183Y-110381142D01*
X188487040Y-110308571D01*
X188414469Y-110236000D01*
X188341897Y-110090857D01*
X188341897Y-109945714D01*
X188414469Y-109800571D01*
X188487040Y-109728000D01*
X188632183Y-109655428D01*
X188995040Y-109655428D01*
X189212754Y-109728000D01*
X189720754Y-109655428D02*
X190083612Y-111179428D01*
X190373897Y-110090857D01*
X190664183Y-111179428D01*
X191027040Y-109655428D01*
X192405897Y-111179428D02*
X191535040Y-111179428D01*
X191970469Y-111179428D02*
X191970469Y-109655428D01*
X191825326Y-109873142D01*
X191680183Y-110018285D01*
X191535040Y-110090857D01*
X192986469Y-109800571D02*
X193059040Y-109728000D01*
X193204183Y-109655428D01*
X193567040Y-109655428D01*
X193712183Y-109728000D01*
X193784754Y-109800571D01*
X193857326Y-109945714D01*
X193857326Y-110090857D01*
X193784754Y-110308571D01*
X192913897Y-111179428D01*
X193857326Y-111179428D01*
X171867285Y-111106857D02*
X172085000Y-111179428D01*
X172447857Y-111179428D01*
X172593000Y-111106857D01*
X172665571Y-111034285D01*
X172738142Y-110889142D01*
X172738142Y-110744000D01*
X172665571Y-110598857D01*
X172593000Y-110526285D01*
X172447857Y-110453714D01*
X172157571Y-110381142D01*
X172012428Y-110308571D01*
X171939857Y-110236000D01*
X171867285Y-110090857D01*
X171867285Y-109945714D01*
X171939857Y-109800571D01*
X172012428Y-109728000D01*
X172157571Y-109655428D01*
X172520428Y-109655428D01*
X172738142Y-109728000D01*
X173246142Y-109655428D02*
X173609000Y-111179428D01*
X173899285Y-110090857D01*
X174189571Y-111179428D01*
X174552428Y-109655428D01*
X175931285Y-111179428D02*
X175060428Y-111179428D01*
X175495857Y-111179428D02*
X175495857Y-109655428D01*
X175350714Y-109873142D01*
X175205571Y-110018285D01*
X175060428Y-110090857D01*
X177382714Y-111179428D02*
X176511857Y-111179428D01*
X176947285Y-111179428D02*
X176947285Y-109655428D01*
X176802142Y-109873142D01*
X176657000Y-110018285D01*
X176511857Y-110090857D01*
X155357285Y-111106857D02*
X155575000Y-111179428D01*
X155937857Y-111179428D01*
X156083000Y-111106857D01*
X156155571Y-111034285D01*
X156228142Y-110889142D01*
X156228142Y-110744000D01*
X156155571Y-110598857D01*
X156083000Y-110526285D01*
X155937857Y-110453714D01*
X155647571Y-110381142D01*
X155502428Y-110308571D01*
X155429857Y-110236000D01*
X155357285Y-110090857D01*
X155357285Y-109945714D01*
X155429857Y-109800571D01*
X155502428Y-109728000D01*
X155647571Y-109655428D01*
X156010428Y-109655428D01*
X156228142Y-109728000D01*
X156736142Y-109655428D02*
X157099000Y-111179428D01*
X157389285Y-110090857D01*
X157679571Y-111179428D01*
X158042428Y-109655428D01*
X159421285Y-111179428D02*
X158550428Y-111179428D01*
X158985857Y-111179428D02*
X158985857Y-109655428D01*
X158840714Y-109873142D01*
X158695571Y-110018285D01*
X158550428Y-110090857D01*
X160364714Y-109655428D02*
X160509857Y-109655428D01*
X160655000Y-109728000D01*
X160727571Y-109800571D01*
X160800142Y-109945714D01*
X160872714Y-110236000D01*
X160872714Y-110598857D01*
X160800142Y-110889142D01*
X160727571Y-111034285D01*
X160655000Y-111106857D01*
X160509857Y-111179428D01*
X160364714Y-111179428D01*
X160219571Y-111106857D01*
X160147000Y-111034285D01*
X160074428Y-110889142D01*
X160001857Y-110598857D01*
X160001857Y-110236000D01*
X160074428Y-109945714D01*
X160147000Y-109800571D01*
X160219571Y-109728000D01*
X160364714Y-109655428D01*
X172593000Y-98406857D02*
X172810714Y-98479428D01*
X173173571Y-98479428D01*
X173318714Y-98406857D01*
X173391285Y-98334285D01*
X173463857Y-98189142D01*
X173463857Y-98044000D01*
X173391285Y-97898857D01*
X173318714Y-97826285D01*
X173173571Y-97753714D01*
X172883285Y-97681142D01*
X172738142Y-97608571D01*
X172665571Y-97536000D01*
X172593000Y-97390857D01*
X172593000Y-97245714D01*
X172665571Y-97100571D01*
X172738142Y-97028000D01*
X172883285Y-96955428D01*
X173246142Y-96955428D01*
X173463857Y-97028000D01*
X173971857Y-96955428D02*
X174334714Y-98479428D01*
X174625000Y-97390857D01*
X174915285Y-98479428D01*
X175278142Y-96955428D01*
X176076428Y-97608571D02*
X175931285Y-97536000D01*
X175858714Y-97463428D01*
X175786142Y-97318285D01*
X175786142Y-97245714D01*
X175858714Y-97100571D01*
X175931285Y-97028000D01*
X176076428Y-96955428D01*
X176366714Y-96955428D01*
X176511857Y-97028000D01*
X176584428Y-97100571D01*
X176657000Y-97245714D01*
X176657000Y-97318285D01*
X176584428Y-97463428D01*
X176511857Y-97536000D01*
X176366714Y-97608571D01*
X176076428Y-97608571D01*
X175931285Y-97681142D01*
X175858714Y-97753714D01*
X175786142Y-97898857D01*
X175786142Y-98189142D01*
X175858714Y-98334285D01*
X175931285Y-98406857D01*
X176076428Y-98479428D01*
X176366714Y-98479428D01*
X176511857Y-98406857D01*
X176584428Y-98334285D01*
X176657000Y-98189142D01*
X176657000Y-97898857D01*
X176584428Y-97753714D01*
X176511857Y-97681142D01*
X176366714Y-97608571D01*
X111633000Y-111106857D02*
X111850714Y-111179428D01*
X112213571Y-111179428D01*
X112358714Y-111106857D01*
X112431285Y-111034285D01*
X112503857Y-110889142D01*
X112503857Y-110744000D01*
X112431285Y-110598857D01*
X112358714Y-110526285D01*
X112213571Y-110453714D01*
X111923285Y-110381142D01*
X111778142Y-110308571D01*
X111705571Y-110236000D01*
X111633000Y-110090857D01*
X111633000Y-109945714D01*
X111705571Y-109800571D01*
X111778142Y-109728000D01*
X111923285Y-109655428D01*
X112286142Y-109655428D01*
X112503857Y-109728000D01*
X113011857Y-109655428D02*
X113374714Y-111179428D01*
X113665000Y-110090857D01*
X113955285Y-111179428D01*
X114318142Y-109655428D01*
X115551857Y-109655428D02*
X115261571Y-109655428D01*
X115116428Y-109728000D01*
X115043857Y-109800571D01*
X114898714Y-110018285D01*
X114826142Y-110308571D01*
X114826142Y-110889142D01*
X114898714Y-111034285D01*
X114971285Y-111106857D01*
X115116428Y-111179428D01*
X115406714Y-111179428D01*
X115551857Y-111106857D01*
X115624428Y-111034285D01*
X115697000Y-110889142D01*
X115697000Y-110526285D01*
X115624428Y-110381142D01*
X115551857Y-110308571D01*
X115406714Y-110236000D01*
X115116428Y-110236000D01*
X114971285Y-110308571D01*
X114898714Y-110381142D01*
X114826142Y-110526285D01*
X95123000Y-111106857D02*
X95340714Y-111179428D01*
X95703571Y-111179428D01*
X95848714Y-111106857D01*
X95921285Y-111034285D01*
X95993857Y-110889142D01*
X95993857Y-110744000D01*
X95921285Y-110598857D01*
X95848714Y-110526285D01*
X95703571Y-110453714D01*
X95413285Y-110381142D01*
X95268142Y-110308571D01*
X95195571Y-110236000D01*
X95123000Y-110090857D01*
X95123000Y-109945714D01*
X95195571Y-109800571D01*
X95268142Y-109728000D01*
X95413285Y-109655428D01*
X95776142Y-109655428D01*
X95993857Y-109728000D01*
X96501857Y-109655428D02*
X96864714Y-111179428D01*
X97155000Y-110090857D01*
X97445285Y-111179428D01*
X97808142Y-109655428D01*
X99114428Y-109655428D02*
X98388714Y-109655428D01*
X98316142Y-110381142D01*
X98388714Y-110308571D01*
X98533857Y-110236000D01*
X98896714Y-110236000D01*
X99041857Y-110308571D01*
X99114428Y-110381142D01*
X99187000Y-110526285D01*
X99187000Y-110889142D01*
X99114428Y-111034285D01*
X99041857Y-111106857D01*
X98896714Y-111179428D01*
X98533857Y-111179428D01*
X98388714Y-111106857D01*
X98316142Y-111034285D01*
X78613000Y-111106857D02*
X78830714Y-111179428D01*
X79193571Y-111179428D01*
X79338714Y-111106857D01*
X79411285Y-111034285D01*
X79483857Y-110889142D01*
X79483857Y-110744000D01*
X79411285Y-110598857D01*
X79338714Y-110526285D01*
X79193571Y-110453714D01*
X78903285Y-110381142D01*
X78758142Y-110308571D01*
X78685571Y-110236000D01*
X78613000Y-110090857D01*
X78613000Y-109945714D01*
X78685571Y-109800571D01*
X78758142Y-109728000D01*
X78903285Y-109655428D01*
X79266142Y-109655428D01*
X79483857Y-109728000D01*
X79991857Y-109655428D02*
X80354714Y-111179428D01*
X80645000Y-110090857D01*
X80935285Y-111179428D01*
X81298142Y-109655428D01*
X82531857Y-110163428D02*
X82531857Y-111179428D01*
X82169000Y-109582857D02*
X81806142Y-110671428D01*
X82749571Y-110671428D01*
X111633000Y-98406857D02*
X111850714Y-98479428D01*
X112213571Y-98479428D01*
X112358714Y-98406857D01*
X112431285Y-98334285D01*
X112503857Y-98189142D01*
X112503857Y-98044000D01*
X112431285Y-97898857D01*
X112358714Y-97826285D01*
X112213571Y-97753714D01*
X111923285Y-97681142D01*
X111778142Y-97608571D01*
X111705571Y-97536000D01*
X111633000Y-97390857D01*
X111633000Y-97245714D01*
X111705571Y-97100571D01*
X111778142Y-97028000D01*
X111923285Y-96955428D01*
X112286142Y-96955428D01*
X112503857Y-97028000D01*
X113011857Y-96955428D02*
X113374714Y-98479428D01*
X113665000Y-97390857D01*
X113955285Y-98479428D01*
X114318142Y-96955428D01*
X114753571Y-96955428D02*
X115697000Y-96955428D01*
X115189000Y-97536000D01*
X115406714Y-97536000D01*
X115551857Y-97608571D01*
X115624428Y-97681142D01*
X115697000Y-97826285D01*
X115697000Y-98189142D01*
X115624428Y-98334285D01*
X115551857Y-98406857D01*
X115406714Y-98479428D01*
X114971285Y-98479428D01*
X114826142Y-98406857D01*
X114753571Y-98334285D01*
X95123000Y-98406857D02*
X95340714Y-98479428D01*
X95703571Y-98479428D01*
X95848714Y-98406857D01*
X95921285Y-98334285D01*
X95993857Y-98189142D01*
X95993857Y-98044000D01*
X95921285Y-97898857D01*
X95848714Y-97826285D01*
X95703571Y-97753714D01*
X95413285Y-97681142D01*
X95268142Y-97608571D01*
X95195571Y-97536000D01*
X95123000Y-97390857D01*
X95123000Y-97245714D01*
X95195571Y-97100571D01*
X95268142Y-97028000D01*
X95413285Y-96955428D01*
X95776142Y-96955428D01*
X95993857Y-97028000D01*
X96501857Y-96955428D02*
X96864714Y-98479428D01*
X97155000Y-97390857D01*
X97445285Y-98479428D01*
X97808142Y-96955428D01*
X98316142Y-97100571D02*
X98388714Y-97028000D01*
X98533857Y-96955428D01*
X98896714Y-96955428D01*
X99041857Y-97028000D01*
X99114428Y-97100571D01*
X99187000Y-97245714D01*
X99187000Y-97390857D01*
X99114428Y-97608571D01*
X98243571Y-98479428D01*
X99187000Y-98479428D01*
X78613000Y-98406857D02*
X78830714Y-98479428D01*
X79193571Y-98479428D01*
X79338714Y-98406857D01*
X79411285Y-98334285D01*
X79483857Y-98189142D01*
X79483857Y-98044000D01*
X79411285Y-97898857D01*
X79338714Y-97826285D01*
X79193571Y-97753714D01*
X78903285Y-97681142D01*
X78758142Y-97608571D01*
X78685571Y-97536000D01*
X78613000Y-97390857D01*
X78613000Y-97245714D01*
X78685571Y-97100571D01*
X78758142Y-97028000D01*
X78903285Y-96955428D01*
X79266142Y-96955428D01*
X79483857Y-97028000D01*
X79991857Y-96955428D02*
X80354714Y-98479428D01*
X80645000Y-97390857D01*
X80935285Y-98479428D01*
X81298142Y-96955428D01*
X82677000Y-98479428D02*
X81806142Y-98479428D01*
X82241571Y-98479428D02*
X82241571Y-96955428D01*
X82096428Y-97173142D01*
X81951285Y-97318285D01*
X81806142Y-97390857D01*
M02*
